<svg id="Livello_1" data-name="Livello 1" xmlns="http://www.w3.org/2000/svg" viewBox="0 0 399.09 389.41">
  <defs>
    <style>.cls-1{fill:#ffffff;fill-rule:evenodd;}</style>
  </defs>
  <path class="cls-1" d="M293.2,7c9.85-3.08-.85,15.3-3.3,9.36,2.09-1.26,3.11-2.23,3.3-5.51C274,22.72,258,44.11,259.09,70.83c13.7-4.89,18.22-33.27,20.91-24.75-.56,8.77-8.92,18.14-14.3,24.76-5.56,2.56-7.62,4.25-6.61,10.45C270.48,82,295.85,57.94,289.35,45c-9.47,6.6-9.06-3.53,1.1-3.3,14.06,15.72-18.21,40.63-31.9,42.91-4.21-7.36,2.17-6.32-3.86-16C257,43.32,272.62,20.2,293.2,7Z" />
  <path class="cls-1" d="M243.14,37.83c3.11,0,4.11,2.43,5.5,5-2.82.51-2.38-.72-4.4-1.65-.35,2.15-.38,2.1-2.2,2.75A12.16,12.16,0,0,1,243.14,37.83Z" />
  <path class="cls-1" d="M234.34,70.84c-1-3.87-1.25-11.19,1.1-3.86,2.44,1.55,7.93-8.58,7.7-13.75-7.64-6-5,3.44-9.35,3.85-4.39-9.54,10.7-13.12,12.65-3.3C247.73,60.68,239.83,70.68,234.34,70.84Z" />
  <path class="cls-1" d="M112.76,135.75c-8.18.55-1.61-11.24-3.85-18.15-15.86-71.2-21.76-.91-32.46,27C66.27,182-36.7,360.45,29.14,235.87c26-45,46.93-92.17,59.41-143,12.49-33.26,17.76,15,24.21,22.56,9.95-16,8.29-6.68,14.3.55,2.13-4.88,3.42-8,7.16-11.56,2.85,1,2.46,3.06,3.85,5.5.68,1.15,2.7,2.21,3.3,3.31,2.24,1.53,1.19,26.53-2.76,13.75-3-5.26,1.45-14.92-4.94-17.06-.2,6.36-4.71,10-6.61,15.41-.77,2.18.08,5.9-1.1,7.7-2,1.39-2.86-.17-2.75-2.75C128.42,99,110.88,111.11,112.76,135.75Z" />
  <path class="cls-1" d="M390.57,98.34c8.91,5.63-16.57,18.57-8.25,30.81-7.31,1.24-2.88-8.78-6.6-13.75-3.85.93-4.32,10.57-8.26,11-1.06-3.34,4.09-18,9.36-16C381.26,121.84,387.2,102.39,390.57,98.34Z" />
  <path class="cls-1" d="M228.84,114.85c-2.55-10.9-7.77,8.93-7.71,12.65-1-1.61-2.43-13.9-3.3-14.86-5.7.34-6.18,9-8.8,12.66-3.41,3.1-11.46,5.34-11.55-1.65,4.94-4.21,13.53-17.71,4.4-23.11-6.36,6.58-13,22.14-3.3,31.91,5,.92,10.53-5.75,9.35,1.65,4-.85,5-13.34,8.8-14.3C222,147.18,221.22,123.74,228.84,114.85ZM201.33,106c3.68,2.4-1.77,11.75-3.3,13.21C194.24,118.58,200.15,108.26,201.33,106Z" />
  <path class="cls-1" d="M180.43,126.4c4.65-9.6,6.71-16.59-6.61-15.4-2.61-5.18,6.06-3.59,9.36-3.31C190.16,112.52,186.92,125,180.43,126.4Z" />
  <path class="cls-1" d="M352.61,103.84c-11.54-2-12.34,13.15-3.85,3.85,11.17.44,5.94,15.88,0,17.61-1,4.93,5-.55,7.15,1.1,4.08-.7,4.21-4.83,6.6-7.15l4.95-2.2C369.86,105.23,357.12,108.35,352.61,103.84Zm5.5,15.41h-.55c.84-7,.14-12.75,7.16-5.51C360.66,116.35,360.82,114.5,358.11,119.25Z" />
  <path class="cls-1" d="M265.69,107.69c-.29-5.79,3-17.58,9.36-15.4.8,4.69-7.34,12.76-1.66,13.2.93-8.09,7.25-8.85,1.66-17-11.67-1.16-11.3,14.94-13.21,22.56-3-11.28-23.59-1.82-19.8,8.25.68,1.35,1,.84,1.65,2.2,2.68-6.2.58-8.46,8.25-12.1,16.93-.41,1.11,23.77-7.15,23.1,4.18,5.87,15.51-8.48,16.5-12.65,2.92-.67,1.56,3.58,2.2,5.5-1.34,2.45-5.26,6.29-1.65,9.35,3.38-.23,5.4-6.46,5.5-7.7C287.43,122.84,278.77,114.64,265.69,107.69Zm1.65,16c-2.93-1.51-1.94-8.3-2.75-11C274.53,114.8,280.84,122,267.34,123.65Z" />
  <path class="cls-1" d="M342.16,112.09c-3.44-8-20.87-14-22.56-2.75-2.68.41-6.36,1.2-8.25-.55-3.75,1.68-7.62,9.25-7.15,13.21,2.74-.64,4.4-3.23,4.95-6.06,5.88-1.38,5.85,9.62,11.56,11,9.65-3.77,6.9,2,15.4-5C340.57,130.51,343.61,117.35,342.16,112.09Zm-19.8,11c-4.94-.66-5.35-5.39-8.26-8.25C316.56,110.77,334.23,116.07,322.36,123.1Zm16.5-1.1c-.08,1.8-.94-1-1.65-.55-.49-.38,1.05-1.06,1.1-1.1V117.6c-3.57-2.16-7.26,4.41-9.9,4.4,3.39-5.62-.71-10.66-6.05-11.56C326.39,101.74,345.75,111.57,338.86,122Z" />
  <path class="cls-1" d="M216.18,116.49c-.18.37-.36.74-.55,1.11C217.49,118.92,217,117.12,216.18,116.49Z" />
  <path class="cls-1" d="M173.82,125.3c.88-3.6,3.32-7.58,7.15-8.25C182.39,120.55,177.55,124.93,173.82,125.3Z" />
  <path class="cls-1" d="M326.76,123.1c-.1,1.8.26.75,1.1.55C327.3,123.2,327.71,123.45,326.76,123.1Z" />
  <path class="cls-1" d="M208.48,128.6c.56.44.15.19,1.1.55C209,128.71,209.43,129,208.48,128.6Z" />
  <path class="cls-1" d="M156.77,139.6c5.55.8,12.68,1,13.75,6.6-4.61-3-14.73-5.3-17.05,1.1C148.53,142.65,151.15,141.78,156.77,139.6Z" />
  <path class="cls-1" d="M320.71,150.05c-4.72.74-1.45-2.54-1.66-6.05,4.16-1.47,6.3-3.42,12.11-2.75,1.09,1.09,1.66,6.6-1.1,4.95C329,141.32,321.13,145.87,320.71,150.05Z" />
  <path class="cls-1" d="M255.24,147.85c-9.41,8.68-12.53,35.72-14.85,50.06-8.71-1.54,1.05-17.42,1.65-22.55,6.7-45.9,23.14-32.06,12.1-13.75.06-.85-.28-.62-.55-1.65C256.09,157.13,255.35,153.13,255.24,147.85Z" />
  <path class="cls-1" d="M195.83,192.41c-8.55,1.85-1.82-15-7.15-17.6-10.71,12.81-4.43,55.5-29.16,52.26-6.67-3.33-15.55-3.08-19.8-10.45-8,8.41-28.16,11.62-40.71,5.5-28-16.32,18.26-36,31.91-43.46-8.66,11-35.36,15.92-37.41,33,16.65,28.68,77.86,0,40.7-41.8-1.73-2.65-14.35-10-6.6-11.56a73.22,73.22,0,0,1,20.36,33c3.6,10.31-6.6,21-3.85,25.86,27.69,19.61,30.1-2.08,35.75-25.31C182.8,163.21,194.29,163.53,195.83,192.41Z" />
  <path class="cls-1" d="M168.32,187.46c-15.89,4.52,18.63-26,2.75-31.91-10.61,8.52-9.16,20.72-12.65,30.81,3.48,2.07,4,1.54,5.5,6C168.13,192.14,170.48,191.06,168.32,187.46Zm-4.95-7.15c-1.2-7.93,4.36-14.8,7.15-20.36C175.06,163.29,165,179.24,163.37,180.31Z" />
  <path class="cls-1" d="M331.16,169.31c1.92,4.13,11.67,13.43,2.75,19.8-1.45-.51-1.31-.62-1.65-2.2,5.56-2.63.46-10.93-2.75-14.3-2.43-2.14-17.76-7.65-7.15-7.71C325.69,166,327.41,168.57,331.16,169.31Z" />
  <path class="cls-1" d="M277.8,168.21c42.09,9.39-4.5,47.7-25.86,52.26,3.85,2,8.61,6.73,6.6,12.1-3.71-4.32-5.18-11-12.1-12.1,4.54,16.92-1.18,36-2.2,52.81,17.19-5.73,2.26,4.33-2.2,3.3-1.93-3.8-1.74-15.29,2.2-19.25-.72-8.66,4.11-21.56.55-32.46-2.22-6.67-6.76-12.29-1.65-19.26-2.25,27.15,35.63,0,42.36-10.45,11.44-10.5,3.21-31.27-12.65-20.35C270.7,170.43,274.24,170.08,277.8,168.21Z" />
  <path class="cls-1" d="M233.79,172.06c8-.12-3.94,20.11-6.6,20.9.09-.46-.09-.64-.55-.55C229.29,185.6,234.61,179.64,233.79,172.06Z" />
  <path class="cls-1" d="M256.89,175.36c3.56.28-1,4.32-1.1,6-.22,3.65.17,11.13,5,11.55,2.05-2.67,5.83-7.57,3.85-11-2.44-4.93-3.38,1.71-4.95,3.3-7.22-8.24,6.92-13.2,8.25-2.75,2.17,3.35-3.06,11.71-6.6,13.2C252.78,197.26,252.25,180.86,256.89,175.36Z" />
  <path class="cls-1" d="M324,178.66c6.47,1.55-4.16,10.54-5,5C321.2,182.56,321.62,179,324,178.66Z" />
  <path class="cls-1" d="M183.18,266.68c-1.15-.21-1.06-.14-1.65-.55,4.18-11-2.86-31.53-18.16-25.31-30,8.64-42.33,37.36-54.46,63.26-13.35,56.23,27.86,108.34,69.32,47.86,19.05-25.62,22.15-60.49,25.3-91.31,3.83-11.55-.14-40.1,13.2-46.22,2.31,7.51,3.93,18.8,6.6,26.41,0,5.6,1.45,9.85,7.16,11.55-.17-8.57,3.56-6,7.7-1.64-.24,2.61-2.15.94-3.85.54a11.75,11.75,0,0,0,.55,11.56c-4.62,2.43-4.95-4.64-6.6-7.71-4.14,2.25-3.19,9.29-2.76,14.86-7.22,2.18-2.49-10.09-2.74-14.85-2.42-11.83-3.93-25-7.16-35.76-11.95,15.83-6.83,50.51-12.1,71.51-10.7,93.44-109.82,140.89-96.28,12.65a136.59,136.59,0,0,1,38-58.31C166.31,232.25,189.64,235,183.18,266.68Z" />
  <path class="cls-1" d="M264,238.07c3.2-.41,4.25,4,2.2,6.6C263.14,243.89,262.84,240.13,264,238.07Z" />
  <path class="cls-1" d="M283.3,244.67c8.18-1.23-.81,11.39-1.65,16-1,3.59.39,7.75-3.85,8.25-.55-3.29-1.26-11.2-3.85-12.66A33,33,0,0,0,270.09,270c-6.51,1.11,3.13-22.1,3.85-23.66,4-.28,1.93,11.2,5,13.21C279.47,257.19,283.15,248.15,283.3,244.67Z" />
  <path class="cls-1" d="M278.35,261.73c.18.71-.51,2.41.55,2.2C278.89,262,279.7,263,278.35,261.73Z" />
</svg>