<svg id="Livello_1" data-name="Livello 1" xmlns="http://www.w3.org/2000/svg" xmlns:xlink="http://www.w3.org/1999/xlink" viewBox="0 0 126 128"><defs><style>.cls-1{fill:url(#Sfumatura_senza_nome_27);}.cls-2{fill:#3f6068;}.cls-3{fill:#ec7849;}.cls-4{fill:#dee487;}.cls-5{fill:#9c311e;}.cls-6{fill:url(#Sfumatura_senza_nome_38);}.cls-7{fill:url(#Sfumatura_senza_nome_38-2);}.cls-8{fill:url(#Sfumatura_senza_nome_38-3);}</style><linearGradient id="Sfumatura_senza_nome_27" x1="7.93" y1="13.65" x2="120.23" y2="116.33" gradientUnits="userSpaceOnUse"><stop offset="0.21" stop-color="#3c8599"/><stop offset="0.87" stop-color="#67abba"/></linearGradient><linearGradient id="Sfumatura_senza_nome_38" x1="48.85" y1="76.59" x2="52.99" y2="76.59" gradientUnits="userSpaceOnUse"><stop offset="0" stop-color="#cd2b33"/><stop offset="1" stop-color="#e66143"/></linearGradient><linearGradient id="Sfumatura_senza_nome_38-2" x1="54.37" y1="80.67" x2="58.38" y2="80.67" xlink:href="#Sfumatura_senza_nome_38"/><linearGradient id="Sfumatura_senza_nome_38-3" x1="49.53" y1="82.62" x2="53.44" y2="82.62" xlink:href="#Sfumatura_senza_nome_38"/></defs><path class="cls-1" d="M120.89,64a57.82,57.82,0,0,1-56.37,57.85c-.5,0-1,0-1.52,0a57.89,57.89,0,1,1,57.74-62.06C120.84,61.21,120.89,62.6,120.89,64Z"/><path class="cls-2" d="M120.09,73.64a57.87,57.87,0,0,1-55.57,48.22l-24.12-40L78.19,47.67Z"/><circle class="cls-3" cx="63" cy="68.77" r="26.11" transform="translate(-8.56 128.59) rotate(-87.4)"/><path class="cls-4" d="M42.34,33.13A24.17,24.17,0,0,1,66.4,52.5a22.26,22.26,0,0,1-16.49-5A22.18,22.18,0,0,1,42.34,33.13Z"/><path class="cls-5" d="M66.33,52.51c-3.21-9.73,1.77-15.44,6.06-16.81A1.74,1.74,0,0,1,74,36l3.89,3.36a.73.73,0,0,1-.16,1.21c-5,2.23-10.26,5.78-11.14,11.88A.15.15,0,0,1,66.33,52.51Z"/><circle class="cls-6" cx="50.92" cy="76.59" r="2.07"/><circle class="cls-7" cx="56.38" cy="80.67" r="2.01"/><circle class="cls-8" cx="51.48" cy="82.62" r="1.95"/></svg>