<svg id="Livello_1" data-name="Livello 1" xmlns="http://www.w3.org/2000/svg" viewBox="0 0 663.16 433.79"><defs><style>.cls-1,.cls-5,.cls-6{fill:#1d1d1b;}.cls-2{fill:#010101;}.cls-3,.cls-4{fill:none;stroke:#000;stroke-linecap:round;stroke-linejoin:round;}.cls-3{stroke-width:9px;}.cls-4{stroke-width:3px;}.cls-5{font-size:44.35px;}.cls-5,.cls-6{font-family:MyriadPro-Regular, Myriad Pro;}.cls-6{font-size:42px;}</style></defs><path class="cls-1" d="M533.68,189.74V166a2.22,2.22,0,0,0-2.22-2.22H505.85a.42.42,0,0,1-.34-.68l9.8-12.54a.63.63,0,0,1,1.12.39v1.18a2,2,0,0,0,2,2h13.78a9.14,9.14,0,0,1,9.13,9.14v17.6a5.08,5.08,0,0,1-1.09,3.15l-4.9,6.25A1,1,0,0,1,533.68,189.74Z" transform="translate(-3.87 -2.49)"/><path class="cls-1" d="M552.57,232.41l0-11.87A2.51,2.51,0,0,0,550.1,218H539.32a.42.42,0,0,1-.34-.66s2.85-5.22,3.44-5.09.55,1,.55,1a1,1,0,0,0,.94.95h8.18a3.71,3.71,0,0,1,3.71,3.71v14.47a.53.53,0,0,0,.53.53h2.31a.47.47,0,0,1,.34.78l-2.33,2.54a1,1,0,0,1-.7.31H539.39a.39.39,0,0,1-.3-.65l2.25-2.58a1.18,1.18,0,0,1,.88-.4H552A.53.53,0,0,0,552.57,232.41Z" transform="translate(-3.87 -2.49)"/><path class="cls-1" d="M528.62,217.65H518.17a.36.36,0,0,1-.36-.36v-.83a.76.76,0,0,1,.13-.44c.49-.73,2.21-3.26,2.58-3.33s.8.8,1,1.26a.52.52,0,0,0,.46.28h6.83a.7.7,0,0,0,.52-.23c.59-.64,2.29-2.43,2.5-2.28s.08,1.61,0,2.2a.22.22,0,0,0,.22.25h3.15a.45.45,0,0,1,.34.73l-2.06,2.46a.85.85,0,0,1-.63.29h-.69a.28.28,0,0,0-.31.32v15.79a1,1,0,0,1-.28.7l-2,2.1a.3.3,0,0,1-.53-.21V218.16A.51.51,0,0,0,528.62,217.65Z" transform="translate(-3.87 -2.49)"/><path class="cls-1" d="M512.92,220a.47.47,0,0,0,.48-.18c1.11-1.55,2.55-8.69-.07-7.44-1.27.6-1.62,2-.77,3.73C513.12,217.25,511.58,219.77,512.92,220Z" transform="translate(-3.87 -2.49)"/><path class="cls-1" d="M507.6,220a.46.46,0,0,0,.48-.18c1.11-1.55,2.55-8.69-.07-7.44-1.26.6-1.62,2-.77,3.73C507.8,217.25,506.27,219.77,507.6,220Z" transform="translate(-3.87 -2.49)"/><path class="cls-1" d="M484,235.78a21.26,21.26,0,0,1,2.9-2.62.5.5,0,0,1,.33-.12h10.6c1.38,0,1.79-1.43,1.33-1.84l-13.92-13.37a.51.51,0,0,1,0-.75l3.06-2.63a.5.5,0,0,1,.78.17,31.66,31.66,0,0,0,8.74,10.48c.87-1.06,2.43-3.68,2.23-4.77a5,5,0,0,0-1.29-2.2.57.57,0,0,1,0-.78l2.81-3a.57.57,0,0,1,.9.07,7.52,7.52,0,0,1,.72,5.45c-.51,1.79-3.59,5-4.53,5.93.65.68,2.54,2.33,3.12,3a6.37,6.37,0,0,1,1.38,2.61,4.35,4.35,0,0,1-1.12,3.11,7.13,7.13,0,0,1-2.46,2.09H485C484,236.66,483.84,236,484,235.78Z" transform="translate(-3.87 -2.49)"/><path class="cls-1" d="M454.27,236.11l2.07-3a1.4,1.4,0,0,1,1.27-.61l8.29.56a1.27,1.27,0,0,0,1.09-.48l.08-.09a1.81,1.81,0,0,0,.41-1.06c.13-2.79.3-14.32-6.13-14.64s-9.78,12.59-10.53,15.8a3.05,3.05,0,0,1-.65,1.31L447.54,237a.48.48,0,0,1-.82-.48c1.38-3.79,3.81-10.63,4.1-12.92.31-2.47-2.05-6-3.17-7.59a1.22,1.22,0,0,1,.05-1.48l1.88-2.25a.67.67,0,0,1,1.08.06,14.9,14.9,0,0,1,1.85,3.7c.24,1.07.53,2.82.69,3.84a.32.32,0,0,0,.58.14c1.35-1.93,4.2-7.46,7.93-7.31a8.63,8.63,0,0,1,7.83,6.5c.92,3.58.29,9.21.08,11.58a4.14,4.14,0,0,1-.47,1.57l-1.33,2.5a3.35,3.35,0,0,1-2.95,1.77H454.56A.35.35,0,0,1,454.27,236.11Z" transform="translate(-3.87 -2.49)"/><path class="cls-1" d="M441.26,236.35V221a3.33,3.33,0,0,0-3.33-3.33H422.8a.45.45,0,0,1-.38-.71s2.9-5,3.33-4.79.37,1.28.37,1.28a.85.85,0,0,0,.85.85H438.8a5.63,5.63,0,0,1,5.63,5.62v13.33a1.88,1.88,0,0,1-.56,1.34l-2,2A.35.35,0,0,1,441.26,236.35Z" transform="translate(-3.87 -2.49)"/><path class="cls-1" d="M427.93,233.31V222.26c0-.86.11-1.19,0-1.22s-.35.54-1.06,1.22c-.39.38-.49.35-.95.79a3.63,3.63,0,0,0-.86,1c-.27.54-.06.82,0,2.36v9.13c0,1-.11,1.33,0,1.37s.4-.46,1.27-1.48c.42-.5.59-.64.95-1.12A10,10,0,0,0,427.93,233.31Z" transform="translate(-3.87 -2.49)"/><path class="cls-1" d="M399.85,217l2.84-4.23a.44.44,0,0,1,.75,0l.5,1a.7.7,0,0,0,.63.39h7.23l2.05-2.39a.41.41,0,0,1,.71.27v2.12h3.7a.56.56,0,0,1,.42.94l-1.87,2.09a1.21,1.21,0,0,1-.88.4h-1.37V232.8a1.65,1.65,0,0,1-.33,1l-2.43,3.13V217.65H400.18A.4.4,0,0,1,399.85,217Z" transform="translate(-3.87 -2.49)"/><path class="cls-1" d="M362.72,127.89l.06-13.06A2.78,2.78,0,0,0,360,112H348.15a.46.46,0,0,1-.38-.72s3.14-5.74,3.79-5.6.6,1.12.6,1.12a1,1,0,0,0,1,1h9a4.09,4.09,0,0,1,4.09,4.09v15.91a.59.59,0,0,0,.58.59h2.53a.51.51,0,0,1,.38.85l-2.56,2.8a1.08,1.08,0,0,1-.78.34H348.22a.43.43,0,0,1-.32-.72l2.47-2.84a1.27,1.27,0,0,1,1-.43h10.79A.59.59,0,0,0,362.72,127.89Z" transform="translate(-3.87 -2.49)"/><path class="cls-1" d="M341.09,132.32V115.14a3.75,3.75,0,0,0-3.74-3.74h-17a.51.51,0,0,1-.42-.8s3.26-5.6,3.73-5.37.43,1.43.43,1.43a1,1,0,0,0,.95,1h13.27a6.3,6.3,0,0,1,6.31,6.31v14.95a2.1,2.1,0,0,1-.62,1.5l-2.25,2.23A.4.4,0,0,1,341.09,132.32Z" transform="translate(-3.87 -2.49)"/><path class="cls-1" d="M326.13,128.91V116.52c0-1,.12-1.33,0-1.38s-.39.62-1.18,1.38c-.44.42-.56.39-1.07.88a4.26,4.26,0,0,0-1,1.11c-.31.61-.07.92,0,2.65V131.4c0,1.14-.13,1.49,0,1.55s.44-.52,1.41-1.67a16.59,16.59,0,0,0,1.08-1.26A10.79,10.79,0,0,0,326.13,128.91Z" transform="translate(-3.87 -2.49)"/><path class="cls-1" d="M396.73,233.11l-1.9,3.36a.21.21,0,0,1-.4-.11c0-3.7-.1-18.4-4.92-18.4H379.1a.51.51,0,0,1-.41-.81l3.83-5.32a.47.47,0,0,1,.85.28v1.48a.4.4,0,0,0,.37.41c.82.07,3,.23,6.38.23,4.45,0,5.57,5.82,5.57,5.82a80.08,80.08,0,0,1,1.25,12.26A1.62,1.62,0,0,1,396.73,233.11Z" transform="translate(-3.87 -2.49)"/><path class="cls-1" d="M403.82,128.16l-2.07,3.67a.23.23,0,0,1-.44-.11c.05-4-.11-20.1-5.38-20.1H384.57a.56.56,0,0,1-.45-.89l4.18-5.8a.51.51,0,0,1,.93.3v1.62a.44.44,0,0,0,.41.45c.89.08,3.24.24,7,.24,4.86,0,6.09,6.37,6.09,6.37a87.62,87.62,0,0,1,1.36,13.39A1.73,1.73,0,0,1,403.82,128.16Z" transform="translate(-3.87 -2.49)"/><path class="cls-1" d="M322.11,236.11l2.07-3a1.4,1.4,0,0,1,1.27-.61l8.29.56a1.3,1.3,0,0,0,1.1-.48l.07-.09a1.81,1.81,0,0,0,.41-1.06c.13-2.79.3-14.32-6.12-14.64s-9.79,12.59-10.53,15.8a3.19,3.19,0,0,1-.66,1.31L315.38,237a.48.48,0,0,1-.82-.48c1.38-3.79,3.81-10.63,4.1-12.92.31-2.47-2.05-6-3.17-7.59a1.22,1.22,0,0,1,.05-1.48l1.88-2.25a.67.67,0,0,1,1.08.06,14.9,14.9,0,0,1,1.85,3.7c.24,1.07.53,2.82.69,3.84a.33.33,0,0,0,.59.14c1.34-1.93,4.19-7.46,7.92-7.31a8.62,8.62,0,0,1,7.83,6.5c.92,3.58.29,9.21.08,11.58a4.14,4.14,0,0,1-.47,1.57l-1.33,2.5a3.33,3.33,0,0,1-3,1.77H322.4A.35.35,0,0,1,322.11,236.11Z" transform="translate(-3.87 -2.49)"/><path class="cls-1" d="M365.69,216l1.69-2.65a.9.9,0,0,1,1.28-.27c1.93,1.32,6.75,4.87,7,7.61.36,3.42-5.73,10.12-5.73,10.12s-.66.52-1.12,0,3.65-6.46,3.39-8.4c-.21-1.62-4.82-4.63-6.37-5.6A.58.58,0,0,1,365.69,216Z" transform="translate(-3.87 -2.49)"/><path class="cls-1" d="M302.49,216l1.69-2.65a.9.9,0,0,1,1.28-.27c1.93,1.32,6.75,4.87,7,7.61.36,3.42-5.73,10.12-5.73,10.12s-.66.52-1.12,0,3.65-6.46,3.39-8.4c-.21-1.62-4.82-4.63-6.37-5.6A.58.58,0,0,1,302.49,216Z" transform="translate(-3.87 -2.49)"/><path class="cls-1" d="M187.13,216l1.68-2.65a.92.92,0,0,1,1.29-.27c1.93,1.32,6.75,4.87,7,7.61.36,3.42-5.73,10.12-5.73,10.12s-.66.52-1.13,0,3.65-6.46,3.4-8.4c-.22-1.62-4.83-4.63-6.37-5.6A.57.57,0,0,1,187.13,216Z" transform="translate(-3.87 -2.49)"/><path class="cls-1" d="M123.51,216l1.69-2.65a.91.91,0,0,1,1.28-.27c1.93,1.32,6.76,4.87,7,7.61.36,3.42-5.72,10.12-5.72,10.12s-.67.52-1.13,0,3.65-6.46,3.39-8.4c-.21-1.62-4.82-4.63-6.37-5.6A.59.59,0,0,1,123.51,216Z" transform="translate(-3.87 -2.49)"/><path class="cls-1" d="M281.47,216.19l-.25-5.92a1.86,1.86,0,0,0-.24-.83,1.06,1.06,0,0,1-.17-.56,33.8,33.8,0,0,1,2.59-3.59.34.34,0,0,1,.6.21v7.07a1.75,1.75,0,0,0,1.75,1.76h10.72c1.37,0,2.66,2,2.66,4s-2,9.55-5,13-8.39,6.34-11.32,6.34c-1.16,0-.07-2.37,1.05-3.52a2.76,2.76,0,0,1,1.27-.73c2-.52,7.42-2.33,9.05-5.63a20.38,20.38,0,0,0,1.6-7.81,2.14,2.14,0,0,0-2.16-2.2l-10.35,0A1.74,1.74,0,0,1,281.47,216.19Z" transform="translate(-3.87 -2.49)"/><path class="cls-1" d="M137.61,216.05l-.25-5.92a1.74,1.74,0,0,0-.24-.83,1.06,1.06,0,0,1-.17-.56,33.8,33.8,0,0,1,2.59-3.59.34.34,0,0,1,.6.21v7.07a1.76,1.76,0,0,0,1.76,1.76h10.72c1.36,0,2.66,2,2.66,4s-2.05,9.55-5.05,13-8.38,6.34-11.32,6.34c-1.16,0-.07-2.37,1.06-3.52a2.73,2.73,0,0,1,1.26-.73c2-.52,7.43-2.33,9.05-5.63a20,20,0,0,0,1.6-7.81,2.14,2.14,0,0,0-2.16-2.2l-10.35,0A1.74,1.74,0,0,1,137.61,216.05Z" transform="translate(-3.87 -2.49)"/><path class="cls-1" d="M296.85,125.21a10,10,0,0,0,2.3,4.49c2,2.39,12.32-3,13-9.51.51-5-.84-7.63-1.48-8.56a.74.74,0,0,1,0-.85l2.63-3.67a.76.76,0,0,1,1.33.19c1.09,3.21,3,11.62-3.12,18.82-7.77,9.1-11.86,7.57-12.88,7.36s-3.73-1.07-4.91-9.66a32.86,32.86,0,0,0-4.94-13.5.75.75,0,0,1,.06-.91l2.43-2.77a.75.75,0,0,1,1.26.19,29.75,29.75,0,0,1,2.21,6.76c.56,3.53,1.69,9.41,1.69,9.41s5.11-2.61,5.27-6.85a8.56,8.56,0,0,0-1.37-5.45.75.75,0,0,1,.06-1l3-3.07a.75.75,0,0,1,1.27.31,14.68,14.68,0,0,1-1.08,10.92C300.22,124.17,296.85,125.21,296.85,125.21Z" transform="translate(-3.87 -2.49)"/><path class="cls-1" d="M416.05,125a10,10,0,0,0,2.3,4.49c2,2.39,12.32-3,13-9.51.51-5-.84-7.63-1.48-8.56a.74.74,0,0,1,0-.85l2.64-3.67a.76.76,0,0,1,1.33.19c1.08,3.21,3,11.62-3.12,18.82-7.78,9.1-11.87,7.57-12.89,7.36s-3.73-1.07-4.91-9.66A32.86,32.86,0,0,0,408,110.1a.75.75,0,0,1,.06-.91l2.43-2.77a.75.75,0,0,1,1.26.19,29.75,29.75,0,0,1,2.21,6.76c.57,3.53,1.69,9.41,1.69,9.41s5.11-2.61,5.27-6.85a8.56,8.56,0,0,0-1.37-5.45.76.76,0,0,1,.06-1l3-3.07a.75.75,0,0,1,1.27.31,14.63,14.63,0,0,1-1.08,10.92C419.42,124,416.05,125,416.05,125Z" transform="translate(-3.87 -2.49)"/><path class="cls-1" d="M161.41,214.16l-2.09,2.76a1.17,1.17,0,0,0,0,1.44,14.15,14.15,0,0,1,1.87,2.94c.89,2,2.52,13.16,4.57,14.89S183,237.8,183.7,222a8.88,8.88,0,0,0-8.59-9.06c-4.16-.21-5.15,3.44-5.38,5.32a.53.53,0,0,0,.79.54c1.58-.9,5-2.44,7.36-.66,3.2,2.38,4.25,7.75,1.25,10.75-3.75,3.76-8.79,4.7-9.95,4.36s-2.8-2.38-3.62-10.36c-.54-5.33-2-7.73-2.86-8.75A.84.84,0,0,0,161.41,214.16Z" transform="translate(-3.87 -2.49)"/><path class="cls-1" d="M279.65,121.76c-.52-3.16-1.09-5.88-1.59-6.64-1-1.56-4.93-3.8-6.9-4.86a1,1,0,0,1-.26-1.56l2-2.22a1.08,1.08,0,0,1,1.34-.22c1.59.91,5.08,3.21,6.39,5.94,1.4,2.9,2.33,12.71,2.63,16.17a4.75,4.75,0,0,1-.39,2.32l-.83,2.18a.45.45,0,0,1-.85-.12c-.24-1.95-.68-5.39-1.19-8.73a23.47,23.47,0,0,1-3,4.87,9.89,9.89,0,0,1-6.59,3.78.64.64,0,0,1-.63-.94l2-3.51a1.66,1.66,0,0,1,1.22-.81,8.33,8.33,0,0,0,4-1.82A10.25,10.25,0,0,0,279.65,121.76Z" transform="translate(-3.87 -2.49)"/><path class="cls-1" d="M261.86,132.57a.42.42,0,0,0,.75.28,11.11,11.11,0,0,0,2.09-3.61c.68-2.32.55-15-3.75-19.09s-13.7-1.44-15.07-2a2.11,2.11,0,0,1-1.14-1.85.35.35,0,0,0-.59-.22c-1.15,1.05-3.28,3.68-3.38,4.93-.14,1.64,1,6.65,1,8.82,0,1.93-.27,11.37-.33,13.45a.17.17,0,0,0,.29.12l2.44-2.38a2.17,2.17,0,0,0,.67-1.57V112.63a.72.72,0,0,1,.64-.72c2.52-.25,11.62-.9,14,2.74S261.91,129,261.86,132.57Z" transform="translate(-3.87 -2.49)"/><path class="cls-2" d="M506.67,162.81,516,150.62a.37.37,0,0,1,.51-.06.35.35,0,0,1,.14.28h0a3.13,3.13,0,0,0,3.14,3.13h14.82a7.9,7.9,0,0,1,7.9,7.91h0v19.84a3.07,3.07,0,0,1-.73,2l-5.57,6.53a.92.92,0,0,1-1.3.1.94.94,0,0,1-.32-.69v-24a1.37,1.37,0,0,0-1.37-1.37l-25.86-.11a.85.85,0,0,1-.85-.85A.78.78,0,0,1,506.67,162.81Z" transform="translate(-3.87 -2.49)"/><path class="cls-2" d="M518,183V168.48a.67.67,0,0,0-.67-.65.64.64,0,0,0-.47.21l-6.08,6.27a1.17,1.17,0,0,0-.32.81v14.76a.67.67,0,0,0,.68.67.64.64,0,0,0,.49-.22l6.11-6.69A.94.94,0,0,0,518,183Z" transform="translate(-3.87 -2.49)"/><path class="cls-2" d="M500.93,182.78v-18.2a11.62,11.62,0,0,0-11.47-11.75h-5.79a2,2,0,0,1-2-2,.32.32,0,0,0-.3-.33.31.31,0,0,0-.28.14l-7.38,10.51a1.23,1.23,0,0,0,.29,1.71,1.21,1.21,0,0,0,.68.23h12.16a7.58,7.58,0,0,1,7.49,7.65c0,6.42,0,15.15,0,19.1a.72.72,0,0,0,.7.74.7.7,0,0,0,.58-.27l4.65-5.74A2.9,2.9,0,0,0,500.93,182.78Z" transform="translate(-3.87 -2.49)"/><path class="cls-2" d="M465.17,190.56h-27a.78.78,0,0,1-.78-.79.77.77,0,0,1,.09-.36l4.09-7.61a1.61,1.61,0,0,1,1.42-.86h14.64a.37.37,0,0,0,.39-.37h0V168.18a4.42,4.42,0,0,0-4.42-4.43h-14.1a.94.94,0,0,1-.94-.94,1,1,0,0,1,.18-.55l7.74-10.48a.5.5,0,0,1,.69-.11.48.48,0,0,1,.2.42l0,.9a1.52,1.52,0,0,0,1.45,1.58H458.9a6.27,6.27,0,0,1,6.27,6.27v20.29h4.3a1,1,0,0,1,1,1,.93.93,0,0,1-.12.46L466.2,190A1.14,1.14,0,0,1,465.17,190.56Z" transform="translate(-3.87 -2.49)"/><path class="cls-2" d="M411.31,154.21l-5.25,6.32a1.41,1.41,0,0,0-.08,1.71l2.06,3a4.13,4.13,0,0,1-.74,5.47h0a1.15,1.15,0,0,1-1.55,0l-18.31-17.13a1.2,1.2,0,0,0-1.71.06l0,0-5.95,6.93a1,1,0,0,0,.1,1.35l.09.07,8.17,5.43a1.05,1.05,0,0,1,.3,1.47l0,0-6.09,8.35a1.9,1.9,0,0,0-.36,1.1v6.77a1.71,1.71,0,0,1-.27.93l-2,3.11a.63.63,0,0,0,.19.88.68.68,0,0,0,.35.1h10.21a1.06,1.06,0,0,0,.92-.53l4.45-7.73a.45.45,0,0,0-.11-.62.44.44,0,0,0-.29-.08h-6.64a.68.68,0,0,1-.68-.67v-5.38a1.56,1.56,0,0,1,.3-.93l2.35-3.31a1.18,1.18,0,0,1,1.65-.28.84.84,0,0,1,.18.15l19.3,20.25a1.06,1.06,0,0,0,1.49,0l.15-.19,3.9-6a1.73,1.73,0,0,0-.19-2.12l-8.62-9.26,4.51-4.66a8.67,8.67,0,0,0,2.45-6v-3.63a1.9,1.9,0,0,0-.27-1l-2.37-3.86a1,1,0,0,0-1.35-.33A1.21,1.21,0,0,0,411.31,154.21Z" transform="translate(-3.87 -2.49)"/><path class="cls-2" d="M371.27,190.56h-27a.78.78,0,0,1-.78-.79.77.77,0,0,1,.09-.36l4.09-7.61a1.6,1.6,0,0,1,1.42-.86h14.66a.38.38,0,0,0,.39-.37h0V168.18a4.43,4.43,0,0,0-4.43-4.43H345.6a.94.94,0,0,1-.94-.94,1,1,0,0,1,.19-.55l7.73-10.48a.51.51,0,0,1,.7-.11.53.53,0,0,1,.2.42l0,.9a1.53,1.53,0,0,0,1.46,1.58H365a6.27,6.27,0,0,1,6.27,6.27v20.29h4.3a1,1,0,0,1,.95,1,.93.93,0,0,1-.12.46l-4.1,7.42A1.16,1.16,0,0,1,371.27,190.56Z" transform="translate(-3.87 -2.49)"/><path class="cls-2" d="M339.84,183.34V165.13a11.62,11.62,0,0,0-11.47-11.75h-5.78a2,2,0,0,1-2-2h0a.32.32,0,0,0-.32-.32.33.33,0,0,0-.26.13l-7.37,10.51a1.22,1.22,0,0,0,.28,1.71,1.14,1.14,0,0,0,.69.23h12.15a7.58,7.58,0,0,1,7.49,7.65c0,6.42,0,15.15,0,19.1a.72.72,0,0,0,1.28.48l4.65-5.75A2.75,2.75,0,0,0,339.84,183.34Z" transform="translate(-3.87 -2.49)"/><path class="cls-2" d="M272.7,163.36,282,151.18a.37.37,0,0,1,.51-.07.42.42,0,0,1,.14.29h0a3.13,3.13,0,0,0,3.13,3.13h14.82a7.9,7.9,0,0,1,7.9,7.9v19.84a3.07,3.07,0,0,1-.73,2l-5.56,6.53a.92.92,0,0,1-1.3.1.9.9,0,0,1-.32-.69v-24a1.37,1.37,0,0,0-1.37-1.37l-25.86-.11a.85.85,0,0,1-.67-1.36Z" transform="translate(-3.87 -2.49)"/><path class="cls-2" d="M284.47,183V168.48a.67.67,0,0,0-1.15-.44l-6.07,6.27a1.16,1.16,0,0,0-.33.81v14.76a.68.68,0,0,0,1.18.45l6.11-6.69A1,1,0,0,0,284.47,183Z" transform="translate(-3.87 -2.49)"/><path class="cls-2" d="M229.66,164.78h3a2,2,0,0,1,1.94,1.94v17.67a6.89,6.89,0,0,0,6.88,6.89h18.61a8.73,8.73,0,0,0,8.73-8.74h0V164.86a9.91,9.91,0,0,0-9.87-9.91l-18.12,0a1.09,1.09,0,0,1-1.07-1.08v-2.1a.83.83,0,0,0-.85-.84.85.85,0,0,0-.67.34l-9.1,12.45a.7.7,0,0,0,.15,1A.73.73,0,0,0,229.66,164.78Zm11.79,3.79a4.64,4.64,0,0,1,4.63-4.65h9.34a5.47,5.47,0,0,1,5.46,5.46v11.91H246.3a4.85,4.85,0,0,1-4.85-4.85h0Z" transform="translate(-3.87 -2.49)"/><path class="cls-2" d="M208.86,182v-7.37A28.82,28.82,0,0,0,206,162.05l-.45-.94a10.08,10.08,0,0,0-9.07-5.69H184a1.12,1.12,0,0,1-1.13-1.13h0v-3.35a.9.9,0,0,0-.94-.86.94.94,0,0,0-.63.3l-8,9.83a1,1,0,0,0-.12,1.07l1.54,3.14a2.88,2.88,0,0,1,.31,1.29l.3,25.49a.45.45,0,0,0,.38.51.44.44,0,0,0,.45-.22l6.36-7.92a2.24,2.24,0,0,0,.5-1.4v-17a1.22,1.22,0,0,1,1.22-1.22h5.87a11.35,11.35,0,0,1,11.35,11.34h0v14.78a1.35,1.35,0,0,0,1.41,1.28,1.36,1.36,0,0,0,1-.47l3.51-4.56A7.12,7.12,0,0,0,208.86,182Z" transform="translate(-3.87 -2.49)"/><path class="cls-2" d="M161.54,190.66l3.17-8.09a2.71,2.71,0,0,0-.08-2.16l-6.34-13.27h0a1.62,1.62,0,0,1,2.54-1.34l3.39,2.4a.89.89,0,0,0,1.25-.21.86.86,0,0,0,.1-.16l2.14-4.85a3.83,3.83,0,0,0-1.61-4.89l-9.37-5.35a2,2,0,0,0-2.46.45l-5.16,6.09a1.63,1.63,0,0,0,.19,2.3,1.68,1.68,0,0,0,.63.34l5,1.38a1.43,1.43,0,0,1,.82,2.16l-1.88,2.89a2.79,2.79,0,0,0-.45,1.37l-.16,2.66a4.23,4.23,0,0,0,.34,1.89l7,16.41a.45.45,0,0,0,.58.25A.49.49,0,0,0,161.54,190.66Z" transform="translate(-3.87 -2.49)"/><path class="cls-2" d="M139.63,203.37l1.51-1.84A16.58,16.58,0,0,0,144.88,191V168.27a16.83,16.83,0,0,0-4.7-11.68L136.74,153a1.33,1.33,0,0,0-1.89-.08,1.21,1.21,0,0,0-.21.24l-4.43,6.31a2.27,2.27,0,0,0,.55,3.17h0l3.48,2.42a10.21,10.21,0,0,1,4.39,8.23l.45,29.86a.31.31,0,0,0,.34.29A.29.29,0,0,0,139.63,203.37Z" transform="translate(-3.87 -2.49)"/><path class="cls-2" d="M440.74,133.17h12.34a2.79,2.79,0,0,0,2.11-1l2.89-3.31a13.87,13.87,0,0,0,3.43-9.12v-.85a12.18,12.18,0,0,0-3.95-9l-.78-.71a1.43,1.43,0,0,0-1-.38h-9.58a.51.51,0,0,1-.51-.51l0-2.49a.47.47,0,0,0-.47-.47.46.46,0,0,0-.38.2l-4.37,5.82a.5.5,0,0,0,.1.7.47.47,0,0,0,.3.1h9.57a7.68,7.68,0,0,1,7.68,7.67h0v3.33a6.57,6.57,0,0,1-6.55,6.55h-8.33a1.08,1.08,0,0,0-.87.4l-1.93,2.33a.42.42,0,0,0,.05.59A.43.43,0,0,0,440.74,133.17Z" transform="translate(-3.87 -2.49)"/><path class="cls-2" d="M434.58,106.91,435,109a10.23,10.23,0,0,1,.22,2.06v5.23a15,15,0,0,1-5.38,11.51L426,131a7.52,7.52,0,0,1-4.83,1.75h-2.53a4,4,0,0,1-3.74-2.54l-1-2.59a1.06,1.06,0,0,1-.06-.19l-3.23-13a4.56,4.56,0,0,0-.53-1.27l-1.68-2.72a.9.9,0,0,1,.08-1l2.94-3.42a.7.7,0,0,1,1-.07.8.8,0,0,1,.23.37l3.29,14.42a1.19,1.19,0,0,0,2,.58l2.5-2.5a2.41,2.41,0,0,0,.7-1.67l.05-4.23a4.78,4.78,0,0,0-.38-1.9l-.29-.68a.89.89,0,0,1,.16-1l3.07-3.42a.49.49,0,0,1,.7,0,.53.53,0,0,1,.17.37V113a10.22,10.22,0,0,1-3.23,7.46L417.54,124a1.45,1.45,0,0,0-.45,1l-.06,1.3a2,2,0,0,0,.5,1.43l1,1.09a2.23,2.23,0,0,0,1.79.75l2.36-.14a3.18,3.18,0,0,0,1.6-.56l3.68-2.59a4.67,4.67,0,0,0,1.35-1.45l1.79-3a4,4,0,0,0,.58-2.07v-3.51a7.79,7.79,0,0,0-.23-1.8l-.93-3.63a1.36,1.36,0,0,1,.37-1.31l2.91-2.81a.46.46,0,0,1,.63-.06A.45.45,0,0,1,434.58,106.91Z" transform="translate(-3.87 -2.49)"/><path class="cls-2" d="M264.12,236.46l1.68-2.5a1.28,1.28,0,0,1,1.08-.57h5.37a1.16,1.16,0,0,0,1.16-1.16h0v-9.8a1.71,1.71,0,0,0-.66-1.35l-5.66-4.47a.94.94,0,0,1-.16-1.29l1.52-2a1,1,0,0,1,1.39-.18l.05,0,4.34,3.75A5.23,5.23,0,0,1,276,221.2l-.65,9.86a6.82,6.82,0,0,1-1.54,3.89l-1.23,1.52a1.8,1.8,0,0,1-1.38.65H264.5a.44.44,0,0,1-.43-.46A.46.46,0,0,1,264.12,236.46Z" transform="translate(-3.87 -2.49)"/><path class="cls-2" d="M258,237.79l1.79-2.6a1.69,1.69,0,0,0,.32-1V220.47a3.61,3.61,0,0,0-1.42-2.87l-5.58-4.3a1.11,1.11,0,0,0-1.55.19l-2.07,2.69a.79.79,0,0,0,.15,1.11.42.42,0,0,0,.14.09l5.5,2.54a3.57,3.57,0,0,1,2.09,3.3l-.15,14.33a.45.45,0,0,0,.49.4A.47.47,0,0,0,258,237.79Z" transform="translate(-3.87 -2.49)"/><path class="cls-2" d="M244.79,232v3.38a2.2,2.2,0,0,0,.12.67l2,6a.26.26,0,0,1-.16.33l-.09,0h-1.43a.68.68,0,0,1-.62-.41l-2.69-6a1.86,1.86,0,0,1-.1-.25l-1.1-3.72a.39.39,0,0,1,.26-.48h3.36a.45.45,0,0,1,.44.45Z" transform="translate(-3.87 -2.49)"/><path class="cls-2" d="M110.48,224.34l2.69-3.31a9,9,0,0,0,2-5.05l.24-3.79a.23.23,0,0,0-.21-.25.28.28,0,0,0-.13,0l-2.58,1.54a1.1,1.1,0,0,0-.54,1l.16,3.8a1.39,1.39,0,0,1-.11.6l-2,5.1a.33.33,0,0,0,.56.33Z" transform="translate(-3.87 -2.49)"/><path class="cls-2" d="M237.21,132.11l-2,2.54a.41.41,0,0,1-.58.07.41.41,0,0,1-.15-.32V117.87a4.83,4.83,0,0,0-1-3L232,113a1.73,1.73,0,0,0-1.34-.67h-8.51a.65.65,0,0,0-.66.65h0l-.21,3.66a6.39,6.39,0,0,0,.19,1.58l.21,2.65a13.79,13.79,0,0,1,.39,3.19v1.4a10.58,10.58,0,0,1-.74,3.89l-1.4,3.58a.75.75,0,0,1-.68.45h-8.47a.32.32,0,0,1-.33-.32.35.35,0,0,1,.08-.22l2.54-3a.66.66,0,0,1,.48-.24l6.11-.28a.52.52,0,0,0,.49-.55v-.07l-3.09-15.93a.55.55,0,0,0-.55-.45h-5a.31.31,0,0,1-.29-.3.28.28,0,0,1,.08-.2l6.27-6.19a.31.31,0,0,1,.45,0,.33.33,0,0,1,.1.23v2.08a.31.31,0,0,0,.31.32h13a3.69,3.69,0,0,1,2.88,1.34l1.91,2.31a4.64,4.64,0,0,1,1.07,3v16.57A1,1,0,0,1,237.21,132.11Z" transform="translate(-3.87 -2.49)"/><path class="cls-2" d="M360.75,245.52l2-2.65a1.63,1.63,0,0,0,.45-1.13v-21a3.7,3.7,0,0,0-1.35-2.87l-5.63-4.63a1.53,1.53,0,0,0-2.26.36l-1.1,1.74a1.28,1.28,0,0,0,.41,1.78l5,3.08a4.23,4.23,0,0,1,1.75,3.42l0,21.53A.46.46,0,0,0,360.75,245.52Z" transform="translate(-3.87 -2.49)"/><ellipse class="cls-3" cx="331.58" cy="216.9" rx="327.08" ry="212.4"/><ellipse class="cls-4" cx="330.34" cy="217.45" rx="267.92" ry="153"/><text class="cls-5" transform="matrix(0.82, 0.54, -0.55, 0.83, 91.02, 346.52)">R</text><text class="cls-5" transform="matrix(0.87, 0.46, -0.47, 0.88, 114.62, 361.94)">A</text><text class="cls-5" transform="translate(141.98 376.06) rotate(22.87) scale(0.98 1)">B</text><text class="cls-5" transform="matrix(0.93, 0.31, -0.32, 0.95, 167.23, 386.54)">B</text><text class="cls-5" transform="translate(192.6 394.89) rotate(15.93) scale(0.98 1)">I</text><text class="cls-5" transform="matrix(0.95, 0.24, -0.25, 0.97, 205.11, 398.42)"> </text><text class="cls-5" transform="translate(217.03 401.58) rotate(11.59) scale(0.98 1)">A</text><text class="cls-5" transform="matrix(0.97, 0.14, -0.15, 0.99, 244.15, 407.07)">V</text><text class="cls-5" transform="translate(271.46 410.97) rotate(5.19) scale(0.98 1)">R</text><text class="cls-5" transform="translate(298.31 413.35) rotate(1.97) scale(0.98 1)">A</text><text class="cls-5" transform="matrix(0.98, -0.02, 0.03, 1, 328.32, 414.31)">H</text><text class="cls-5" transform="translate(360.13 413.38) rotate(-4.91) scale(0.98 1)">A</text><text class="cls-5" transform="translate(390.2 410.83) rotate(-8.93) scale(0.98 1)">M</text><text class="cls-5" transform="matrix(0.96, -0.2, 0.21, 0.98, 427.9, 404.47)"> </text><text class="cls-5" transform="translate(440.06 402.04) rotate(-14.88) scale(0.98 1)">H</text><text class="cls-5" transform="translate(471.18 393.6) rotate(-19.23) scale(0.98 1)">A</text><text class="cls-5" transform="translate(499.99 383.35) rotate(-23.72) scale(0.98 1)">Z</text><text class="cls-5" transform="translate(525.86 371.87) rotate(-28.83) scale(0.98 1)">A</text><text class="cls-5" transform="matrix(0.8, -0.57, 0.58, 0.82, 553.43, 356.49)">N</text><text class="cls-6" transform="translate(59.21 256.73) rotate(-106.31)">K</text><text class="cls-6" transform="translate(52.34 233.7) rotate(-91.63)">O</text><text class="cls-6" transform="matrix(0.25, -0.97, 0.97, 0.25, 52.54, 202.29)">S</text><text class="cls-6" transform="translate(58.23 180.1) rotate(-62)">H</text><text class="cls-6" transform="matrix(0.63, -0.78, 0.78, 0.63, 72.58, 154.42)">E</text><text class="cls-6" transform="matrix(0.74, -0.68, 0.68, 0.74, 86.98, 136.94)">R</text><text class="cls-6" transform="matrix(0.79, -0.61, 0.61, 0.79, 105.25, 120.65)"> </text><text class="cls-6" transform="translate(113.7 113.93) rotate(-33.03)">B</text><text class="cls-6" transform="translate(134.4 100.54) rotate(-27.33)">A</text><text class="cls-6" transform="translate(158.96 87.93) rotate(-21.98)">D</text><text class="cls-6" transform="translate(186.16 77.08) rotate(-17.41)">A</text><text class="cls-6" transform="translate(209.36 69.84) rotate(-14.18)">T</text><text class="cls-6" transform="matrix(0.98, -0.19, 0.19, 0.98, 231.38, 64.3)">Z</text><text class="cls-6" transform="matrix(0.99, -0.15, 0.15, 0.99, 256.01, 59.76)"> </text><text class="cls-6" transform="matrix(1, -0.1, 0.1, 1, 266.6, 57.9)">M</text><text class="cls-6" transform="matrix(1, -0.04, 0.04, 1, 302.07, 54.66)">E</text><text class="cls-6" transform="translate(324.54 53.79) rotate(0.93)">H</text><text class="cls-6" transform="matrix(1, 0.08, -0.08, 1, 353.77, 54.34)">A</text><text class="cls-6" transform="translate(381.26 56.43) rotate(7.88)">D</text><text class="cls-6" transform="translate(410.77 60.65) rotate(11.43)">R</text><text class="cls-6" transform="matrix(0.97, 0.24, -0.24, 0.97, 434.67, 65.66)">I</text><text class="cls-6" transform="translate(446.24 68.34) rotate(16.96)">N</text><text class="cls-6" transform="translate(474.35 77.23) rotate(20.14)"> </text><text class="cls-6" transform="matrix(0.91, 0.41, -0.41, 0.91, 484.6, 80.58)">M</text><text class="cls-6" transform="translate(516.91 95.66) rotate(28.83)">I</text><text class="cls-6" transform="matrix(0.84, 0.54, -0.54, 0.84, 527.37, 101.29)">L</text><text class="cls-6" transform="matrix(0.78, 0.63, -0.63, 0.78, 545.77, 112.92)">A</text><text class="cls-6" transform="translate(567.35 130.32) rotate(48.02)">N</text><text class="cls-6" transform="translate(586.56 152.79) rotate(55.89)">,</text><text class="cls-6" transform="translate(592.44 161.58) rotate(60.64)"> </text><text class="cls-6" transform="translate(597.69 171.04) rotate(66.15)">I</text><text class="cls-6" transform="translate(602.84 181.93) rotate(75.36)">T</text><text class="cls-6" transform="matrix(0.04, 1, -1, 0.04, 608.23, 201.02)">A</text><text class="cls-6" transform="translate(608.58 228.97) rotate(102.22)">L</text><text class="cls-6" transform="translate(604.93 246.97) rotate(112.84)">Y</text><path class="cls-1" d="M382.41,254.05A72.78,72.78,0,0,1,394,252.3c2.22-.09,4.46-.09,6.69,0a46.1,46.1,0,0,1,6.52.71c6.31,1.19,12.53,3.8,17.11,8.44A26.3,26.3,0,0,1,431.84,278a38.74,38.74,0,0,1-.76,11.56c-2.11,9.56-6.9,18.33-12.82,26.07a102.08,102.08,0,0,1-18.62,18.53c-.37.25-.67.67-1.13.73-1.42-1.87-2.72-3.84-4.13-5.73a26,26,0,0,1-4.31,2.09,7.83,7.83,0,0,1-3.23.29,7.15,7.15,0,0,1-3.6-1.71,17.16,17.16,0,0,1-3.93-5.59,42,42,0,0,1-2.58-9.59c-.09-.46-.14-.93-.22-1.38-.27-1.91-.58-3.8-.77-5.71a11.18,11.18,0,0,1-.17-1.26c1.91-1.94,3.87-4,6.44-5a9,9,0,0,1,1.62-.22c1.15.16,1.95,1,2.93,1.56a9.18,9.18,0,0,0,8.66.57,7.14,7.14,0,0,0,3.63-8.22,6.57,6.57,0,0,0-4.26-4.1,13,13,0,0,0-5.32-.56,27.27,27.27,0,0,0-9.22,2.82,57,57,0,0,0-10.55,7c-5.42,4.49-9.65,10.2-13.36,16.13.17-1,.34-2,.53-3,.32-1.89.67-3.78,1-5.66.23-1.45.54-2.87.77-4.31.63-3.43,1.23-6.86,1.86-10.29.23-1.45.54-2.88.77-4.31.36-1.94.69-3.89,1.07-5.83.22-1.43.52-2.87.76-4.31.36-1.92.69-3.88,1.06-5.82.2-1.25.45-2.49.68-3.73-1.66,0-3.32,0-5,0a2.14,2.14,0,0,0-.85.22,46.16,46.16,0,0,1-11.5,3.1c-1.15.13-2.27.3-3.42.33a107.51,107.51,0,0,1,26.54-14.91,88.52,88.52,0,0,1,12-3.66" transform="translate(-3.87 -2.49)"/><path class="cls-1" d="M324.23,313.89c-.91.69-1.85,1.59-3.06,1.48a1.93,1.93,0,0,1-1.85-1.52,10.57,10.57,0,0,1,.25-4.26c.59-3.38,1.21-6.75,1.83-10.13.23-1.44.53-2.87.76-4.3.41-2.07.72-4.14,1.15-6.2H313.16c-.34,1.65-.6,3.33-.93,5-.22,1.44-.54,2.87-.77,4.29q-1.32,7.2-2.6,14.4a11.35,11.35,0,0,1-5.29,2.46,5.39,5.39,0,0,1-3.73-.79,2.91,2.91,0,0,1-1.21-2.91c.45-3.8,1.24-7.55,1.9-11.31.22-1.44.53-2.86.75-4.3.38-1.95.69-3.89,1.08-5.83.05-.34.09-.66.13-1-1.08,0-2.16,0-3.23,0a19.58,19.58,0,0,0-2,.56,44.29,44.29,0,0,1-10.41,1.69c-.29,1.76-.69,3.49-.93,5.24a10.07,10.07,0,0,1,2.89.28,2.35,2.35,0,0,1,1.42,1.71c.29,2.12-.38,4.19-.71,6.26-.23,1.42-.55,2.84-.77,4.27-.33,1.75-.71,3.48-.89,5.25a7.52,7.52,0,0,0,.27,3.2,7.18,7.18,0,0,0,4,3.94,15.09,15.09,0,0,0,7.53.78c3.41-.48,6.44-2.23,9.28-4a6.39,6.39,0,0,0,2.63,3.08,11,11,0,0,0,6.55,1,14.56,14.56,0,0,0,8.24-4.21c.19-.15.34-.44.17-.65C325.82,316.18,325,315,324.23,313.89Z" transform="translate(-3.87 -2.49)"/><path class="cls-1" d="M385.18,342.42a17.91,17.91,0,0,1-6.41.79c-4.76-.26-9-3.08-11.92-6.75a22,22,0,0,1-4.76-9.63,50.07,50.07,0,0,1-.68-8.81A27.66,27.66,0,0,0,355,328.85c-1.27,4.48-2.46,9-3.73,13.49H335.5c.1-.45.17-.91.25-1.35s.14-.81.21-1.21c.26-1.43.56-2.85.78-4.29.65-3.43,1.23-6.86,1.9-10.28.21-1.44.53-2.86.75-4.3,1-5.25,1.9-10.52,2.88-15.77.23-1.44.54-2.86.78-4.3q1.09-5.93,2.15-11.87a17.45,17.45,0,0,0,.39-4.56,3.26,3.26,0,0,0-1.22-2.47,5.58,5.58,0,0,0-2.92-.88c-3.92-.27-7.84-.11-11.78-.15H264a32.34,32.34,0,0,0-3.68.25,27.3,27.3,0,0,0-4.39,1.07,25.08,25.08,0,0,0-11.82,8.46,24.83,24.83,0,0,0-5.19,15.65v4.85a17.71,17.71,0,0,0,3.89,11.46,18,18,0,0,0,11.25,6.52,29,29,0,0,0,4.66.2h52.16a26.37,26.37,0,0,0,9,18,30.67,30.67,0,0,0,10.62,5.8,42,42,0,0,0,9.12,1.82,43.8,43.8,0,0,0,7.85.16,19.73,19.73,0,0,0,2.65-.16,85.81,85.81,0,0,0,28.79-8.12,105.58,105.58,0,0,0,11.38-6.22C388.62,341.25,386.94,342,385.18,342.42ZM328.32,327.3H260.74c-2.58,0-5.19.17-7.72-.45a23.16,23.16,0,0,1-2.83-1,16,16,0,0,1-8.25-9,16.31,16.31,0,0,1-1-6.07c.08-2.91-.18-5.86.36-8.76a23.07,23.07,0,0,1,19.44-18.83A35.5,35.5,0,0,1,265,283h69.33a9.28,9.28,0,0,1,2.11.1C333.71,297.81,331,312.56,328.32,327.3Z" transform="translate(-3.87 -2.49)"/><path class="cls-1" d="M272.14,288.46a32.18,32.18,0,0,0-4.5,0c-.6.12-1.21.13-1.79.24a24.37,24.37,0,0,0-12.9,6.38A19.24,19.24,0,0,0,247,306.56a13.93,13.93,0,0,0,1.89,9.42,13.72,13.72,0,0,0,7.81,5.62,20,20,0,0,0,11.79-.39A28.59,28.59,0,0,0,279.08,315c.21-.23.71-.58.31-.89-1.11-1.13-2.09-2.35-3.23-3.45a17.41,17.41,0,0,0-1.46,1.14,20.61,20.61,0,0,1-7.88,4.11,13.41,13.41,0,0,1-3.85.24,6.14,6.14,0,0,1-4.14-2.37c-1.32-1.8-1.14-4.19-.85-6.29a45.54,45.54,0,0,0,10.1-.67c3.42-.71,6.9-1.73,9.7-3.88a8.58,8.58,0,0,0,3.41-5.28,6.88,6.88,0,0,0-2.44-6.65A12.79,12.79,0,0,0,272.14,288.46Zm-.58,9.37c-1.1,2.31-3.56,3.53-5.88,4.3a21.74,21.74,0,0,1-6.85.86,15.09,15.09,0,0,1,5-8,6.55,6.55,0,0,1,5.7-1.43,3.32,3.32,0,0,1,2.2,2.19A5.32,5.32,0,0,1,271.56,297.83Z" transform="translate(-3.87 -2.49)"/><path d="M223.87,234.08,222,236a.53.53,0,0,1-.78,0c-1.45-1.7-6.74-7.87-9.78-10.73-1-1-2.48-2.19-4-3.43l-.46-.37a10.21,10.21,0,0,0-3.64,6.39c-.85,4.35,1.09,5,1.58,5.12l.16,0H207a.31.31,0,0,1,.24.51l-1.93,2.36a.88.88,0,0,1-.67.32h-4.35a.32.32,0,0,1-.24-.52l1.25-1.48.08-.23a34.25,34.25,0,0,1,.53-6.13,12.63,12.63,0,0,1,4.09-7.14l-.53-.41-.17-.14c-2.35-1.84-4.55-3.49-5.41-4.13a.53.53,0,0,1-.13-.7l1.35-2.16a.52.52,0,0,1,.76-.14c1.9,1.45,9.16,7.07,11.41,9.26.67.65,1.71,1.72,2.89,2.95a15.31,15.31,0,0,0,1.8-5.41,6.09,6.09,0,0,0-.82-4.09.31.31,0,0,1,0-.42l2.87-2.59a.32.32,0,0,1,.51.1,10.77,10.77,0,0,1,.82,5.71c-.39,2.63-2.91,6.51-4,8,2.61,2.73,5.46,5.77,6.42,6.81A.53.53,0,0,1,223.87,234.08Z" transform="translate(-3.87 -2.49)"/></svg>