<svg id="Livello_1" data-name="Livello 1" xmlns="http://www.w3.org/2000/svg" viewBox="0 0 453.68 83.04"><path d="M220.75,13.06a13.2,13.2,0,0,1,2.14-.44c5.35,0,10.71-.11,16.06.06a4.78,4.78,0,0,1,3,1.7q19,21.64,37.84,43.41c1.93,2.22,3.87,4.42,6.35,7.24.1-1.65.2-2.54.2-3.44,0-12.29,0-24.58,0-36.87a37.86,37.86,0,0,0-.57-6c-.47-2.78-3.16-4.67-6.7-4.87-1-.06-2,0-3.52,0,2.22-1.63,23.49-1.6,25.33-.2-.87.08-1.51.17-2.16.18-5.76.11-8.33,2.63-8.38,8.41-.05,6.76,0,13.52,0,20.28V83a16.62,16.62,0,0,1-2.79-2Q270.77,62,254.13,42.85q-6.4-7.34-12.79-14.68c-.37-.42-.83-.78-1.54-1.44-.1.88-.19,1.36-.19,1.84,0,14.31,0,28.62.07,42.94,0,6.42,1.53,7.92,7.91,8.71a4,4,0,0,1,2.22.8H198.65l-.15-.51c.8-.2,1.6-.45,2.42-.6,3.94-.73,5.6-2.94,4.29-6.7-1.64-4.69-3.73-9.24-5.79-13.78a3,3,0,0,0-2.27-1.26q-12.78-.15-25.55,0a3.24,3.24,0,0,0-2.41,1.46c-2,4.08-4,8.19-5.69,12.41-1.82,4.54-.32,6.94,4.53,7.82,1.06.19,2.13.35,3.19.52l0,.67a14.3,14.3,0,0,1-1.83.23c-10.53,0-21.07.06-31.6-.06a4.66,4.66,0,0,1-3.15-1.63c-7.18-9.07-14.35-18.17-21.29-27.42-1.78-2.37-3.59-3.58-6.53-3.1a28.12,28.12,0,0,1-4.05,0v4c0,6,0,11.94,0,17.91,0,6.54,1.61,8.34,8.09,9.19a3.47,3.47,0,0,1,2,.76H82.51l0-.5c1.23-.14,2.47-.27,3.71-.43,4.08-.51,5.88-2.2,6.56-6.27a21.43,21.43,0,0,0,.23-3.4c0-15.63,0-31.26,0-46.88,0-6.05-1.38-9.9-9.52-9.7-.3,0-.61-.12-1-.67a4,4,0,0,1,1.34-.51c13,.3,26,.3,38.91,1.08,7.34.44,13.33,4.17,15.84,11.52,3,8.91-1.72,17.42-11.15,20.73-1.88.66-3.81,1.22-5.81,1.86.09.39.07.79.26,1C128,56.71,134,64.64,140.36,72.37a31,31,0,0,0,6.47,5.72c3.38,2.34,7,1.78,9.09-1.73,3-5,5.6-10.29,8.08-15.59,7.47-15.94,14.8-31.94,22.2-47.9a10.51,10.51,0,0,1,1.35-1.81,8.63,8.63,0,0,1,1.57,1.83q12.21,27.17,24.34,54.34a65,65,0,0,0,3.72,7.24,11.51,11.51,0,0,0,12.88,5.46,6.11,6.11,0,0,0,5.15-5.56,53.26,53.26,0,0,0,.43-6.56c0-13.78-.25-27.58.15-41.35.15-5.44-2.56-8.35-6.62-10.53C226.78,14.65,224,14.13,220.75,13.06ZM102.74,46c4.28,1.2,11.36.41,15.93-1.68,8.6-3.92,11.72-13.57,6.89-21.29-4-6.39-15.25-9.47-21.89-5.92a2.2,2.2,0,0,0-.89,1.64C102.73,27.74,102.74,36.77,102.74,46Zm68.59,8.91h26.16C193.17,45.18,189,35.93,184.63,26,180,36.06,175.74,45.29,171.33,54.87Z"/><path d="M58,41.34c2.44.71,4.14,1.17,5.83,1.69,10.34,3.21,15.73,11.8,13,21.54-2.38,8.44-8.51,13.36-16.93,15a86.1,86.1,0,0,1-15.36,1.62c-13.51.21-27,.06-40.53,0-.71,0-1.41-.14-2.11-.21l0-.84c.75-.11,1.49-.28,2.25-.32,7-.32,9.56-2.72,9.82-9.83.2-5.35.12-10.71.11-16.06q0-19.6-.09-39.22a24.24,24.24,0,0,0-.58-4.94C12.7,6.7,10,4.63,6.2,4.35c-1.38-.1-2.77,0-4.17,0l-.3-.82c.54-.31,1.08-.88,1.62-.88C19.47,2.92,35.6,3,51.7,3.73a24.43,24.43,0,0,1,17.08,7.73c7.56,8.17,6.54,22.87-6.83,28.19C60.86,40.08,59.78,40.57,58,41.34ZM25.26,59.58c0,4.75.1,9.49-.05,14.23-.06,1.92.75,2.72,2.44,3,2.17.31,4.33.7,6.51.88,6.87.55,13.68.54,20.11-2.48C61.13,72,64.94,65.11,63.59,58.35a17,17,0,0,0-9.51-12.21C45.46,41.75,36.18,42.65,27,43c-1.4,0-1.79,1-1.77,2.36C25.3,50.1,25.26,54.84,25.26,59.58Zm0-36.74c0,4.29.12,8.59-.06,12.88-.08,2,.68,3,2.56,3,6.28,0,12.61.31,18.83-.34a18.1,18.1,0,0,0,9.21-3.87c8.59-7.17,6.78-19.47-3.54-25C44.19,5.14,35.51,5.89,26.89,7.3c-.66.11-1.53,1.55-1.56,2.39C25.17,14.07,25.26,18.46,25.26,22.84Z"/><path d="M418.28,81a12.49,12.49,0,0,1,1.92-1.1c1.26-.34,2.6-.46,3.81-.92,2.84-1.06,4.1-3.15,3.05-6-2.06-5.57-4.4-11-6.83-16.47-.33-.73-1.84-1.3-2.81-1.31-8.25-.1-16.52.34-24.74-.18-5.08-.32-6.8,2.2-8.22,6.19s-3.34,7.5-4.7,11.36c-1.13,3.21.19,5.35,3.51,6.36,1.77.54,3.61.85,5.43,1.26l-.07.71H363.52l-.22-.49a6.43,6.43,0,0,1,1.79-.87c3.94-.55,6.54-2.93,8.19-6.3Q379.72,60.16,385.89,47c6.63-14.2,13.13-28.45,19.75-42.65.34-.74,1.33-1.75,1.87-1.67a3.28,3.28,0,0,1,2,1.79q14.18,31.86,28.26,63.77a46.75,46.75,0,0,0,3,5.52,11.57,11.57,0,0,0,8.57,5.88,11.71,11.71,0,0,1,2,.68l-.12.68ZM418,51.2,404.21,19.56l-.71.06L389.12,51.2Z"/><path d="M365.64,65.74c-4.37,7.29-10.05,13.18-18.53,15.5-12.05,3.29-23.67,2.4-34-5.32-8.55-6.39-12.64-15.31-13-25.84-.5-13.62,4.14-25.06,15.83-32.67C326.89,10.27,338.76,9,351,14c6.58,2.66,6.53,2.79,10.83-2.95,1.52,7.48,1.41,15.13,2.24,22.67l-.67.27a17.85,17.85,0,0,1-1.15-2.15c-1.88-4.9-4.37-9.39-8.51-12.74-11-8.87-31.56-6.92-38.21,9.47-5.15,12.69-5.86,25.6.69,38,4,7.69,11.12,11.28,19.62,12.37,11.3,1.45,20-2.85,26.73-11.69a21.39,21.39,0,0,1,2.36-2.3Z"/></svg>