<svg id="Livello_1" data-name="Livello 1" xmlns="http://www.w3.org/2000/svg" viewBox="0 0 528.74 216.55"><defs><style>.cls-1{fill:#272727;}</style></defs><path class="cls-1" d="M249.46,4c8.7-1.6,16.9,9.2,17.8,17.2.6,5.6-2.3,10.1-4.5,15l-9.5,21a797.78,797.78,0,0,0-30.9,77l-9,25c-1.1,3.1-2.8,9.1-5.2,11-3.4,2.9-8.1,1.9-11.6,0-8.8-5.3-9-13.9-9-23,.1-15.3,7.8-38.7,13.6-53l24-56C230.26,27.83,239,9.43,249.46,4Z"/><path class="cls-1" d="M206.46,8.83c10.4-.6,11.7,8.1,10.9,16.5s-12.2,22.4-20.9,23.4c-9.5,1.2-14.9-10.3-12.9-18.4C185.86,20.53,196.76,11,206.46,8.83Z"/><path class="cls-1" d="M300.46,9c10.7-1.7,19.2,9.3,18.9,19.3-.2,5.2-4,13-6.1,18l-22.1,50-14.2,31-11,32c-1.1,2.9-3.2,9.7-5,11.7-4,4.8-10.1,3.4-14.4,0-6-5-7.7-13.3-8-20.7-.5-11.6,4.8-28,8.6-39l11.8-32,5.2-11,11.5-26C280.56,31.73,289.36,13.63,300.46,9Z"/><path class="cls-1" d="M184.46,58c13.6.5,12.1,12.4,9.1,22.3l-23.9,68c-2.1,9-2,24.4-14.2,24.9-16.1.7-18.1-16.8-16.1-28.9,1.9-11.5,7-24,11-35l12.8-33C167.56,67.23,173.76,59.13,184.46,58Z"/><path class="cls-1" d="M321.46,163.33c-5.5,2.2-7.9,3.2-14,3-13.2-.6-22.6-13.2-21.9-26,.9-16.4,14.5-38.9,22.8-53,4-6.8,12.3-22.5,21.1-22.2,4.2.1,7.2,3.4,10,6.2,2.6,2.6,5.6,5.4,6.6,9,1.7,6.3-1.9,12-5.2,17l-15.4,24c-2.1,3.2-5.9,9.4-6.8,13-.5,1.8-.7,4.7,2,4.8,4.2.2,12.3-9.7,14.8-12.8,10.7-13.4,15.8-20.1,24.6-35,2.7-4.6,7.8-14.8,12.4-16.9s10,2.8,12.8,6c2.1,2.3,4.3,5.8,4.7,9,.4,3-1.3,8.9-2.2,12a119.22,119.22,0,0,1-12.5,28c-20.3,33.6-35.5,46.7-67.8,68-13.1,8.6-26.6,18-43,14v-3c12.4-5.3,26.6-16.8,37-25.6C308.06,177.23,316.56,170.13,321.46,163.33Z"/></svg>