<svg id="Livello_1" data-name="Livello 1" xmlns="http://www.w3.org/2000/svg" viewBox="0 0 451.38 140.73"><defs><style>.cls-1{fill:#272727;}</style></defs><path class="cls-1" d="M197.12,2.63c-1.24,4.92-2.41,9.56-3.59,14.2-.46,1.79-1,3.57-1.37,5.38-.22,1.09-.75,1.39-1.79,1.39-4.31,0-8.61.06-12.92.18-3.71.11-6.76,1.66-8.24,5.15a71.62,71.62,0,0,0-3.28,9.89c-6.92,26.45-13.67,53-20.76,79.36-1.21,4.5-3.68,8.7-5.85,12.89-1.58,3-4.64,4.42-7.8,5.23a33.36,33.36,0,0,1-7.71,1.25c-10.4.14-20.81.06-31.22.06H90.91l1.44-5.2c1.31-4.72,2.66-9.44,3.9-14.18.29-1.14.81-1.42,1.93-1.41,4.74.08,9.48.06,14.22.07,4.42,0,6.31-1.12,7.61-5.4,2.06-6.77,3.85-13.63,5.7-20.46Q134,60.67,142.18,30.31c1-3.67,1.75-7.42,2.93-11a23.61,23.61,0,0,1,6.28-10.18A21.25,21.25,0,0,1,166.8,3.17c9.26.07,18.52-.34,27.79-.53C195.34,2.62,196.1,2.63,197.12,2.63Z"/><path class="cls-1" d="M311,110.75c-2.33.5-4.48,1.15-6.67,1.39-4.12.45-6.64-1.91-6.4-6a35.15,35.15,0,0,1,1.15-6.9Q304.7,78,310.48,56.8c1.35-5,4.45-6.95,9.38-6.12a39.74,39.74,0,0,1,4.25,1.13c.41.12.81.3,1.37.51.15-.41.33-.79.43-1.18,2.16-8.26,4.35-16.52,6.45-24.8.31-1.24.79-1.67,2.06-1.62,2.65.1,5.31,0,8.12,0-1.45,5.68-2.84,11.16-4.24,16.63q-8.83,34.47-17.64,69c-.33,1.27-.79,1.8-2.18,1.7-2.06-.14-4.14-.09-6.2,0C311.24,112,310.67,111.81,311,110.75Zm.39-7.4c1.41.05,2.06-.91,2.42-2.35q3.56-14.5,7.17-29c1-3.85,2-7.7,2.87-11.56.21-.93.45-2.12-.83-2.49a2.19,2.19,0,0,0-2.71,1.52,5.44,5.44,0,0,0-.25.78l-8.49,31.68c-.76,2.84-1.55,5.67-2.26,8.51C308.79,102.43,309.43,103.37,311.37,103.35Z"/><path class="cls-1" d="M191.12,111.78c-1.55,0-3,0-4.36,0-4.9.14-7.77-3.44-6.54-8.29q4.34-17.08,8.74-34.17c1-3.74,1.83-7.51,2.88-11.23.72-2.57,1.61-5.08,4-6.74,1.72-1.2,3.55-.94,5.36-.65a46,46,0,0,1,4.47,1.14,20.25,20.25,0,0,1,3.66-.9c2.44-.13,4.89,0,7.55,0-.82,3.14-1.59,6.07-2.37,9q-7.5,28-15,56c-.67,2.46-1.67,4.84-2.49,7.26a7.38,7.38,0,0,1-7,5.42c-5.49.22-11,.06-16.76.06.7-2.95,1.28-5.53,2-8.09.08-.3.84-.59,1.28-.6,2.84,0,5.67,0,8.5,0s3.88-.7,4.82-3.45C190.27,115,190.64,113.45,191.12,111.78Zm1.68-8.53a5.43,5.43,0,0,0,.84-1.45q5.46-20.61,10.85-41.23c.41-1.59-.22-2.46-1.8-2.16A2.46,2.46,0,0,0,201.23,60c-2.67,9.6-5.25,19.22-7.85,28.84-1,3.73-2,7.46-3,11.19C189.8,102,190.57,103.26,192.8,103.25Z"/><path class="cls-1" d="M336.24,112.17c-1,0-2.07,0-3.1,0-4.89.1-8-3.18-7.39-8.08A40.24,40.24,0,0,1,327,98.68Q332.44,77.85,338,57a15.7,15.7,0,0,1,1.45-3.44A5,5,0,0,1,344,50.91c3.76,0,7.52-.08,11.27,0,3.56.08,5.95,3.52,5,7.4-1.52,6.47-3.18,12.89-4.82,19.32-2.43,9.54-4.91,19.07-7.36,28.61-.94,3.67-3.3,5.63-7.12,5.77-1.58,0-3.16,0-4.74,0Zm-.63-10.4c-.08,1.86.79,2.6,2.34,2.19a3.18,3.18,0,0,0,2.36-2.63c3-12.14,6-24.28,9-36.41a43.71,43.71,0,0,0,1-4.61c.2-1.42-.8-2.21-2-1.5a4.73,4.73,0,0,0-1.92,2.55c-3.58,13.06-7.06,26.15-10.57,39.23C335.77,101.06,335.67,101.54,335.61,101.77Z"/><path class="cls-1" d="M179.78,93.1c-.33,1.23-.59,2.27-.88,3.3-1,3.41-2,6.81-2.91,10.21a6.85,6.85,0,0,1-6.77,5.37c-2.66.13-5.34.13-8,.18-5.21.1-8.31-3.4-7.41-8.62.48-2.78,1.3-5.5,2-8.24q4.92-18.72,9.87-37.43a21.08,21.08,0,0,1,.72-2.34c1.37-3.55,3-4.64,6.8-4.64,3,0,6,.13,9,0,4.91-.24,6.88,3.75,6,7.42-1.53,6.68-3.33,13.31-5,20-.7,2.74-1.51,5.46-2.15,8.22a1.49,1.49,0,0,1-1.76,1.38c-3.54-.06-7.09,0-10.63-.06a1.71,1.71,0,0,0-2,1.56c-.9,3.81-1.91,7.6-2.82,11.41-.28,1.18-.85,2.56.84,3.2a2.93,2.93,0,0,0,3.48-2c.81-2.37,1.62-4.75,2.24-7.17a1.93,1.93,0,0,1,2.36-1.71C175,93.18,177.3,93.1,179.78,93.1ZM173.1,79.69c1.72-6.23,3.41-12.35,5.09-18.48a1.78,1.78,0,0,0,0-1.12c-.28-.54-.62-1.23-1.11-1.42a1.76,1.76,0,0,0-1.48.66,9.28,9.28,0,0,0-1.35,2.73c-.69,2.46-1.23,5-1.83,7.44-.8,3.32-1.6,6.63-2.42,10a4.38,4.38,0,0,0,.78.18C171.45,79.7,172.16,79.69,173.1,79.69Z"/><path class="cls-1" d="M298.47,93.1c-1.44,5-2.69,9.8-4.22,14.5-1,3-3.45,4.24-6.46,4.39-2.61.13-5.23.12-7.84.17-5.5.1-8.69-3.73-7.42-9.15,1.33-5.67,2.85-11.29,4.33-16.92Q280.55,72,284.29,58c.19-.73.39-1.47.65-2.19,1.4-3.82,3-4.92,7.08-4.92,2.89,0,5.77,0,8.66,0,4.46,0,6.84,2.49,6.24,6.94A61.61,61.61,0,0,1,305.27,65c-1.84,7.11-3.74,14.2-5.55,21.32-.29,1.15-.73,1.58-2,1.55-3.54-.09-7.08,0-10.62-.06a1.55,1.55,0,0,0-1.81,1.38c-1,4-2.06,8-2.94,12a3,3,0,0,0,.62,2.55c1,.75,2.22.2,3-.72a4.84,4.84,0,0,0,.9-1.71c.79-2.37,1.49-4.78,2.31-7.14.15-.45.72-1,1.11-1.06C293,93.06,295.59,93.1,298.47,93.1Zm-9.86-13.59c3.05.5,3.05.5,3.81-2.26.53-1.89,1.07-3.77,1.59-5.66.95-3.47,1.92-6.93,2.82-10.4.25-1,.39-2.27-.83-2.43-.77-.1-1.73.75-2.49,1.33-.32.25-.37.88-.49,1.35-.38,1.43-.73,2.85-1.08,4.28Q290.27,72.61,288.61,79.51Z"/><path class="cls-1" d="M215.4,69.57c1.55-5,2.9-9.84,4.55-14.56,1-2.75,3.37-3.93,6.18-4,3.1-.11,6.21,0,9.31,0a5.53,5.53,0,0,1,4.92,4.55,14.78,14.78,0,0,1,.18,6.27c-4.08,16.37-8.36,32.69-12.56,49-.22.88-.58,1.26-1.55,1.24-5.06-.13-10.13-.11-15.19-.3-3.43-.12-5.85-3.48-5-7.21,1.84-7.73,3.87-15.41,6-23.07a7.41,7.41,0,0,1,5.08-4.95c3.24-1.12,6.51-2.14,9.73-3.33a2.92,2.92,0,0,0,1.56-1.57c1.06-3.08,2-6.21,2.91-9.35.33-1.12.83-2.42-.66-3.14a2.82,2.82,0,0,0-3.56,1.8c-.94,2.44-1.78,4.92-2.58,7.4A1.54,1.54,0,0,1,223,69.6C220.56,69.53,218.12,69.57,215.4,69.57Zm10.08,14.68-.35-.41c-1.61,1-3.24,1.93-4.82,3a1.87,1.87,0,0,0-.68,1.06c-1.08,4.54-2.18,9.08-3.11,13.65-.15.74.46,1.63.71,2.45a17,17,0,0,0,2.59-1,2.39,2.39,0,0,0,.83-1.37Q223.1,93,225.48,84.25Z"/><path class="cls-1" d="M230.55,111.77c4.73-17.82,9.38-35.37,14.07-53l-2.84-.3c.49-2.29,1-4.47,1.4-6.65.23-1.15,1.11-.93,1.79-.84,1.36.17,1.84-.39,2.2-1.68,1.73-6.13,3.57-12.22,5.44-18.3a18.38,18.38,0,0,1,1.6-3.39,5.63,5.63,0,0,1,4.56-3.1c4.16-.2,8.34-.06,12.81-.06-1,2.62-1.79,4.92-2.73,7.16a1.6,1.6,0,0,1-1.29.63c-5.78-.37-6.6,1.56-7.84,6.41L256.6,50.81l3.3.16c-.71,2.44-1.34,4.78-2.14,7.05-.12.33-1.1.54-1.66.5-1.14-.08-1.6.32-1.89,1.44-4.22,16.57-8.53,33.11-12.71,49.69-.43,1.71-1.07,2.27-2.82,2.16C236.08,111.65,233.46,111.77,230.55,111.77Z"/><path class="cls-1" d="M270.31,50.89v1.8a44.9,44.9,0,0,1,4.54-1.88c4.2-1.23,7.11.74,7.24,5.1a26.84,26.84,0,0,1-.78,6.78c-1.21,5.13-2.67,10.21-4,15.33-.28,1.1-.74,1.49-1.89,1.44-2.55-.09-5.1,0-7.86,0,1.54-5.6,3-11,4.5-16.39a7.79,7.79,0,0,0,.41-2.72c-.06-.63-.58-1.59-1.08-1.73a2.43,2.43,0,0,0-2.1.63,10.11,10.11,0,0,0-1.51,3.38c-3.69,14.74-7.32,29.48-11,44.22-.4,1.63-.45,3.79-1.52,4.67s-3.12.26-4.75.28-3.25,0-5.1,0c.88-3.46,1.72-6.72,2.55-10,4.15-16.3,8.33-32.59,12.42-48.91.39-1.55,1-2.13,2.61-2C265.42,51,267.82,50.89,270.31,50.89Z"/><path class="cls-1" d="M256.14,128.84c.76-3.45,1.6-6.88,2.26-10.34.27-1.43.87-1.85,2.39-1.36-.62,2.84-1.25,5.68-1.87,8.53-.38,1.75-.69,3.52-1.17,5.25a2.23,2.23,0,0,1-1.16,1.36,1.49,1.49,0,0,1-2-1.05c-1.28-3.18-2.67-6.32-4-9.46-.21-.49-.46-1-.88-1.82l-2.37,10.89c-.34,1.55-.34,1.55-2.16,1.36a4.61,4.61,0,0,1,0-1c.93-4.31,1.89-8.61,2.82-12.91.16-.74.28-1.38,1.27-1.32s1.63-.06,2.07,1.06c1.42,3.64,3,7.22,4.48,10.83Z"/><path class="cls-1" d="M275.73,117c.2,1.25-.23,1.77-1.46,1.74-2.29,0-4.58,0-6.86,0-.94,0-1.39.26-1.52,1.22-.15,1.12-.45,2.21-.73,3.5h8.35c.26,1.37-.14,1.9-1.47,1.86-2.38-.08-4.78,0-7.27,0-.39,1.7-.74,3.28-1.15,5.11h9.29c.19,1.44-.2,2-1.55,2-3.37-.08-6.74,0-10.32,0,1.14-5.22,2.24-10.24,3.35-15.31Z"/><path class="cls-1" d="M218.84,130.42h9.41c.07,1.3-.2,2-1.58,1.93-3.63-.08-7.27,0-11.44,0a13.32,13.32,0,0,1,1.54-2.53c3.29-3.25,6.65-6.43,10-9.63.37-.36.71-.74,1.34-1.4h-8.77l.33-1.74h12a12.45,12.45,0,0,1-1.57,2.54c-3.26,3.21-6.59,6.33-9.9,9.49C219.77,129.4,219.43,129.8,218.84,130.42Z"/><path class="cls-1" d="M228.93,132.14l4.35-7.19c1.41-2.33,2.88-4.63,4.19-7a1.88,1.88,0,0,1,2.46-.92c.42.13.77,1,.87,1.61.66,3.92,1.25,7.85,1.84,11.77.09.58.13,1.16.19,1.74-1.54.43-2.32.24-2.48-1.5-.25-2.83-.4-2.59-3.26-2.89-2.7-.28-4.32.64-5.22,3.1C231.42,132.11,230.56,132.67,228.93,132.14Zm10.69-6.27-.78-6.1-.36-.1-3.67,6.2Z"/><path class="cls-1" d="M279.59,132.11c.94-4.38,1.88-8.75,2.87-13.33h-5.2l.26-1.76h12.65c.24,1.28-.22,1.73-1.53,1.74-4,0-4,.07-4.85,3.94-.61,2.7-1.2,5.41-1.79,8.11C281.65,132.45,281.65,132.45,279.59,132.11Z"/><path class="cls-1" d="M290.87,118.83c-.24-1.5.24-1.94,1.46-1.92,3.75.06,7.49,0,11.28,0,.24,1.32-.13,1.83-1.46,1.83-4,0-4,.07-4.87,3.91-.6,2.7-1.3,5.39-1.77,8.11-.26,1.47-.89,1.82-2.44,1.34.94-4.34,1.87-8.7,2.86-13.29Z"/><path class="cls-1" d="M302.85,132.14c1-4.6,2.08-9.07,3-13.58.29-1.52.89-1.93,2.45-1.39-.66,3.06-1.33,6.11-2,9.17-.32,1.48-.75,2.95-.94,4.45S304.39,132.56,302.85,132.14Z"/></svg>