<svg id="Livello_1" data-name="Livello 1" xmlns="http://www.w3.org/2000/svg" viewBox="0 0 211.05 56.18"><defs><style>.cls-1{fill:#272727;}</style></defs><path class="cls-1" d="M52.33,40c-2.4,4.4-4.7,7.3-9,10-11.7,7.5-30.3,4.4-38.4-7-3.9-5.6-3.7-10.6-3.7-17,.1-10,4.7-17.2,14-21.5,4.9-2.2,8.7-2.6,14-2.5,6,.1,8.8,1.2,14,4,2.1-3.7,2.9-3.7,7-4V9c0,2.4.3,8.3-3.8,7.3-1.8-.5-4.6-3.6-6.2-4.9-3.9-3.1-8-4.7-13-4.3C16.83,8,13.33,17,12.73,26c-.8,11.2,5.7,21.1,17.5,21.8C42.33,48.48,43.53,38.48,52.33,40Z"/><path class="cls-1" d="M52.33,6l2.3-3.4L76.33,2V6l-4.8,3.2L70.33,18V37l.6,6.9,5.4,4.1v4h-23V48c2.3-1.1,3.5-1.6,4.8-4.1,2-3.6,1.2-19.9,1.2-24.9,0-2.3.1-5.8-.7-8C57.33,7.78,55.43,7,52.33,6Z"/><path class="cls-1" d="M158.33,6V2h-23c1.1,6.5,4.3,4.6,5.7,10V36a23.45,23.45,0,0,1,0,7c-2.7,6.2-10.1,5.4-14.7,2.3-4.9-3.4-7.7-9-10-14.3,3.7-1.6,6.7-2.8,9.2-6.1,5.4-7.2,3-16.7-5.2-20.4-8.8-3.9-30.6-2.5-41-2.5V6c3.1,1,4.8,1.7,6.1,5,1,2.4.9,5.5.9,8,.1,5.7,1.1,21.8-1.8,25.9-1.6,2.2-2.8,2.4-5.2,3.1v4h24V48c-8-2.8-6-8.8-6-16h8c3,15.8,14.6,20,29,20h24V48c-3-1-4.6-1.7-5.8-5V17c-.2-2.1-.3-5,.5-6.9C154.23,7.38,155.83,6.88,158.33,6Zm-46.1,19.8c-3.1,1.8-12.1,1.2-15.9,1.2l1-20.1c3.7,0,11.9-.5,14.9,1.2C117.83,11.28,117.83,22.58,112.23,25.78Z"/><path class="cls-1" d="M199.33,6.68c-6.2-4.4-14.8-4.2-22-3.2a25.09,25.09,0,0,0-13.5,40.4c4.4,5.3,11.8,8.2,18.5,8.8C208.83,55,219.63,21,199.33,6.68ZM198.23,32c-.5,7.3-3.8,14.7-11.9,15.8-19.5,2.5-18.3-28.8-13.1-35.6,2.5-3.3,5.2-4.1,9.1-4.9C196.73,7,199.13,20.48,198.23,32Z"/></svg>