<svg id="Livello_1" data-name="Livello 1" xmlns="http://www.w3.org/2000/svg" viewBox="0 0 542.05 112.5"><defs><style>.cls-1{fill:#272727;}</style></defs><path class="cls-1" d="M258.61,92.56h-30.3l-1-1.3a6.53,6.53,0,0,0,2-.5c7.7-3.3,7.7-3.3,7.6-11.9-.2-10.1-.1-20.3-.8-30.4-.7-9.4-6.1-11.7-13.9-6.6-5.1,3.3-8.5,7.2-7.9,14.2a241.11,241.11,0,0,1,.4,26.9c-.1,4.2,1.2,6.5,5.6,7.1a21.92,21.92,0,0,1,4.3,1.5c-.1.5-.2,1-.3,1.4h-31.8c-.2-.3-.3-.5-.5-.8a47,47,0,0,1,6.3-2.2c2.7-.7,3.7-2,3.6-4.9-.3-12.8-.6-25.6-.6-38.4,0-4.5-.8-7.7-6.1-8.1q-1.2-.15-2.4-2.4c6.2-.9,12.5-1.8,18.7-2.5.7-.1,1.8,1.6,2.2,2.7a12.75,12.75,0,0,1,.4,3.5c5.7-2.2,11.2-5.3,17.1-6.3,6.3-1,12.1,1.8,15.9,8.5,4.4-6.1,9.7-9.7,17.3-9.3,11.8.7,18.2,6.3,19,18.1.6,10.1.9,20.3.8,30.4,0,4.6,1.1,7.2,6,7.8,1.1.1,2.1.9,3,2.5h-31c1.4-.9,2.2-1.8,3.1-1.9,6-.9,6.9-4.6,6.5-9.9-.6-9.1-.5-18.3-.7-27.4v-1c-.4-7.1-2.9-11.6-7-12.6-5.2-1.2-11.3,1.9-14.4,7.6a10.8,10.8,0,0,0-.8,4.8c.2,10.5.8,20.9.8,31.4,0,4,1,6.3,5.2,6.8a25.42,25.42,0,0,1,4.4,1.5A4.1,4.1,0,0,0,258.61,92.56Z"/><path class="cls-1" d="M81.51,65.16c1.3,11.4,2.6,22.8,4,35-2.9-1.5-5.1-2.8-7.8-4.2A43.37,43.37,0,0,1,54,107.16c-19.2,2.8-37-6.1-45.4-23.6-7.7-16.1-8.7-32.7-.7-49,9.5-19.3,31.5-28.2,52-21.4,4.8,1.6,9.7,5.6,13.9-1.4.5,10.4,1,20.8,1.6,32.4-1.3-1.4-2.1-2-2.4-2.8-.9-2.7-1.3-5.5-2.4-8.1-4.2-10.5-12.8-16.2-24-16.2-11.5,0-19.7,5.3-23.5,15.9-7,19.6-5.2,38.9,5.9,56.4,10.8,17,34.7,15.8,44.4-1.9,3-5.5,3.8-12.2,5.5-18.4a32.85,32.85,0,0,0,.8-4.1A11,11,0,0,0,81.51,65.16Z"/><path class="cls-1" d="M391.51,96.46c-10.4-.7-20.8-1.5-31.2-2.2a7.72,7.72,0,0,1-.2-1.5c2.2-.6,4.5-.9,6.5-1.9,1.6-.9,3.5-2.6,3.7-4.1,1.2-13.9,2.2-27.8,2.9-41.7.1-1.4-1.6-3.1-2.9-4.2a25.06,25.06,0,0,0-4.9-2.5l.3-1.5c2.5-.1,5-.3,7.5-.4,2.3-.1,4.7.2,7-.1,4.2-.5,7.5-.1,6.4,6.3,7.2-4.8,14.3-6.1,22-4.3,9.2,2.1,14.5,7.5,14.7,16.9.2,10.9-.4,21.9-1.2,32.8-.4,4.7.7,7.2,5.3,8.2,1,.2,1.9,1.1,2.8,1.6a5.85,5.85,0,0,0-.2,1.3c-10.1-.7-20.2-1.3-30.2-2-.1-.5-.1-.9-.2-1.4,1.3-.5,2.5-1.4,3.8-1.5,4.2-.4,5.8-2.5,5.9-6.8.3-8.6,1.1-17.2,1.7-25.8.1-1.2.1-2.3.1-3.5-.3-5.5-.1-11.6-6.2-14.1-6.4-2.6-12,.7-17.2,4.1-1.2.8-2,3-2.2,4.7-.9,10.8-1.3,21.5-2.3,32.3-.4,4.5.6,7.3,5.4,8.2,1.2.2,2.2,1.1,3.3,1.7C391.81,95.46,391.61,96,391.51,96.46Z"/><path class="cls-1" d="M143.41,65.66a28.92,28.92,0,0,0,6.5,18.5c4.4,5.3,10.3,8.1,16.8,6,5.8-1.9,11.1-5.5,17-8.5a29.58,29.58,0,0,1-1.9,4.1c-7,9.3-16.6,12.7-27.7,10.7-11.9-2.1-19.2-9.8-23-21.1a12.86,12.86,0,0,1-.4-1.9c-1.2-5-4.5-11.2-8.2-14.5h7.1a12.9,12.9,0,0,0,.9-1.6c5.3-18,21.8-25.1,40.6-21.1a18.11,18.11,0,0,1,5.9,2.5c8.7,5.6,8.9,17.6-.5,21.7-7.1,3.1-15.3,3.8-23.1,5.2C150.41,66.06,147.21,65.66,143.41,65.66Zm.5-4.2c6.7-1,13.1-1.6,19.2-3.1,5.3-1.3,7.6-6,6.5-11.3-.9-4.7-4.9-7.6-10.3-7.4C149.91,40,142.91,49.06,143.91,61.46Z"/><path class="cls-1" d="M476.41,62.26c2,.6,4,1.2,6.2,1.8,5.2-9.7,12.7-16.2,23.9-17.4a37.89,37.89,0,0,1,22.6,4.5c6,3.3,8.7,8.8,7.7,14.9-1.1,6.5-5.8,9.7-11.5,9.9-8.5.3-17.1-.9-25.7-1.5a27.66,27.66,0,0,1-5.1-1.1,29.85,29.85,0,0,0,2.3,19.2c3.3,6.7,9,10.4,16,9.7,6-.5,11.8-3.3,19-5.4-5.3,6.3-10.9,9.8-18.1,10.8-19.7,2.5-35.7-13.5-33.1-33.6.6-4.4.3-7.3-3.9-9.2-.5-.2-.7-1.2-1.1-1.8A6,6,0,0,0,476.41,62.26Zm19.4,6.9c5.9.6,11.4,1.4,17,1.6,4.3.1,8.3-1.2,10.2-5.7,1.4-3.5,1.7-7.2-1.1-10.3-3.2-3.6-7.3-4.4-11.8-3.4C502.61,53,497,59.76,495.81,69.16Z"/><path class="cls-1" d="M354.61,80.36a37.42,37.42,0,0,1-2.7,4.2c-7.5,8.8-17,12-28.2,9.3-12.2-2.9-19.2-11.1-22.2-23.1-1.4-5.4,1.2-12.7-8.3-14.2a17.41,17.41,0,0,1,1.2-1.4c2.1.1,4.2.3,6.5.4a8.86,8.86,0,0,0,.8-1.7c6.7-19,24-23.7,41.4-19.5a17.55,17.55,0,0,1,7,3.7c7.1,6,6.3,16.6-2.2,20.6-4.8,2.3-10.4,3.4-15.7,4-5.7.7-11.6.2-17.8.2.1,9.2,2.3,17.5,9.9,22.4,11.1,7.3,20.7,2.6,29-6.6C353.71,79.26,354.21,79.76,354.61,80.36Zm-39.8-21.8c6.6-.7,12.9-.8,19-2.1s8.8-6.5,7.3-12.1c-1.3-4.9-6-7.7-11.7-6.8C320.71,38.86,314.71,46.86,314.81,58.56Z"/><path class="cls-1" d="M126.71,98.06c-10.4.9-20.8,1.9-31.3,2.8-.2-.4-.3-.8-.5-1.3,1.7-.9,3.3-2.1,5.2-2.6,3.3-.9,4.3-2.7,4-6.1-2-20.8-3.7-41.7-5.6-62.6-.5-5.3-1-10.5-1.5-15.8-3.5-.6-6.7-1.2-9.8-1.8,0-.4-.1-.8-.1-1.2.9-.4,1.7-1,2.6-1.3,4.8-1.4,9.7-2.4,14.3-4.1,5-1.8,6.2-1.3,6.5,3.9.7,11.3,1.2,22.6,2.1,33.8,1.3,16.1,2.9,32.1,4.2,48.2.3,3.1,1.4,4.9,4.7,5.2a31.38,31.38,0,0,1,5.1,1.2A9.15,9.15,0,0,1,126.71,98.06Z"/><path class="cls-1" d="M445.11,47.26c-2.9-.6-5.3-1.1-9-1.9,1.9-1.2,2.7-2,3.6-2.2,7.2-1.7,12.2-6,14.6-13,1.1-3.3,2.9-3.5,6-2.3-.4,4.6-.8,9.2-1.2,14.2,5.3.5,10.2,1,15.5,1.6-.2,2.1-.3,3.8-.5,6.1-5.2-.5-10.1-.9-15.8-1.4-.6,4.6-1.3,9.1-1.8,13.6-.8,7.4-1.5,14.9-2.1,22.3a22.75,22.75,0,0,0,.5,6.9c1.5,5.5,4.6,7.2,10.1,5.8,2.2-.6,4.3-1.4,6.4-2.1.3.3.5.7.8,1-1.1,1.1-2,2.6-3.4,3.2a24.27,24.27,0,0,1-19.9,1.1c-5.7-2.1-7.9-7.1-7.6-12.8.5-9.8,1.6-19.5,2.5-29.3C444.21,54.66,444.71,51.06,445.11,47.26Z"/></svg>