<svg id="Livello_1" data-name="Livello 1" xmlns="http://www.w3.org/2000/svg" viewBox="0 0 325.23 114.14"><defs><style>.cls-1{fill:#272727;fill-rule:evenodd;}</style></defs><path class="cls-1" d="M33.2,2.48H2.05V110.76H34.64A11.59,11.59,0,0,0,46.23,99.17V15.51A13,13,0,0,0,33.2,2.48ZM28.64,93.71a4.5,4.5,0,0,1-4.5,4.5H19.09V16.39h5.05a4.51,4.51,0,0,1,4.5,4.5Z"/><path class="cls-1" d="M87.68,13.67V26.48H73.77v19.1H87.68V59.21H73.77v39H87.68v12.55H67.23A10.91,10.91,0,0,1,56.32,99.85V24.58A10.9,10.9,0,0,1,67.23,13.67Z"/><path class="cls-1" d="M141.41,2.48H120.82a11.59,11.59,0,0,0-11.59,11.6V99.17a11.59,11.59,0,0,0,11.59,11.59h20.59V98.21H127.23V16.39h14.18Z"/><path class="cls-1" d="M184.5,13.67V26.48H170.59v19.1H184.5V59.21H170.59v39H184.5v12.55H164.05a10.91,10.91,0,0,1-10.91-10.91V24.58a10.9,10.9,0,0,1,10.91-10.91Z"/><path class="cls-1" d="M226.09,13.67V26.48H212.18V98.21h13.91v12.55H205.64a10.91,10.91,0,0,1-10.91-10.91V24.58a10.9,10.9,0,0,1,10.91-10.91Z"/><path class="cls-1" d="M269.45,13.67V26.48h-13.9V98.21h13.9v12.55H249a10.92,10.92,0,0,1-10.91-10.91V24.58A10.91,10.91,0,0,1,249,13.67Z"/><path class="cls-1" d="M313.23,13.67H290.59a9.82,9.82,0,0,0-9.82,9.81v77.46a9.82,9.82,0,0,0,9.82,9.82h22.64a9.82,9.82,0,0,0,9.82-9.82V23.48A9.82,9.82,0,0,0,313.23,13.67Zm-7.91,82.7a1.84,1.84,0,0,1-1.84,1.84H299.8A1.84,1.84,0,0,1,298,96.37v-68a1.85,1.85,0,0,1,1.85-1.85h3.68a1.85,1.85,0,0,1,1.84,1.85Z"/></svg>