<svg id="Livello_1" data-name="Livello 1" xmlns="http://www.w3.org/2000/svg" viewBox="0 0 350.39 61.16"><defs><style>.cls-1{fill:#272727;}</style></defs><path class="cls-1" d="M175,28.47l-3.8,7c-3,5.61-6.11,11.2-9.09,16.83a4.68,4.68,0,0,1-3.53,2.62,22.11,22.11,0,0,1-9.34-.08,4,4,0,0,1-2.93-2.14c-4.07-7.6-8.19-15.18-12.29-22.77a3.83,3.83,0,0,0-1.13-1.37c0,.67-.11,1.35-.11,2q-.06,11.25-.12,22.52c0,1-.21,2.06-.16,3.09.05,1.2-.56,1.66-1.61,1.87a35.9,35.9,0,0,1-14,.42,5.49,5.49,0,0,1-2-.64,2.26,2.26,0,0,1-1-1.45c-.3-12.24-.62-24.48-.73-36.72,0-4.64.46-9.28.66-13.92,0-1,.39-1.45,1.44-1.62a64.71,64.71,0,0,1,18.48-.78,47,47,0,0,1,5.1,1,7.73,7.73,0,0,1,5.37,4.26c2.9,5.52,6,10.9,9.11,16.34.19.35.44.68.77,1.19.32-.53.56-.91.78-1.29,3.38-6,6.72-12,10.19-18a4.19,4.19,0,0,1,2.37-1.77,57.47,57.47,0,0,1,9.3-2,62.83,62.83,0,0,1,16.24,1c1,.17,1.28.66,1.35,1.6A324.77,324.77,0,0,1,195,40.9c-.18,5-.46,10-.62,15a1.93,1.93,0,0,1-1.74,2.12,34.8,34.8,0,0,1-15.2,0c-1.07-.23-1.74-.68-1.75-1.94-.07-5.35-.23-10.7-.3-16,0-3.48,0-6.95,0-10.42,0-.37,0-.74-.07-1.1Z"/><path class="cls-1" d="M202.25,30.72c.49-7.87,1-15.78,1.45-23.69.06-1.08.74-1.32,1.55-1.47,3.64-.66,7.27-1.43,10.93-1.91a124,124,0,0,1,24.43-.85c7.33.49,14.72.81,21.73,3.39a18.23,18.23,0,0,1,8.34,5.53c3.38,4.26,3.48,10.71.29,16a10.78,10.78,0,0,1-1.36,1.95c-.77.8-.56,1.36.05,2.15a16.3,16.3,0,0,1,3.61,10.13,11.81,11.81,0,0,1-4.87,10c-4.16,3.24-9.08,4.6-14.18,5.38A138.8,138.8,0,0,1,227.59,59a104.81,104.81,0,0,1-21.15-2.79c-2.56-.64-2.61-.64-2.79-3.26C203.16,45.57,202.72,38.18,202.25,30.72Zm32.52,5c-3.52,0-7,0-10.56,0-1,0-1.42.31-1.4,1.37.06,2.62,0,5.25,0,7.88,0,.89.28,1.25,1.21,1.25,5.92,0,11.83.23,17.74.08a37,37,0,0,0,8-1.3,3.74,3.74,0,0,0,2.94-3.41,4,4,0,0,0-2.48-4.08A14.73,14.73,0,0,0,245,36C241.63,35.75,234.77,35.81,234.77,35.75Zm-.39-10.15v0c3.33,0,6.66.05,10,0,2.73-.06,5.34-.66,7.27-2.8,1.7-1.88,1.58-4.25-.55-5.55A11.1,11.1,0,0,0,246,15.43c-7.35-.26-14.7-.22-22.06-.31-.89,0-1.12.41-1.12,1.21,0,2.67,0,5.34,0,8,0,1,.31,1.3,1.3,1.28C227.54,25.57,231,25.6,234.38,25.6Z"/><path class="cls-1" d="M27.32,32.73c0,2.34.09,4.68,0,7-.24,5.43-.58,10.86-.85,16.29a1.75,1.75,0,0,1-1.62,1.9A55.07,55.07,0,0,1,4,57.92c-1-.2-1.45-.59-1.5-1.65-.32-6.93-.86-13.86-1-20.79s.08-13.8.27-20.69c.09-3.09.53-6.17.73-9.25A1.49,1.49,0,0,1,3.92,4a53.42,53.42,0,0,1,15.4-.79c1.77.15,3.52.55,5.29.72C26,4,26.43,4.76,26.48,6c.28,6.75.59,13.49.87,20.24,0,.72,0,1.45,0,2.17l.41.09c.92-1.15,1.82-2.32,2.78-3.45,5.51-6.45,11.1-12.84,16.53-19.36,1.52-1.83,3.51-1.83,5.45-2a79.4,79.4,0,0,1,22.57.48c.45.07.9.18,1.63.33-1.61,1.78-3.1,3.37-4.52,5-5.82,6.69-11.61,13.4-17.44,20.08a1.3,1.3,0,0,0,0,2q10.53,12.28,21,24.61c.27.32.52.65,1,1.29l-5.93.94c-6.76,1.09-13.48.42-20.17-.6a5.52,5.52,0,0,1-3.1-1.63c-6.06-7-12-14.17-18-21.27-.66-.78-1.28-1.57-1.92-2.36Z"/><path class="cls-1" d="M314.48,1.37A58,58,0,0,1,334,5c8.45,3.28,13.21,9.35,14.61,18.21a45.89,45.89,0,0,1-.72,18.41c-1.77,7.15-6.24,11.76-12.84,14.62a49.42,49.42,0,0,1-18.16,3.93c-6.95.25-13.88,0-20.63-1.94a39.78,39.78,0,0,1-10.34-4.66c-4.9-3.15-7.13-8-8.35-13.36a43.08,43.08,0,0,1,.5-20.74C280.06,12,285.14,7.64,292,4.9,299.23,2,306.79,1.3,314.48,1.37Zm-.29,17.9c-5.88,0-10.22,1-13.63,2.94a9.7,9.7,0,0,0-4.75,11.52c1.08,3.51,3.74,5.58,7,6.78a30.39,30.39,0,0,0,21.58,0c4.79-1.79,7.33-5.36,7.3-9.66,0-4.47-2.7-7.94-7.54-9.78A28.11,28.11,0,0,0,314.19,19.27Z"/><path class="cls-1" d="M105,54.71c-.15,3-.22,3-3.17,3.49a52.76,52.76,0,0,1-17.64,0c-2.29-.38-2.48-.38-2.59-2.64-.38-8-.86-15.93-.88-23.89s.44-16,.73-24c.13-3.48.17-3.48,3.61-4a53.28,53.28,0,0,1,17.77.25c1.26.24,2,.64,2,2.11.21,5.05.62,10.1.8,15.16.13,3.89,0,7.78,0,11.68C105.81,32.79,105.39,47.41,105,54.71Z"/></svg>