<svg id="Livello_1" data-name="Livello 1" xmlns="http://www.w3.org/2000/svg" viewBox="0 0 475.75 127.64"><defs><style>.cls-1{fill:#272727;}</style></defs><path class="cls-1" d="M469.51,122.05c-7.76,0-15.51,0-23.27,0-1.46,0-2.18-.27-2.44-1.88-.46-2.86-1.25-5.66-1.8-8.5-.24-1.21-.69-1.73-2-1.69-3.41.1-6.82,0-10.42,0v11.86H404.51V39.33h46.43q1.69,7.56,3.38,15.08l14.73,66a11.43,11.43,0,0,0,.46,1.23ZM429.6,88.92h7.58l-7.29-28.29-.29,0Z"/><path class="cls-1" d="M3.8,121.66c1-4.24,2.14-8.47,3.1-12.72Q14.58,75.1,22.16,41.25c.37-1.7,1.08-2.08,2.69-2.06,8.09.08,16.17,0,24.25,0h2.24C47,58.38,42.6,77.31,38.19,96.54H55.77c-1.89,8.67-3.71,17-5.56,25.51H3.8Z"/><path class="cls-1" d="M286,122.3H253.56l-3.81-20H223.87l-3.83,20H187.29C196.17,83,205,43.82,213.92,4.5H259.4ZM245.32,76c-2.89-14.84-5.75-29.52-8.62-44.2l-.38,0C233.55,46.51,230.79,61.19,228,76Z"/><path class="cls-1" d="M121.08,39.22v83.06H95.82v-11.9c-3.85,0-7.45,0-11,.06-.38,0-1,.74-1.07,1.22-.85,3.5-1.61,7-2.41,10.63H56.17c1.39-6.41,2.76-12.7,4.13-19,4.47-20.45,9-40.9,13.37-61.38.43-2,1-2.78,3.3-2.76,13.9.13,27.8.06,41.71.06ZM87.77,88.94h7.89V60.71l-.32-.06C92.83,70,90.33,79.37,87.77,88.94Z"/><path class="cls-1" d="M156.69,39.34v57.3l.37.06Q163.48,68,169.93,39.33h26.32c-1.62,7.29-3.23,14.51-4.84,21.73-4.34,19.5-8.71,39-13,58.5-.41,1.89-1,2.57-3.08,2.55-14-.11-27.94,0-41.91,0h-2.39V39.34Z"/><path class="cls-1" d="M343.53,122.32H292.89c1.75-18.78,3.49-37.49,5.25-56.39H280.58c-1.57-8.81-3.12-17.47-4.69-26.26h53.26c-2,19.36-4.07,38.61-6.12,58.09h15.52C340.21,106,341.85,114,343.53,122.32Z"/><path class="cls-1" d="M355.94,65.87H338.36c-1.56-8.75-3.1-17.36-4.67-26.16h53.24c-2,19.27-4.05,38.51-6.11,58.09h6.33c2.59,0,5.18-.06,7.76,0,.56,0,1.49.6,1.59,1.06,1.62,7.56,3.13,15.14,4.66,22.72a3.56,3.56,0,0,1-.05.67H350.69C352.44,103.48,354.18,84.77,355.94,65.87Z"/></svg>