<svg id="Livello_1" data-name="Livello 1" xmlns="http://www.w3.org/2000/svg" viewBox="0 0 398.05 95.71"><defs><style>.cls-1{fill:#272727;}</style></defs><path class="cls-1" d="M198.42,90.88c4.5-2.31,3.53-5.91,2.7-9.39-2.06-8.62-2.06-8.62-11.06-8.62H172.24c-1,3.54-2.06,6.89-2.7,10.36-.58,3-1,6.24,4,6.82-.26.32-.58.58-.84.9H151.21c.19-.52.26-1,.39-1,5-1.29,6.81-5.08,8-9.46q9.06-33.09,18.13-66.11c.2-.64.26-1.29.45-1.87,1-3.08.65-5.72-3.92-7.26,1.67-.65,2.44-1.16,3.15-1.16,4.37-.06,8.81-.13,13.19,0,4,.13,5.78,1.8,7,6.24,6.23,22.89,12.41,45.79,18.78,68.62A37.57,37.57,0,0,0,220,87a4.79,4.79,0,0,0,6.11,2.32c1.54-.71,2.76-2.7,3.47-4.37a13.06,13.06,0,0,0,.58-5c0-21.29,0-42.64-.07-63.93,0-4.44-.06-8.94-5.78-10.55.06-.25.19-.51.25-.77a12.66,12.66,0,0,1,3-.64c5.79-.06,11.58.13,17.37-.06,2.63-.07,3.79.9,4.63,3.28,7.07,18.58,14.21,37.1,21.28,55.69a8,8,0,0,0,1.87,3.22c.13-1.74.32-3.41.32-5.15-.06-15.43-.19-30.81-.32-46.24v-.32c-.07-4-.39-7.78-5.47-8.81,1.93-2,19-2.19,21.87-.26-6.43,2.06-5.6,7.33-5.6,12.09-.12,20.58-.12,41.1-.12,61.68v.32c.32,4.37-.65,9.39,5.91,10.74a6.28,6.28,0,0,0-.51.84,21.94,21.94,0,0,1-2.77.38c-4.5.07-9,0-13.5.07-3.8.06-6.24-1.61-7.59-5.21q-10.91-28.47-22-56.79a13.91,13.91,0,0,0-2.25-4.18V79.24c0,4.57-.45,9.39,5.66,11.19-.13.26-.32.45-.45.71C230.06,90.88,214.24,90.88,198.42,90.88ZM185.88,26.12a2.25,2.25,0,0,1-.65-.07c-3.34,12-6.69,23.93-10.09,36.08h20.58C192.44,50,189.16,38.08,185.88,26.12Z"/><path class="cls-1" d="M121,5.35c-4.82,1.22-4.24,4.69-3.47,7.58,4.95,18.91,10.16,37.69,15.89,56.6,1.35-5,2.76-9.9,4.11-14.86,3.54-13.05,7.08-26.17,10.61-39.23.26-.9.52-1.86.71-2.76,1-4.18.45-5.28-3-7.27,1.29-1.8,18.46-2.25,21.42-.51-.07.19-.07.57-.13.57-5,1.55-6.88,5.54-8.17,10.17-6,21.8-12.09,43.6-18.14,65.4a.59.59,0,0,1-.13.32c-.51,3.41-2.83,7.34,3.28,9-.25.19-.57.45-.83.64H117.58c5.08-2.64,3.4-6.56,2.44-10.22-5.85-21.23-11.77-42.39-17.62-63.55C101,12.16,99.83,7,93.46,5.54,95.52,3.48,118,3.29,121,5.35Z"/><path class="cls-1" d="M395.73,73.84c-.71,2.51-1.41,5-2.12,7.46-2.9,9.9-3,10-13.19,10H353.15c-1.09,0-2.18-.13-3.28-.19-.06-.26-.12-.58-.19-.84,1-.58,2.57-.84,3-1.67,1-2.25,2.25-4.7,2.25-7.08C355,59.05,355,36.54,355,14c0-3.92-.52-7.59-5.6-8.56.13-.25.26-.57.39-.83A13.26,13.26,0,0,1,352.38,4c9.71-.07,19.49-.07,29.2,0,4.37.06,6.18,1.67,7.14,5.85.64,2.83,1.16,5.59,1.86,8.81-3.4-1.48-6.43-3.35-9.64-4s-7-.13-10.68-.13V37.05c3.6,0,7.27.13,10.94-.13.9-.06,1.67-1.48,2.57-2.18a15.29,15.29,0,0,1,2-1.23,7.59,7.59,0,0,1,.84,2.19c.06,4.7,0,9.39,0,14.15,0,1.61-1.1,3.09-2.19,1.61-3.79-5.15-9.2-2.77-14.15-3.92V81h13.89c5.28,0,7.72-4.44,10.81-7.85A2,2,0,0,0,395.73,73.84Z"/><path class="cls-1" d="M92.62,19.49c-5.46-6.23-12.41-5-19.42-4.88V37.37C77.9,36.47,83.3,39.82,87,34c.13-.13,2.06.45,2.06.77.12,5.21.12,10.48.06,15.76,0,1.8-1.35,2.06-2.25.83-3.67-5-8.94-2.63-13.76-3.66V81.11c4.63,0,9.32.06,14,0,5.21-.13,7.72-4.38,10.61-8,.45.32.84.64,1.29,1-1.74,5-3.28,10.16-5.47,15-.58,1.28-3.21,2.25-5,2.31-11.45.2-22.89.13-34.34.07a10.59,10.59,0,0,1-2.51-.77c7.07-2.45,6.17-7.92,6.17-12.93V17c0-.84.07-1.74,0-2.58-.32-3.85-.51-7.84-5.53-9.64a8.92,8.92,0,0,1,2.58-.71c9.84-.06,19.67-.13,29.51,0,4.31.06,6.37,1.93,7.21,6.24L93,17.24a8.86,8.86,0,0,1,.06,1.29C92.94,18.79,92.75,19.17,92.62,19.49Z"/><path class="cls-1" d="M311.8,14.74c-4.05,0-7.65-.52-11.06.12-3.09.58-6,2.45-9.52,4,.9-3.92,1.48-7.72,2.64-11.25C294.69,5,297.14,4,299.77,4c12.93-.07,25.92-.07,38.85.06,2.89,0,5.34,1.16,6.17,4.18,1,3.34,1.55,6.82,2.32,10.61-3.47-1.48-6.37-3.34-9.52-3.92-3.34-.64-6.94-.13-10.67-.13-.07,1.22-.2,2.25-.2,3.28q-.09,31.16-.06,62.32a13.79,13.79,0,0,0,.9,5.92c.83,1.67,2.7,2.89,4.37,4.63H306.59c6.37-2.83,5.21-8.36,5.21-13.32.07-19.61,0-39.16,0-58.78Z"/><path class="cls-1" d="M23.42,81c5.21,0,9.91.2,14.6-.06,3.67-.19,6.3-2.45,8.3-5.4.58-.84,1.35-1.48,2-2.26a11.27,11.27,0,0,1,1.16.65c-1.61,4.89-3,9.84-5,14.53-.58,1.35-3.08,2.64-4.76,2.64-11.77.19-23.54.13-35.3.06a1.24,1.24,0,0,1-.78-.32A71,71,0,0,0,8,84.9a8,8,0,0,0,.51-3.73q0-33.37-.06-66.82c0-4-.52-7.78-5.41-8.94C4.71,3.54,25.93,3.29,29,5.09c-6,2.12-5.53,7.14-5.53,11.9,0,19.93-.06,39.81-.06,59.74C23.42,78.08,23.42,79.37,23.42,81Z"/></svg>