<svg id="Livello_1" data-name="Livello 1" xmlns="http://www.w3.org/2000/svg" viewBox="0 0 447.55 49.09"><defs><style>.cls-1{fill:#282828;}</style></defs><path class="cls-1" d="M356.72,46.91l12.87-.38a3.35,3.35,0,0,0-.23-.91,9.5,9.5,0,0,1-1.25-5.23C368,37.67,368,35,368,32.22c0-2.51,0-5,0-7.53,0-2.32-.12-2.5-1.83-4.64a7.35,7.35,0,0,0-.2,1.09c0,6.36-.06,12.72,0,19.08a15.56,15.56,0,0,0,.93,3.55H355.1c.28-.43.51-.77.72-1.11a6.14,6.14,0,0,0,1-3.33q0-15.79,0-31.58a6.75,6.75,0,0,0-1.7-4,6.78,6.78,0,0,1,1.07-.16c3.47,0,6.95,0,10.42,0a2,2,0,0,1,1.91,1.09q5.72,9.09,11.49,18.14c.36.56.76,1.1,1.33,1.91a5.63,5.63,0,0,0-.65-4.13c-2.64-4.46-5.23-9-7.83-13.43-.32-.54-.61-1.1-.95-1.72,1-.49,1.29.21,1.63.78,1.45,2.43,2.88,4.87,4.33,7.3q1.28,2.13,2.58,4.25c.21.35.48.67.89,1.23a10.07,10.07,0,0,0,.23-1.23c0-3.21,0-6.41,0-9.62a4.43,4.43,0,0,0-1-2.78c-.31-.41-.64-.8-1.1-1.37h13a6.12,6.12,0,0,1-.6.92,4.76,4.76,0,0,0-1.23,3.51c0,10.1,0,20.2,0,30.29,0,3.18,0,3.18,1.26,5.83-1.11.08-2.15.2-3.19.22-1.92,0-3.85,0-5.77,0a2.16,2.16,0,0,1-2.14-1.29c-3.33-5.48-6.71-10.92-10.08-16.37-.36-.58-.73-1.14-1.31-2a10.81,10.81,0,0,0-.21,1.41q0,7.29,0,14.58a8.84,8.84,0,0,0,2.07,5.11c.33.47.69.91,1.2,1.56a13.7,13.7,0,0,1-1.63.21c-4.17,0-8.34,0-12.51.05A1.47,1.47,0,0,1,356.72,46.91Z"/><path class="cls-1" d="M289.66,44.5c1.52-1.64,1.56-3.61,1.53-5.7-.1-10.37-.11-20.73-.12-31.1A4.46,4.46,0,0,0,289.65,4c.63,0,1-.1,1.4-.1q11,0,22,0a6.73,6.73,0,0,1,2.05.29c4.22,1.35,7.24,4.13,8.28,8.41A12.46,12.46,0,0,1,317.12,27l-1.13.61a1.81,1.81,0,0,0,.2.47,65.5,65.5,0,0,1,7.43,8.61c1.11,1.46,2.25,2.73,4.22,2.55A4.14,4.14,0,0,1,325,44.78,8.89,8.89,0,0,1,314.83,40c-.8-1.8-1.74-3.54-2.66-5.29-.38-.7-.87-1.34-1.29-2-2.48-4.07-6.23-4.78-10.67-4,0,.39-.1.8-.1,1.21,0,3.42.1,6.84.1,10.26a6.16,6.16,0,0,0,1.07,3.78,6.31,6.31,0,0,1,.36.69C299.71,45,290.8,44.89,289.66,44.5Zm14.4-25.57a1.74,1.74,0,0,0,.52.21c2.14.05,4.28.15,6.41.08a6.63,6.63,0,0,0,2.6-.7,3.16,3.16,0,0,0,.83-5,4.44,4.44,0,0,0-3.32-1.36c-3.31,0-6.62,0-9.94,0a1.82,1.82,0,0,0-.56.17,21.28,21.28,0,0,0,.18,6.93l1.85-.16v-5c3.27,0,6.31,0,9.35,0,.75,0,1.26.44,1.57,1.42l-9.49.08Z"/><path class="cls-1" d="M270.27,22.25h11.56c-2.1,3.27-1.28,6.76-.8,10.2A1.72,1.72,0,0,1,280.7,34c-2,2.23-3.9,4.55-6,6.7a16.24,16.24,0,0,1-12.36,5.1,23.13,23.13,0,0,1-13.06-3.62,18,18,0,0,1-7.62-10.36A26.13,26.13,0,0,1,242,16.23c2.14-6.5,6.86-10.44,13.14-12.6a18.59,18.59,0,0,1,13.18.25c1,.41,2.07.86,3.12,1.26,1.37.54,2.62,1.46,4.62.93l-6.26,11.31,1.48,1.29c2.22-3.76,4.34-7.37,6.58-11.18a2,2,0,0,1,0,2L272,20.33a2.55,2.55,0,0,1-.32.3c-.32-.31-.68-.6-1-.94-3.19-3.6-10.4-3.7-13.85-.79a8.27,8.27,0,0,0-3,5A11.13,11.13,0,0,0,257.64,35a5.71,5.71,0,0,0,3,1.25,10.36,10.36,0,0,0,9.77-4.31,5,5,0,0,0,1.05-3.14,30.68,30.68,0,0,0-.12-3.84A12.65,12.65,0,0,0,270.27,22.25ZM254.71,33.63l.24-.2a2.64,2.64,0,0,0-.23-.51c-2.22-2.66-2.55-5.81-2.17-9.07.42-3.6,2.15-6.34,5.67-7.67a12.34,12.34,0,0,1,6.78-.54c1.38.27,2.73.73,4.32,1.16a6,6,0,0,0-.54-.74,8.89,8.89,0,0,0-4.88-2.56c-4.42-.67-8.32.22-11.07,4a12.59,12.59,0,0,0-2.14,9,10.6,10.6,0,0,0,2.67,5.88A17.59,17.59,0,0,0,254.71,33.63Z"/><path class="cls-1" d="M421.67,2.44C430.2,2.16,437.88,7.65,441,16a22,22,0,0,1-9.8,26.84,19.7,19.7,0,0,1-21.58-1.86,20.93,20.93,0,0,1-8.23-17.45c.07-8.46,4.09-14.62,11.22-18.9A18,18,0,0,1,421.67,2.44Zm0,32.9C428,35.57,433,30.18,433,24c0-6.74-5.25-12-11.1-11.93a11.53,11.53,0,0,0-11.42,11.79A11.3,11.3,0,0,0,421.63,35.34Z"/><path class="cls-1" d="M202.45,4h25.94c.68,3,1.37,6,2.11,9.29-2.31-1.15-4.56-.83-6.77-.84-3,0-6,0-9,0-.53,0-1.05.06-1.72.09a34.6,34.6,0,0,0-.17,6c.59.05,1.06.12,1.52.11a.89.89,0,0,0,1-1V14.86c.22-.17.3-.28.38-.28,3.37-.1,6.73-.22,10.09-.25a11.59,11.59,0,0,1,7.13,2.13c-.33-4-1.31-7.47-1.84-11.1.89-.53,1.1.06,1.25.73.45,2.14.91,4.29,1.35,6.43s.87,4.37,1.38,6.91c-2.61-2-4.92-4.07-8.36-3.72-.05.64-.11,1.16-.11,1.69,0,4.11,0,8.23,0,12.34a2.48,2.48,0,0,0,2,2.62c.54-1.23.23-2.46.28-3.65s0-2.46,0-3.68V17.7l.34-.12c.17.26.45.49.51.77a7.66,7.66,0,0,1,0,1.44v15.6c2.06.53,2.06.53,7.38-1.31a99,99,0,0,1-3.36,10.59h-31a4.76,4.76,0,0,1,.37-.72,6.36,6.36,0,0,0,1.2-4.06c-.08-6.67-.13-13.35-.19-20,0-3.69-.09-7.38,0-11.06a6.24,6.24,0,0,0-1.39-4.31A2.5,2.5,0,0,1,202.45,4ZM229.5,35.2a6.2,6.2,0,0,0-3.62-2.88c-3-1-6.09-.64-9.36-.29.06,1.25.11,2.38.16,3.47C219.21,35.88,227.88,35.69,229.5,35.2Zm-14.15-5h3.74c1.18,0,2.35,0,3.52,0s2.22.54,3.51.24c-1-1.45-2-2.34-3.73-2.29-2.55.07-5.11,0-7.67,0-.47,0-.94.07-1.5.12a12,12,0,0,0-.19,1.3c0,1.54,0,3.09,0,4.63s.27,1.65,2,1.17C215.13,33.74,215.23,32.06,215.35,30.2Zm10.91-14.51a95.59,95.59,0,0,0-9.74.2c.06,1,.12,1.79.18,2.73,2.46-.06,4.74.24,7-.23A3.19,3.19,0,0,0,226.26,15.69Z"/><path class="cls-1" d="M116.66,4.1q1,4.41,2,9c-5.77-1.11-11.4-.49-17-.37a1.74,1.74,0,0,0-.43.17,33.85,33.85,0,0,0-.25,5.65,5.53,5.53,0,0,0,1.14.35c1,.08,1.39-.3,1.44-1.26s0-1.79,0-2.56c.31-.16.4-.25.49-.25,3.31-.12,6.62-.26,9.93-.33a11.63,11.63,0,0,1,6.3,1.56,9.59,9.59,0,0,0,1,.42l-2-11.12c1.07-.24,1.15.36,1.27,1,.53,2.61,1.07,5.23,1.61,7.84.36,1.72.71,3.44,1.13,5.5-2.59-2.07-4.89-4.12-8.37-3.69,0,.68-.11,1.26-.11,1.83q0,5.94,0,11.86c0,1.79,0,1.82,1.8,2.84.64-.38.43-1,.44-1.57,0-3.74,0-7.48,0-11.22V17.94l.27-.14c.2.22.5.41.56.67a5.43,5.43,0,0,1,0,1.28c0,4.81,0,9.62,0,14.42,0,1.59.29,1.93,1.87,1.72A21.3,21.3,0,0,0,123.4,35c.59-.18,1.15-.5,2-.85-.16.62-.23,1-.35,1.4-.85,2.7-1.68,5.4-2.58,8.08-.43,1.29-.48,1.3-1.83,1.3H92.06c-.31,0-.61-.06-1.09-.1.24-.42.4-.74.6-1a5.06,5.06,0,0,0,.91-3q-.09-16-.14-32.07a5.78,5.78,0,0,0-1.58-4.24C92.23,3.88,113.38,3.6,116.66,4.1ZM104.9,35.81a104.46,104.46,0,0,0,12.88-.26,7,7,0,0,0-.56-1,6.88,6.88,0,0,0-3.74-2.27c-2.47-.63-5-.27-7.47-.28a7.27,7.27,0,0,0-1.11.2Zm-3.63-7.31c0,2.27,0,4.39,0,6.5,0,.29.45.71.77.81.77.25,1.23-.18,1.28-1.13.07-1.36.1-2.72.16-4.14h10.74a3.27,3.27,0,0,0-2.52-2.09A56.43,56.43,0,0,0,101.27,28.5Zm3.66-9.88a26.5,26.5,0,0,0,6.84,0,2.74,2.74,0,0,0,2.5-2.56,42.76,42.76,0,0,0-9.46.24Z"/><path class="cls-1" d="M52.71,4.53H62.8c4.22,0,8.44.07,12.66,0a8.49,8.49,0,0,1,5,1.51,12,12,0,0,1,5.07,13.71,15,15,0,0,1-4.19,6.72c-2,1.93-4.58,2.47-7.24,2.57-2,.07-4-.07-5.92-.1-1.59,0-3.19,0-4.9,0-.06.68-.13,1.14-.13,1.6,0,3.63,0,7.26,0,10.9a6.9,6.9,0,0,0,1.44,3.85H52.6a1.34,1.34,0,0,1,.16-.44,7,7,0,0,0,1.31-4.51c-.1-7.85-.15-15.7-.23-23.55,0-2.94-.13-5.88-.13-8.81A5.22,5.22,0,0,0,52.71,4.53ZM76.14,14.81a3.2,3.2,0,0,0-3.07-2c-3,0-6.08,0-9.11,0a2.57,2.57,0,0,0-.69.21,48.6,48.6,0,0,0,0,6.27l1.44-.12.23-4.4A59.78,59.78,0,0,1,76.14,14.81Zm.2,1.79c-3.27-.73-6.58-.29-10-.39v3c2,.08,3.82.27,5.67.19a10,10,0,0,0,3.19-.82A1.65,1.65,0,0,0,76.34,16.6Z"/><path class="cls-1" d="M1.8,30.88c.49.3,1,.61,1.46.9,1.82,1.11,3.61,2.3,5.48,3.31a12.09,12.09,0,0,0,7.71,1.55,3.39,3.39,0,0,0,2-5.94,15.57,15.57,0,0,0-3.17-2.13c-1.84-.95-3.79-1.72-5.65-2.64a17.8,17.8,0,0,1-2.86-1.75A10.78,10.78,0,0,1,4.18,9.11c3-4.51,6.21-5.77,11.55-4.49,1.3.32,2.57.73,3.85,1.1,2.22.65,2.76.62,4.92-.43.14.56.31,1.09.41,1.63.73,3.66,1.52,7.32,2.15,11,.22,1.28,1,1.78,2.2,2.23-.26-4.34-1.42-8.38-2-12.52l.31-.15c.28.38.72.74.8,1.16.9,4.61,1.73,9.23,2.58,13.85,0,.09,0,.2-.1.49-.58-.35-1.12-.65-1.64-1-1.85-1.18-3.65-2.42-5.54-3.53a21.54,21.54,0,0,0-6.43-2.37c-1.73-.36-2.19-.11-2.92,1.75.49.26,1,.54,1.51.8,2,1,4,2,6,3a24.92,24.92,0,0,1,2.43,1.55c6.92,4.63,6.09,14.47,2.15,18.88a10.75,10.75,0,0,1-10.31,3.83,52.87,52.87,0,0,1-6.7-1.54c-1.48-.44-2.69-.49-3.72.79-.09.11-.27.14-.58.29-1.23-4.84-2.44-9.62-3.66-14.39ZM26,18.16l.13-.35c-3.22-3-6.91-4.88-11.45-4.69a4,4,0,0,0-1.9.72,1.69,1.69,0,0,0-.72,2,1.84,1.84,0,0,0,1.61,1.46c.53-2.4,1.19-2.79,3.51-2.26a32.24,32.24,0,0,1,8.12,2.89A6.37,6.37,0,0,0,26,18.16Z"/><path class="cls-1" d="M143.15,35.89H145c0-.59.11-1.1.11-1.62q.06-9.69.11-19.39c0-1.92.07-3.84.08-5.76a3.71,3.71,0,0,1,1.51-3c.2-.17.59-.11,1-.18-.11.4-.11.57-.2.68a6.72,6.72,0,0,0-1.35,4.34q.09,11.78.17,23.56c0,.41.08.82.14,1.43,2.87,0,5.69.05,8.5.11s5.4-1,8.26-2.26c-1.29,4-2.47,7.6-3.67,11.31-9.46.3-18.83,0-28.21.08,0-.26,0-.4,0-.45,1.54-1.63,1.84-3.58,1.81-5.76-.1-9.56-.1-19.12-.1-28.68,0-2.21.12-4.41-2-6.18H145a4.3,4.3,0,0,1-.42.69,6,6,0,0,0-1.71,4.52c0,8.55.12,17.09.19,25.64A9,9,0,0,0,143.15,35.89Z"/><path class="cls-1" d="M180.1,4.26C178.27,6,178,8,178,10.1q0,11.94.07,23.89c0,.37,0,.75,0,1.12.08.67.54.84,1.14.83a.84.84,0,0,0,.94-.86c0-.48,0-1,0-1.44,0-7.91,0-15.82,0-23.73a5.31,5.31,0,0,1,1.25-3.53c.38-.46.83-.89,1.57-.21-1.56,1.52-1.61,3.45-1.6,5.45,0,7.32,0,14.64,0,22,0,.62,0,1.25.09,2.06l6.65.22c.11,0,.21,0,.32,0,3.28,0,6.52-.21,9.54-2.35a5.2,5.2,0,0,1,0,1c-1,3.11-2,6.21-2.86,9.34-.3,1-.95,1.12-1.8,1.12-4.38,0-8.77.07-13.15.08q-6.09,0-12.19,0c-.51,0-1,0-1.62-.06.08-.27.08-.45.17-.55,1.49-1.54,1.74-3.42,1.73-5.48q-.08-14.34,0-28.69c0-2.19-.07-4.28-1.72-6C167.72,3.85,177.79,3.8,180.1,4.26Z"/><path class="cls-1" d="M333.31,3.92h13.46A7.16,7.16,0,0,0,344.55,9c0,1.22,0,2.45,0,3.68.06,9,.13,18.05.16,27.08a4.94,4.94,0,0,0,1.58,4,4.16,4.16,0,0,0,.62.31c0-.64-.06-1.13-.09-1.63-.09-1.38-.26-2.76-.25-4.14,0-8.49.06-17,.1-25.48,0-1.33.06-2.67.09-4a2.72,2.72,0,0,1,1.74-2.54c.65.43.32.86.07,1.15a4.43,4.43,0,0,0-.86,3.15c0,9.72.07,19.44,0,29.16A10.72,10.72,0,0,0,350.19,47a9.13,9.13,0,0,1,.64,1h-1.46c-4.43,0-8.87,0-13.3.08a3.6,3.6,0,0,1-2.36-.91l.06-.37h14c-.23-1.87-.36-2-1.94-2l-10.58-.2h-1.85c.32-.57.52-1,.76-1.35a7.31,7.31,0,0,0,1.15-4.1q0-14.42,0-28.84C335.31,8,335.38,5.85,333.31,3.92Z"/><path class="cls-1" d="M65.94,32.25c0,1.39-.12,2.61-.12,3.82,0,1.92,0,3.84.1,5.76A8,8,0,0,0,69.18,48a3.79,3.79,0,0,1,.4.46,2.19,2.19,0,0,1-.58.18q-7.36.07-14.74.1c-.63,0-1.42.17-1.72-.89,4.8-.2,9.54,0,14.44-.29a11.87,11.87,0,0,0-.57-1.17,11,11,0,0,1-1.8-5.9c-.08-2.83,0-5.66,0-8.49a8.1,8.1,0,0,1,.17-1.06c.89,0,1.73-.09,2.57-.09,2.88,0,5.76.07,8.64,0a9.8,9.8,0,0,0,5.63-2.08,14.87,14.87,0,0,0,5.93-8.13A13.94,13.94,0,0,0,85.16,8.77c-.21-.31-.45-.6-.68-.89A1.82,1.82,0,0,1,84,7a5.73,5.73,0,0,1,.86.51A11.37,11.37,0,0,1,89,15.86a15.28,15.28,0,0,1-7.69,15A10.31,10.31,0,0,1,76,32.25c-1.93,0-3.85-.1-5.77-.11C68.82,32.14,67.45,32.21,65.94,32.25Z"/><path class="cls-1" d="M438.72,9.08a9.19,9.19,0,0,1,4.16,4.2,26.13,26.13,0,0,1,1.66,18.87A23,23,0,0,1,425.92,48.4a16.36,16.36,0,0,1-9.67-1.33,2.61,2.61,0,0,1-1-.83c.39,0,.77.08,1.15.16,1.31.26,2.6.63,3.92.79,6.76.83,12.38-1.62,17.12-6.25a23.8,23.8,0,0,0,4.94-26.1,39.58,39.58,0,0,0-3-4.91A10.49,10.49,0,0,0,438.72,9.08Z"/><path class="cls-1" d="M37.77,45.63a4.74,4.74,0,0,1-4.84-4.85,5.12,5.12,0,0,1,4.67-5.14,4.84,4.84,0,0,1,5,5A4.72,4.72,0,0,1,37.77,45.63Z"/><path class="cls-1" d="M397.45,47.76c-1.43,0-2.85,0-4.27,0-2.62,0-5.24.11-7.85.2a1.69,1.69,0,0,1-1.95-1.11c3.73-.4,7.42-.14,11.29-.34-.3-.67-.48-1.15-.71-1.61a10.07,10.07,0,0,1-1.07-4.64c0-10.26,0-20.51,0-30.77a5,5,0,0,1,2.32-4.24c.82.37.71.89.26,1.29a3.67,3.67,0,0,0-1.09,2.74c-.09,1.5-.18,3-.18,4.48,0,8.71.09,17.42,0,26.13a9,9,0,0,0,2.61,6.64l.75.82Z"/><path class="cls-1" d="M251.21,44.71c1.92.75,3.47,1.47,5.08,2a21.77,21.77,0,0,0,10.93.4,16.29,16.29,0,0,0,9.1-5.33c.84-1,1.64-2,2.52-2.9,1.46-1.55,3-3,4.64-4.73a26.06,26.06,0,0,1-.42-8,6.43,6.43,0,0,1,.64-2.26c.19-.42.69-.69,1.06-1l.35.23a3.36,3.36,0,0,1-.38,1,4.21,4.21,0,0,0-.83,2.85c0,2.66-.14,5.34,1.1,7.92-3.17,2-5.2,5-7.56,7.66-.74.84-1.51,1.66-2.32,2.43a12.45,12.45,0,0,1-6.19,3.16,24.89,24.89,0,0,1-11.73.21A11.51,11.51,0,0,1,251.21,44.71Z"/><path class="cls-1" d="M239.91,34.72c.15.44.53,1,.42,1.32-1.22,4-2.53,7.91-3.84,12-.59.06-1.1.15-1.62.16l-29.16.23c-1.37,0-1.37,0-2-1.27,1.13,0,2.18-.08,3.23-.09l26.75-.13c1.82,0,1.85,0,2.43-1.8.9-2.79,1.76-5.59,2.65-8.39.21-.65.46-1.28.68-1.93Z"/><path class="cls-1" d="M131.78,47.52c9.85-.62,19.62-.1,29.53-.42,1.32-3.89,2.63-7.75,3.95-11.61.85.29.88.75.69,1.34q-1.77,5.4-3.51,10.81a1.26,1.26,0,0,1-1.42,1H133.45C132.73,48.65,132,48.66,131.78,47.52Z"/><path class="cls-1" d="M91.83,47.18H99.2l22.59,0c2.33,0,1.93,0,2.54-1.86,1-2.88,1.83-5.8,2.75-8.7.17-.55.39-1.08.6-1.67,1.11.37,1,1.05.73,1.81-.88,2.75-1.76,5.49-2.63,8.24-.36,1.11-.7,2.22-1.08,3.42-3.26,0-6.41,0-9.55,0q-10.5.09-21,.23C93.21,48.61,92.32,48.59,91.83,47.18Z"/><path class="cls-1" d="M166.91,47.22h1.58l26-.06c2.06,0,1.87.16,2.58-1.85,1-2.77,1.87-5.56,2.8-8.34l.54-1.58c.88.3.72.85.54,1.42l-2,6.57c-.51,1.62-1,3.23-1.6,5H168.73C168,48.42,167.07,48.56,166.91,47.22Z"/><path class="cls-1" d="M289.46,47.1a26.25,26.25,0,0,1,4.76-.18c1.55,0,3.1,0,4.65,0h4.95a6,6,0,0,0-.38-1,10.17,10.17,0,0,1-1.72-5.75c-.05-3.19.12-6.39.2-9.55,3.28-.53,4.87-.22,6.19,1.35l-4.83-.26a28.52,28.52,0,0,0-.39,5.15c0,1.44.07,2.89.19,4.32a9.19,9.19,0,0,0,2.53,5.42c.34.39.69.77,1.3,1.44h-4.26c-3.9,0-7.8,0-11.7,0C290.35,48.06,289.62,48.23,289.46,47.1Z"/><path class="cls-1" d="M320.55,28.61c1.34-1.65,2.57-3.05,3.67-4.55a12.06,12.06,0,0,0,2-5.18,12,12,0,0,0-.32-5.55c-.55-1.74-1.38-3.39-2.23-5.42a5.4,5.4,0,0,1,2.25,2.35c2.65,5.07,2.45,13.22-3.08,17.7-.16.14-.29.31-.56.59l5.85,8.92a3.7,3.7,0,0,1-1.18-.3,6.14,6.14,0,0,1-1.69-1.42C323.63,33.39,322.09,31,320.55,28.61Z"/><path class="cls-1" d="M7.51,47.34c0-1.24.25-1.52,1.2-1.28,1.4.34,2.76.82,4.14,1.23a15,15,0,0,0,11.66-1,11.68,11.68,0,0,0,6.41-9.73,39.38,39.38,0,0,1,.51-4.2c.12.49.26,1,.35,1.46A12.9,12.9,0,0,1,19.23,49.09a29.39,29.39,0,0,1-8.64-1.53A4.48,4.48,0,0,0,7.51,47.34Z"/><path class="cls-1" d="M320.63,46.92c1.38,0,2.7,0,4,0a6.07,6.07,0,0,0,5.94-5.45,7.26,7.26,0,0,1,.32-1.08,4.25,4.25,0,0,1,.12,3.16,5.3,5.3,0,0,1-4,4.14A7.27,7.27,0,0,1,320.63,46.92Z"/><path class="cls-1" d="M7.94,27.32c2.62,1.08,4.94,2,7.18,3A5.36,5.36,0,0,1,18.17,34c-2.07-2.13-4.58-2.87-6.92-4A7.42,7.42,0,0,1,7.94,27.32Z"/><path class="cls-1" d="M44.42,41.64c.29,2.22-.07,4.12-1.84,5.4a4.22,4.22,0,0,1-4.74.34c1.54-.31,3.28-.29,4.3-1.61A28.47,28.47,0,0,0,44.42,41.64Z"/><path class="cls-1" d="M425.88,15.84c-9.21-1.22-13.48,6.65-11.7,13.55-2.46-3.54-1.24-8.71,1.3-11.54C417.72,15.36,422.67,13.91,425.88,15.84Z"/></svg>