<svg id="Livello_1" data-name="Livello 1" xmlns="http://www.w3.org/2000/svg" viewBox="0 0 468.82 122.73"><defs><style>.cls-1{fill:#272727;}</style></defs><path class="cls-1" d="M127.63,45.73C125.7,56.09,124,66.54,121.76,76.9c-2.32,11-4.07,21.87.61,33.66-6.94-1.51-14.18,3.17-18.46-3.19-6.85,1.44-13.17,3.65-19.57,3.93-13,.57-20.85-6-22.84-18.79C58.27,71.63,72,47,93.82,42.45,103.05,40.53,120.6,42,127.63,45.73ZM107.52,59.1c-8.65-1.67-14.54-.72-19.18,5.16C82.57,71.58,80.66,80,81,89a6.74,6.74,0,0,0,8.9,6.08c2.77-.94,6.28-3,7.23-5.4C101,79.91,104,69.83,107.52,59.1Z"/><path class="cls-1" d="M459.6,110.41c-5.75-1.3-13,3.21-17-3-7,1.44-13.34,3.68-19.75,3.86-14.59.4-24.06-9.72-23.24-24.38.87-15.64,6.47-29.25,19.67-38.54a34.31,34.31,0,0,1,13.57-5.76A69.85,69.85,0,0,1,463,44.1c2.61.71,3.25,1.84,2.72,4.66C463,63.13,460.18,77.51,458.26,92,457.5,97.74,459,103.78,459.6,110.41Zm-14-51.4c-7.88-1.68-13.91-.62-18.47,5.15-6.09,7.72-7.92,16.69-7.05,26.21.15,1.6,2.33,3.61,4.05,4.37,5.25,2.3,11.56-1.4,14.18-9.1C441.25,77.1,443.16,68.22,445.63,59Z"/><path class="cls-1" d="M313.26,42.31c-1.63,9.22-3.11,17.67-4.63,26.12-1.12,6.22-2.42,12.41-3.42,18.65-1.26,7.79-.86,15.46,3.18,23.82-8.19-2.2-16.58,2.93-23.6-4.88-5.87,5.59-13.67,5.65-21.56,5.46-11.09-.27-19.47-8.94-17.91-20,2.29-16.25,5.56-32.36,8.43-48.65h19.49c-2.48,13.92-4.88,27.28-7.22,40.65-.66,3.77-2.85,8,1.62,10.84,3.45,2.21,11.47.78,14.11-3.27a45.92,45.92,0,0,0,6.16-14.33c2.33-10,3.93-20.21,5.52-30.38.51-3.24,2-4.13,4.92-4C303.14,42.41,307.93,42.31,313.26,42.31Z"/><path class="cls-1" d="M209,35.32c-12.55-3.8-15.61-2.57-18.53,7.29h13.48a5.68,5.68,0,0,1,.33,1.62c-.72,4.59,0,10.51-2.67,13.33-2.21,2.37-8.3,1.12-12.66,1.5a9.06,9.06,0,0,0-1.63.51c-2.71,15.65-5.57,31.32-8,47.06-.5,3.16-1.46,4.34-4.6,4.25-5.12-.16-10.25,0-16.28,0l9.05-51.72h-8.56c.74-5.31,1.23-10.19,2.26-15,.19-.84,2.74-1.87,4-1.66,4.62.76,5.95-2,7.2-5.54,4.17-12,12.7-18.84,25.24-20.3a31.51,31.51,0,0,1,10.28.95c3.75.83,5.51,3,3.83,7.26C210.43,28.07,209.92,31.56,209,35.32Z"/><path class="cls-1" d="M393.71,22.55C392,29.78,390.53,36,389,42.58h17.52c-1,4.85-1.83,9.41-3.11,13.84-.31,1.09-2.12,2.32-3.37,2.47a37.39,37.39,0,0,1-9,0c-4.32-.53-6.14,1.11-6.89,5.39-1.33,7.69-3.45,15.24-4.84,22.92-1.21,6.7,1.5,8.93,8.18,7.16,3-.79,5.9-1.87,9.25-3,0,5.39.11,10.19-.09,15,0,1-1.11,2.84-1.83,2.89-7.87.63-16,2.25-23.61,1.07-9-1.39-13.7-11-11.78-20.57,2-10.09,4.23-20.14,6.43-30.55l-6.67-.39c1.09-5.38,2.12-10.52,3.23-16,1.47-.11,3,.08,4.34-.44s3.12-1.7,3.13-2.63c.12-8.43,5.42-11.53,12.59-13.26C386,25.69,389.31,24.14,393.71,22.55Z"/><path class="cls-1" d="M350,110.12c-7.76.38-15.57,1.71-23.17.91-10.3-1.08-15.88-11.33-13.45-22.86,2-9.58,4.3-19.12,6.52-28.94l-7-.38c1-5.13,1.55-10.13,3.29-14.66.57-1.48,4.37-1.72,7.41-2.77a7.59,7.59,0,0,0,.54-2.37c-.09-7.24,4-10.53,10.58-12,4-.92,7.81-2.66,12.57-4.33l-4.12,19.7H360.2l-3.38,16.36h-17.6c-2.27,10.64-4.7,20.93-6.56,31.33-.67,3.73,3.12,5.81,7.92,4.61,3.17-.79,6.22-2.06,9.75-3.26,0,4.85,0,9.14,0,13.43C350.31,106.16,350.16,107.47,350,110.12Z"/><path class="cls-1" d="M160.63,16.2c-3.1,15.14-6.11,29.6-9,44.09-2,9.95-4,19.9-5.67,29.91-1.47,8.75-.54,9.87,7.76,11.27-2.34,8-10.7,11.1-17.81,8.82a13.7,13.7,0,0,1-9.39-15.57c4.57-24.84,9.4-49.64,14-74.48.57-3.1,1.8-4.22,4.9-4.1C150.32,16.34,155.26,16.2,160.63,16.2Z"/><path class="cls-1" d="M196.8,110.39c1.72-9.65,3.34-18.92,5-28.17,2.21-11.92,4.6-23.79,6.68-35.73.53-3,1.74-4.31,4.81-4.16,4.15.21,8.32.06,12.46.36,1.12.08,2.16,1.22,3.69,2.15,6.47-3.73,14-4.05,22.41-2.14C249.79,48.93,247.74,55,245.7,61,233,56.55,225,61.27,222.38,74.85c-2,10.28-3.84,20.58-5.51,30.91-.53,3.32-1.49,5-5.28,4.72C207,110.11,202.32,110.39,196.8,110.39Z"/><path class="cls-1" d="M2.23,17.51H24.62L34.67,75.14,69.14,5.05h24S42.94,101.34,38.61,109.1c-5.34,9.29-16.79,9.67-16.79,9.67Z"/></svg>