<?xml version="1.0" encoding="utf-8"?>
<!-- Generator: Adobe Illustrator 26.0.0, SVG Export Plug-In . SVG Version: 6.00 Build 0)  -->
<svg version="1.1" id="Livello_1" xmlns:serif="http://www.serif.com/"
	 xmlns="http://www.w3.org/2000/svg" xmlns:xlink="http://www.w3.org/1999/xlink" x="0px" y="0px" viewBox="0 0 595.3 595.3"
	 style="enable-background:new 0 0 595.3 595.3;" xml:space="preserve">
<style type="text/css">
	.st0{fill:#3E5F67;}
	.st1{fill:#D5D5D5;}
</style>
<polygon class="st0" points="89.2,53.5 171.6,32.9 487.9,32.9 559.1,116.5 569.3,455.4 515,547.9 188.7,563.9 89.2,538.8 45,470.5 
	29,173.7 64.1,79.7 "/>
<path class="st1" d="M297.6,0c-80.8,0-91,0.3-122.7,1.8c-31.7,1.4-53.3,6.5-72.2,13.8C83.1,23.2,66.5,33.4,50,50
	c-16.5,16.5-26.7,33.1-34.3,52.7c-7.4,18.9-12.4,40.6-13.8,72.2C0.3,206.7,0,216.8,0,297.6s0.3,91,1.8,122.7
	c1.4,31.7,6.5,53.3,13.8,72.2c7.6,19.6,17.8,36.2,34.3,52.7s33.1,26.7,52.7,34.3c18.9,7.4,40.6,12.4,72.2,13.8
	c31.7,1.4,41.9,1.8,122.7,1.8s91-0.3,122.7-1.8c31.7-1.4,53.3-6.5,72.2-13.8c19.6-7.6,36.2-17.8,52.7-34.3s26.7-33.1,34.3-52.7
	c7.4-18.9,12.4-40.6,13.8-72.2c1.4-31.7,1.8-41.9,1.8-122.7s-0.3-91-1.8-122.7c-1.4-31.7-6.5-53.3-13.8-72.2
	C572,83.1,561.9,66.5,545.3,50c-16.5-16.5-33.1-26.7-52.7-34.3C473.7,8.3,452,3.2,420.4,1.8C388.6,0.3,378.5,0,297.6,0L297.6,0z
	 M297.4,44c82.9,0,92.7,0.3,125.4,1.8c30.2,1.4,46.7,6.5,57.6,10.6c14.5,5.6,24.8,12.3,35.7,23.2c10.8,10.8,17.6,21.2,23.2,35.7
	c4.3,10.9,9.3,27.3,10.6,57.6c1.5,32.7,1.8,42.5,1.8,125.4s-0.3,92.7-1.8,125.4c-1.4,30.2-6.5,46.7-10.6,57.6
	c-5.6,14.5-12.3,24.8-23.2,35.7c-10.8,10.8-21.2,17.6-35.7,23.2c-10.9,4.3-27.3,9.3-57.6,10.6c-32.7,1.5-42.5,1.8-125.4,1.8
	s-92.7-0.3-125.4-1.8c-30.2-1.4-46.7-6.5-57.6-10.6c-14.5-5.6-24.8-12.3-35.7-23.2c-10.7-10.8-17.5-21.2-23.1-35.7
	c-4.3-10.9-9.3-27.3-10.6-57.6c-1.5-32.7-1.8-42.5-1.8-125.4S43.5,205.7,45,173c1.4-30.2,6.5-46.7,10.6-57.6
	c5.6-14.5,12.3-24.8,23.2-35.7c10.8-10.8,21.2-17.6,35.7-23.2c10.9-4.3,27.3-9.3,57.6-10.6C204.9,44.3,214.7,44,297.4,44z"/>
<path class="st1" d="M297.6,396.8c-54.8,0-99.2-44.4-99.2-99.2s44.4-99.2,99.2-99.2s99.2,44.4,99.2,99.2S352.4,396.8,297.6,396.8z
	 M297.6,144.8c-84.4,0-152.8,68.4-152.8,152.8s68.4,152.8,152.8,152.8S450.4,382,450.4,297.6C450.5,213.2,382,144.8,297.6,144.8z"/>
<path class="st1" d="M492.2,138.8c0,19.7-16,35.7-35.7,35.7s-35.7-16-35.7-35.7s16-35.7,35.7-35.7C476.2,103,492.2,119,492.2,138.8z
	"/>
</svg>
