<svg width="27" height="30" viewBox="0 0 27 30" fill="none" xmlns="http://www.w3.org/2000/svg">
<path d="M20.26 12.6C20.26 13.4533 20.06 14.2333 19.66 14.94C19.2733 15.6333 18.68 16.1933 17.88 16.62C17.0933 17.0333 16.1267 17.24 14.98 17.24H13.04V22H9.12V7.9H14.98C16.1133 7.9 17.0733 8.1 17.86 8.5C18.66 8.9 19.26 9.45333 19.66 10.16C20.06 10.8667 20.26 11.68 20.26 12.6ZM14.6 14.12C15.7067 14.12 16.26 13.6133 16.26 12.6C16.26 11.5733 15.7067 11.06 14.6 11.06H13.04V14.12H14.6Z" fill="#56A785"/>
<circle cx="13.5" cy="14.5" r="12.5" stroke="#56A785" stroke-width="2"/>
</svg>
