<?xml version="1.0" encoding="utf-8"?>
<!-- Generator: Adobe Illustrator 26.0.0, SVG Export Plug-In . SVG Version: 6.00 Build 0)  -->
<svg version="1.1" id="Livello_1" xmlns="http://www.w3.org/2000/svg" xmlns:xlink="http://www.w3.org/1999/xlink" x="0px" y="0px"
	 viewBox="0 0 48 48" style="enable-background:new 0 0 48 48;" xml:space="preserve">
<style type="text/css">
	.st0{fill:#3E5F67;}
	.st1{fill:#FFFFFF;}
</style>
<g>
	<path class="st0" d="M35.2,48H12.8C5.7,48,0,42.3,0,35.2V12.8C0,5.7,5.7,0,12.8,0h22.5C42.3,0,48,5.7,48,12.8v22.5
		C48,42.3,42.3,48,35.2,48z"/>
</g>
<g>
	<path class="st1" d="M36.6,36.4H11.4c-1,0-1.7-0.8-1.7-1.7v-0.4c0-1,0.8-1.7,1.7-1.7h25.2c1,0,1.7,0.8,1.7,1.7v0.4
		C38.3,35.6,37.6,36.4,36.6,36.4z"/>
</g>
<g>
	<path class="st1" d="M36.6,25.9H11.4c-1,0-1.7-0.8-1.7-1.7v-0.4c0-1,0.8-1.7,1.7-1.7h25.2c1,0,1.7,0.8,1.7,1.7v0.4
		C38.3,25.1,37.6,25.9,36.6,25.9z"/>
</g>
<g>
	<path class="st1" d="M36.6,15.5H11.4c-1,0-1.7-0.8-1.7-1.7v-0.4c0-1,0.8-1.7,1.7-1.7h25.2c1,0,1.7,0.8,1.7,1.7v0.4
		C38.3,14.7,37.6,15.5,36.6,15.5z"/>
</g>
</svg>
