<?xml version="1.0" encoding="utf-8"?>
<!-- Generator: Adobe Illustrator 26.0.0, SVG Export Plug-In . SVG Version: 6.00 Build 0)  -->
<svg version="1.1" id="Livello_1" xmlns="http://www.w3.org/2000/svg" xmlns:xlink="http://www.w3.org/1999/xlink" x="0px" y="0px"
	 viewBox="0 0 135 70.1" style="enable-background:new 0 0 135 70.1;" xml:space="preserve">
<style type="text/css">
	.st0{fill:#FFFFFF;}
	.st1{fill:#377A97;}
	.st2{font-family:'LibreBaskerville-Bold';}
	.st3{font-size:5px;}
</style>
<g id="Blog">
	<g>
		<path class="st0" d="M41.1,63.6l48.9,0l2.7-27.1H42.4L41.1,63.6z"/>
	</g>
	<path class="st1" d="M71,67.3c0,0.3,0.2,0.5,0.4,0.5h51c0.9,0,11.5-3.3,11.8-20.6c0.1-7.6-5.5-12.1-6.7-12.1H76
		c-0.2,0-0.4,0.2-0.4,0.4L71,67.3z"/>
	<path class="st1" d="M11.6,28.4h48.1c0.3,0,0.4,0.2,0.4,0.5l-4.6,38.6c0,0.2-0.2,0.4-0.4,0.4H8.5c0,0,0,0,0,0
		c-0.3,0-8.4-0.8-8.4-17.7c0-18.1,10.5-21.5,11.3-21.7C11.5,28.4,11.5,28.4,11.6,28.4z"/>
	<path id="B" class="st0" d="M55.2,44.4c0-0.5-0.2-1-0.6-1.4c-0.4-0.4-0.9-0.6-1.4-0.6l-1.9,0c-1.2,0-2.5,0-3.1-0.5
		c-0.8-0.7-0.9-2-1.1-3.8c-0.4-3.4-0.7-3.6-1.2-4.7c-1.9-4.1-7.1-7.2-10.6-7.6l-9.6,0c-7.5,0-13.7,6.3-13.6,14l0.1,16.3
		c0,7.7,6.2,13.9,13.7,13.9L41.6,70c7.5,0,13.6-6.3,13.6-14C55.2,56,55.2,44.5,55.2,44.4z M25.9,37.3l7.6,0c0.7,0,1.4,0.3,1.9,0.8
		c0.5,0.5,0.8,1.2,0.8,1.9c0,0.7-0.3,1.4-0.8,1.9c-0.5,0.5-1.2,0.8-1.8,0.8l-7.6,0c-0.7,0-1.4-0.3-1.9-0.8c-0.5-0.5-0.8-1.2-0.8-1.9
		c0-0.7,0.3-1.4,0.8-1.9C24.6,37.6,25.2,37.3,25.9,37.3z M41.4,58.5L26,58.6c-0.3,0-0.7-0.1-1-0.2c-0.3-0.1-0.6-0.3-0.8-0.6
		c-0.2-0.2-0.4-0.5-0.6-0.9c-0.1-0.3-0.2-0.7-0.2-1c0-0.3,0.1-0.7,0.2-1c0.1-0.3,0.3-0.6,0.6-0.9c0.2-0.2,0.5-0.4,0.8-0.6
		c0.3-0.1,0.7-0.2,1-0.2l15.4-0.1c0.3,0,0.7,0.1,1,0.2c0.3,0.1,0.6,0.3,0.8,0.6c0.2,0.2,0.4,0.5,0.6,0.9c0.1,0.3,0.2,0.7,0.2,1
		c0,0.3-0.1,0.7-0.2,1c-0.1,0.3-0.3,0.6-0.6,0.9c-0.2,0.2-0.5,0.4-0.8,0.6C42.1,58.5,41.8,58.5,41.4,58.5z"/>
	<path id="L" class="st1" d="M61.9,62.4l-0.1-23.7l7.2,0l0.1,23.7L61.9,62.4z"/>
	<path id="O_00000011022608885316216870000004388180649719056019_" class="st0" d="M93.6,48.8c-0.9-1.4-2.1-2.4-3.6-3.2
		c-1.5-0.8-3.3-1.1-5.3-1.1c-2,0-3.7,0.4-5.3,1.2c-1.5,0.8-2.7,1.8-3.6,3.2c-0.9,1.4-1.3,2.9-1.3,4.7c0,1.8,0.5,3.3,1.3,4.7
		s2.1,2.4,3.6,3.2c1.5,0.8,3.3,1.1,5.3,1.1c2,0,3.7-0.4,5.3-1.2c1.5-0.8,2.7-1.9,3.6-3.2c0.9-1.4,1.3-2.9,1.3-4.7
		C94.9,51.7,94.5,50.1,93.6,48.8z M87.2,55.4c-0.2,0.5-0.6,0.9-1,1.2c-0.4,0.3-0.9,0.4-1.4,0.4c-0.5,0-1-0.1-1.4-0.4
		c-0.4-0.2-0.8-0.6-1-1.2c-0.3-0.5-0.4-1.2-0.4-1.9c0-0.8,0.1-1.4,0.4-1.9c0.3-0.5,0.6-0.9,1-1.2c0.4-0.3,0.9-0.4,1.4-0.4
		c0.5,0,1,0.1,1.4,0.4c0.4,0.2,0.8,0.6,1,1.2c0.3,0.5,0.4,1.1,0.4,1.9C87.6,54.2,87.5,54.9,87.2,55.4z"/>
	<path id="G" class="st0" d="M119.9,44.7l-6.9,0l0,2c-0.4-0.6-0.9-1-1.5-1.4c-1-0.6-2.2-0.9-3.7-0.9c-1.5,0-2.9,0.3-4.1,1
		c-1.3,0.7-2.3,1.7-3.1,2.9c-0.8,1.3-1.2,2.8-1.2,4.5c0,1.7,0.4,3.2,1.2,4.5c0.8,1.2,1.8,2.2,3.1,2.9c1.3,0.7,2.7,1,4.1,1
		c1.5,0,2.8-0.3,3.7-0.9c0.4-0.3,0.8-0.6,1.1-1v0.3c0,1.2-0.3,2.1-0.9,2.7c-0.6,0.6-1.7,1-3.2,1c-0.9,0-1.9-0.1-3-0.5
		c-1-0.3-1.9-0.7-2.6-1.2l-2.4,4.9c1.1,0.7,2.4,1.3,3.9,1.6c1.5,0.3,3.1,0.5,4.9,0.5c3.3,0,6-0.8,7.8-2.5c1.9-1.6,2.8-4.2,2.8-7.6
		L119.9,44.7z M111.3,55.2c-0.4,0.2-1,0.4-1.5,0.4c-0.5,0-1.1-0.1-1.5-0.3c-0.5-0.2-0.8-0.6-1.1-1c-0.3-0.4-0.4-0.9-0.4-1.5
		c0-0.6,0.1-1.1,0.4-1.5c0.3-0.4,0.6-0.8,1.1-1c0.5-0.2,1-0.4,1.5-0.4c0.6,0,1.1,0.1,1.5,0.3c0.4,0.2,0.8,0.5,1.1,1
		c0.2,0.4,0.4,0.9,0.4,1.5c0,0.6-0.1,1-0.4,1.5C112.1,54.7,111.8,55,111.3,55.2z"/>
</g>
<text transform="matrix(1 0 0 1 93.9585 33.7996)" class="st1 st2 st3">Eurokosher</text>
<g id="Logo_Base">
	<polygon class="st0" points="75.7,5.6 75.1,5.6 66.8,10.8 72.4,11.8 71.8,21.1 70.4,31.8 80.8,30.7 89.4,30.3 92.1,29.3 94.5,26.8 
		96.8,16.7 93.3,6.7 83.3,4.4 	"/>
	<path class="st1" d="M92.2,29.2C80.8,35.2,68,35.7,63.3,30c-1-1.3-1.7-2.8-1.8-4.3l0,0l-18.4,0.1c0,0-5.2-0.5-5.5-6
		c-0.6-8.2,7.8-9.6,7.8-9.6L70.1,10H74c1.7,0,1.1,1.9,1.1,1.9l-3.6,17.5H77c0,0,1.8-6.7,4.1-7.6c0,0,0,7.9,6.7,8
		C89.8,29.9,92.2,29.2,92.2,29.2"/>
	<path class="st1" d="M73.2,6.8c4,0.1,5.5-1.2,5.5-1.2h2.5l-3.2,15c6.6-7.8,12.1-8,13.1-8s3.1,0.2,3.1,1.9c0,1.7-1.8,2.2-2.8,2.2
		c-1.4,0-2.7-1-2.7-1c-1.6,0-3.4,1.8-3.4,1.8s0.3,8.8,5,8.2c0.8-0.1,1.5-0.4,2.2-0.7l1.8,2c10.9-7,15.8-17,11-22.8
		c-5-6.1-18.7-5.4-30.5,1.5C74.3,6,73.7,6.4,73.2,6.8"/>
	<path class="st0" d="M53.2,14.8c0,0,0.3-2.8-4.2-2.8c-4.5,0-8.8,2.8-8.8,7.3c0,4.5,4.4,4.8,6.3,4.6c0.9-0.1,3.5-0.2,6.1-2.9
		l-1.4-1.4c-5.1,4.2-7.6,1.7-7.1-0.8C44.1,18.9,53.2,19.2,53.2,14.8z M47.7,14c2.7-0.2,1.8,3-3.5,3C44.5,15.2,46.2,14.1,47.7,14z"/>
	<path class="st0" d="M68.8,12h-4.3c0,0-1.6,8.2-1.6,8.3c-0.1,0-1.3,1.1-2.5,0.9c-1.3-0.2-1.1-0.8-1.1-0.8l1.4-8.3l-2,0
		c-1.2,0.9-4.3,1-4.3,1l-0.3,1.8c3.9-0.1-1.1,6.1,1.3,8.3c2.3,2.2,7.4-0.4,7.6-0.5c1.1,2.5,6.3,0.6,7.1-0.5l-1.1-1.4
		c-0.4,0.3-2,0.9-1.8-0.3C67.4,19.7,68.8,12,68.8,12z"/>
</g>
</svg>
