{
    "asset" : {
        "generator" : "Khronos glTF Blender I/O v1.4.40",
        "version" : "2.0"
    },
    "scene" : 0,
    "scenes" : [
        {
            "name" : "Scene",
            "nodes" : [
                0,
                1,
                2,
                3,
                4,
                5
            ]
        }
    ],
    "nodes" : [
        {
            "mesh" : 0,
            "name" : "Vino",
            "rotation" : [
                0.7071068286895752,
                0,
                0,
                0.7071067094802856
            ]
        },
        {
            "mesh" : 1,
            "name" : "Tappo",
            "rotation" : [
                0.7071068286895752,
                0,
                0,
                0.7071067094802856
            ]
        },
        {
            "mesh" : 2,
            "name" : "Label_tappo",
            "rotation" : [
                0.7071068286895752,
                0,
                0,
                0.7071067094802856
            ]
        },
        {
            "mesh" : 3,
            "name" : "Label_fronte_inside",
            "rotation" : [
                0.7071068286895752,
                0,
                0,
                0.7071067094802856
            ]
        },
        {
            "mesh" : 4,
            "name" : "Bottiglia",
            "rotation" : [
                0.7071068286895752,
                0,
                0,
                0.7071067094802856
            ]
        },
        {
            "mesh" : 5,
            "name" : "Label_fronte_outside",
            "rotation" : [
                0.7071068286895752,
                0,
                0,
                0.7071067094802856
            ]
        }
    ],
    "materials" : [
        {
            "doubleSided" : true,
            "name" : "None",
            "pbrMetallicRoughness" : {
                "baseColorFactor" : [
                    0.800000011920929,
                    0.800000011920929,
                    0.800000011920929,
                    1
                ],
                "metallicFactor" : 0,
                "roughnessFactor" : 0.5
            }
        },
        {
            "doubleSided" : true,
            "name" : "collo",
            "pbrMetallicRoughness" : {
                "baseColorFactor" : [
                    0.800000011920929,
                    0.800000011920929,
                    0.800000011920929,
                    1
                ],
                "metallicFactor" : 0,
                "roughnessFactor" : 0.5
            }
        },
        {
            "doubleSided" : true,
            "name" : "original.001",
            "pbrMetallicRoughness" : {
                "baseColorFactor" : [
                    0.800000011920929,
                    0.800000011920929,
                    0.800000011920929,
                    1
                ],
                "metallicFactor" : 0,
                "roughnessFactor" : 0.5
            }
        },
        {
            "doubleSided" : true,
            "name" : "None.002",
            "pbrMetallicRoughness" : {
                "baseColorFactor" : [
                    0.800000011920929,
                    0.800000011920929,
                    0.800000011920929,
                    1
                ],
                "metallicFactor" : 0,
                "roughnessFactor" : 0.5
            }
        },
        {
            "doubleSided" : true,
            "name" : "original",
            "pbrMetallicRoughness" : {
                "baseColorFactor" : [
                    0.800000011920929,
                    0.800000011920929,
                    0.800000011920929,
                    1
                ],
                "metallicFactor" : 0,
                "roughnessFactor" : 0.5
            }
        }
    ],
    "meshes" : [
        {
            "name" : "Vino",
            "primitives" : [
                {
                    "attributes" : {
                        "POSITION" : 0,
                        "NORMAL" : 1,
                        "TEXCOORD_0" : 2
                    },
                    "indices" : 3,
                    "material" : 0
                }
            ]
        },
        {
            "name" : "Tappo",
            "primitives" : [
                {
                    "attributes" : {
                        "POSITION" : 4,
                        "NORMAL" : 5,
                        "TEXCOORD_0" : 6
                    },
                    "indices" : 7,
                    "material" : 0
                }
            ]
        },
        {
            "name" : "Label_tappo",
            "primitives" : [
                {
                    "attributes" : {
                        "POSITION" : 8,
                        "NORMAL" : 9,
                        "TEXCOORD_0" : 10
                    },
                    "indices" : 11,
                    "material" : 1
                }
            ]
        },
        {
            "name" : "Label_fronte_inside",
            "primitives" : [
                {
                    "attributes" : {
                        "POSITION" : 12,
                        "NORMAL" : 13,
                        "TEXCOORD_0" : 14
                    },
                    "indices" : 15,
                    "material" : 2
                }
            ]
        },
        {
            "name" : "Bottiglia",
            "primitives" : [
                {
                    "attributes" : {
                        "POSITION" : 16,
                        "NORMAL" : 17,
                        "TEXCOORD_0" : 18
                    },
                    "indices" : 3,
                    "material" : 3
                }
            ]
        },
        {
            "name" : "Label_fronte_outside",
            "primitives" : [
                {
                    "attributes" : {
                        "POSITION" : 19,
                        "NORMAL" : 20,
                        "TEXCOORD_0" : 21
                    },
                    "indices" : 22,
                    "material" : 4
                }
            ]
        }
    ],
    "accessors" : [
        {
            "bufferView" : 0,
            "componentType" : 5126,
            "count" : 4418,
            "max" : [
                0.522711992263794,
                0.5227130055427551,
                -0.01953599974513054
            ],
            "min" : [
                -0.522711992263794,
                -0.522711992263794,
                -4.6724748611450195
            ],
            "type" : "VEC3"
        },
        {
            "bufferView" : 1,
            "componentType" : 5126,
            "count" : 4418,
            "type" : "VEC3"
        },
        {
            "bufferView" : 2,
            "componentType" : 5126,
            "count" : 4418,
            "type" : "VEC2"
        },
        {
            "bufferView" : 3,
            "componentType" : 5123,
            "count" : 26496,
            "type" : "SCALAR"
        },
        {
            "bufferView" : 4,
            "componentType" : 5126,
            "count" : 768,
            "max" : [
                0.20741599798202515,
                0.20741599798202515,
                -3.7257840633392334
            ],
            "min" : [
                -0.20741499960422516,
                -0.20741499960422516,
                -4.711503982543945
            ],
            "type" : "VEC3"
        },
        {
            "bufferView" : 5,
            "componentType" : 5126,
            "count" : 768,
            "type" : "VEC3"
        },
        {
            "bufferView" : 6,
            "componentType" : 5126,
            "count" : 768,
            "type" : "VEC2"
        },
        {
            "bufferView" : 7,
            "componentType" : 5123,
            "count" : 4410,
            "type" : "SCALAR"
        },
        {
            "bufferView" : 8,
            "componentType" : 5126,
            "count" : 352,
            "max" : [
                0.19815200567245483,
                0.1977979987859726,
                -3.711258888244629
            ],
            "min" : [
                -0.19924399256706238,
                -0.19969600439071655,
                -3.897336006164551
            ],
            "type" : "VEC3"
        },
        {
            "bufferView" : 9,
            "componentType" : 5126,
            "count" : 352,
            "type" : "VEC3"
        },
        {
            "bufferView" : 10,
            "componentType" : 5126,
            "count" : 352,
            "type" : "VEC2"
        },
        {
            "bufferView" : 11,
            "componentType" : 5123,
            "count" : 528,
            "type" : "SCALAR"
        },
        {
            "bufferView" : 12,
            "componentType" : 5126,
            "count" : 164,
            "max" : [
                0.4320499897003174,
                0.5174819827079773,
                -0.4861609935760498
            ],
            "min" : [
                -0.4620159864425659,
                0.24151700735092163,
                -2.4296019077301025
            ],
            "type" : "VEC3"
        },
        {
            "bufferView" : 13,
            "componentType" : 5126,
            "count" : 164,
            "type" : "VEC3"
        },
        {
            "bufferView" : 14,
            "componentType" : 5126,
            "count" : 164,
            "type" : "VEC2"
        },
        {
            "bufferView" : 15,
            "componentType" : 5123,
            "count" : 246,
            "type" : "SCALAR"
        },
        {
            "bufferView" : 16,
            "componentType" : 5126,
            "count" : 4418,
            "max" : [
                0.5303320288658142,
                0.5303320288658142,
                -0.006606000009924173
            ],
            "min" : [
                -0.5303320288658142,
                -0.5303320288658142,
                -4.708788871765137
            ],
            "type" : "VEC3"
        },
        {
            "bufferView" : 17,
            "componentType" : 5126,
            "count" : 4418,
            "type" : "VEC3"
        },
        {
            "bufferView" : 18,
            "componentType" : 5126,
            "count" : 4418,
            "type" : "VEC2"
        },
        {
            "bufferView" : 19,
            "componentType" : 5126,
            "count" : 388,
            "max" : [
                0.4259690046310425,
                0.5319229960441589,
                -0.5025209784507751
            ],
            "min" : [
                -0.44888800382614136,
                0.28734299540519714,
                -2.4335360527038574
            ],
            "type" : "VEC3"
        },
        {
            "bufferView" : 20,
            "componentType" : 5126,
            "count" : 388,
            "type" : "VEC3"
        },
        {
            "bufferView" : 21,
            "componentType" : 5126,
            "count" : 388,
            "type" : "VEC2"
        },
        {
            "bufferView" : 22,
            "componentType" : 5123,
            "count" : 582,
            "type" : "SCALAR"
        }
    ],
    "bufferViews" : [
        {
            "buffer" : 0,
            "byteLength" : 53016,
            "byteOffset" : 0
        },
        {
            "buffer" : 0,
            "byteLength" : 53016,
            "byteOffset" : 53016
        },
        {
            "buffer" : 0,
            "byteLength" : 35344,
            "byteOffset" : 106032
        },
        {
            "buffer" : 0,
            "byteLength" : 52992,
            "byteOffset" : 141376
        },
        {
            "buffer" : 0,
            "byteLength" : 9216,
            "byteOffset" : 194368
        },
        {
            "buffer" : 0,
            "byteLength" : 9216,
            "byteOffset" : 203584
        },
        {
            "buffer" : 0,
            "byteLength" : 6144,
            "byteOffset" : 212800
        },
        {
            "buffer" : 0,
            "byteLength" : 8820,
            "byteOffset" : 218944
        },
        {
            "buffer" : 0,
            "byteLength" : 4224,
            "byteOffset" : 227764
        },
        {
            "buffer" : 0,
            "byteLength" : 4224,
            "byteOffset" : 231988
        },
        {
            "buffer" : 0,
            "byteLength" : 2816,
            "byteOffset" : 236212
        },
        {
            "buffer" : 0,
            "byteLength" : 1056,
            "byteOffset" : 239028
        },
        {
            "buffer" : 0,
            "byteLength" : 1968,
            "byteOffset" : 240084
        },
        {
            "buffer" : 0,
            "byteLength" : 1968,
            "byteOffset" : 242052
        },
        {
            "buffer" : 0,
            "byteLength" : 1312,
            "byteOffset" : 244020
        },
        {
            "buffer" : 0,
            "byteLength" : 492,
            "byteOffset" : 245332
        },
        {
            "buffer" : 0,
            "byteLength" : 53016,
            "byteOffset" : 245824
        },
        {
            "buffer" : 0,
            "byteLength" : 53016,
            "byteOffset" : 298840
        },
        {
            "buffer" : 0,
            "byteLength" : 35344,
            "byteOffset" : 351856
        },
        {
            "buffer" : 0,
            "byteLength" : 4656,
            "byteOffset" : 387200
        },
        {
            "buffer" : 0,
            "byteLength" : 4656,
            "byteOffset" : 391856
        },
        {
            "buffer" : 0,
            "byteLength" : 3104,
            "byteOffset" : 396512
        },
        {
            "buffer" : 0,
            "byteLength" : 1164,
            "byteOffset" : 399616
        }
    ],
    "buffers" : [
        {
            "byteLength" : 400780,
            "uri" : "data:application/octet-stream;base64,"
        }
    ]
}
