{
    "asset" : {
        "generator" : "Khronos glTF Blender I/O v1.4.40",
        "version" : "2.0"
    },
    "scene" : 0,
    "scenes" : [
        {
            "name" : "Scene",
            "nodes" : [
                0,
                1,
                2,
                3,
                4,
                5
            ]
        }
    ],
    "nodes" : [
        {
            "mesh" : 0,
            "name" : "Vino",
            "rotation" : [
                0.7071068286895752,
                0,
                0,
                0.7071067094802856
            ]
        },
        {
            "mesh" : 1,
            "name" : "Tappo",
            "rotation" : [
                0.7071068286895752,
                0,
                0,
                0.7071067094802856
            ],
            "scale" : [
                1.0141280889511108,
                1.0141280889511108,
                1
            ],
            "translation" : [
                0,
                4.463589191436768,
                0
            ]
        },
        {
            "mesh" : 2,
            "name" : "Label_tappo",
            "rotation" : [
                0.7071068286895752,
                0,
                0,
                0.7071067094802856
            ],
            "scale" : [
                1.0212923288345337,
                1.0212923288345337,
                1.0212923288345337
            ],
            "translation" : [
                -0.0018590664258226752,
                3.8043019771575928,
                -0.002544393762946129
            ]
        },
        {
            "mesh" : 3,
            "name" : "Label_fronte_inside",
            "rotation" : [
                0.7071068286895752,
                0,
                0,
                0.7071067094802856
            ]
        },
        {
            "mesh" : 4,
            "name" : "Bottiglia",
            "rotation" : [
                0.7071068286895752,
                0,
                0,
                0.7071067094802856
            ],
            "translation" : [
                0,
                2.1813101768493652,
                0
            ]
        },
        {
            "mesh" : 5,
            "name" : "Label_fronte_outside",
            "rotation" : [
                0.7071068286895752,
                0,
                0,
                0.7071067094802856
            ]
        }
    ],
    "materials" : [
        {
            "doubleSided" : true,
            "name" : "None.001",
            "pbrMetallicRoughness" : {
                "baseColorFactor" : [
                    0.800000011920929,
                    0.800000011920929,
                    0.800000011920929,
                    1
                ],
                "metallicFactor" : 0,
                "roughnessFactor" : 0.5
            }
        },
        {
            "doubleSided" : true,
            "name" : "collo.001",
            "pbrMetallicRoughness" : {
                "baseColorFactor" : [
                    0.800000011920929,
                    0.800000011920929,
                    0.800000011920929,
                    1
                ],
                "metallicFactor" : 0,
                "roughnessFactor" : 0.5
            }
        },
        {
            "doubleSided" : true,
            "name" : "original.002",
            "pbrMetallicRoughness" : {
                "baseColorFactor" : [
                    0.800000011920929,
                    0.800000011920929,
                    0.800000011920929,
                    1
                ],
                "metallicFactor" : 0,
                "roughnessFactor" : 0.5
            }
        },
        {
            "doubleSided" : true,
            "name" : "None.003",
            "pbrMetallicRoughness" : {
                "baseColorFactor" : [
                    0.800000011920929,
                    0.800000011920929,
                    0.800000011920929,
                    1
                ],
                "metallicFactor" : 0,
                "roughnessFactor" : 0.5
            }
        },
        {
            "doubleSided" : true,
            "name" : "original.003",
            "pbrMetallicRoughness" : {
                "baseColorFactor" : [
                    0.800000011920929,
                    0.800000011920929,
                    0.800000011920929,
                    1
                ],
                "metallicFactor" : 0,
                "roughnessFactor" : 0.5
            }
        }
    ],
    "meshes" : [
        {
            "name" : "Vino.001",
            "primitives" : [
                {
                    "attributes" : {
                        "POSITION" : 0,
                        "NORMAL" : 1,
                        "TEXCOORD_0" : 2
                    },
                    "indices" : 3,
                    "material" : 0
                }
            ]
        },
        {
            "name" : "Tappo.001",
            "primitives" : [
                {
                    "attributes" : {
                        "POSITION" : 4,
                        "NORMAL" : 5,
                        "TEXCOORD_0" : 6
                    },
                    "indices" : 7,
                    "material" : 0
                }
            ]
        },
        {
            "name" : "Label_tappo.001",
            "primitives" : [
                {
                    "attributes" : {
                        "POSITION" : 8,
                        "NORMAL" : 9,
                        "TEXCOORD_0" : 10
                    },
                    "indices" : 11,
                    "material" : 1
                }
            ]
        },
        {
            "name" : "Label_fronte_inside.001",
            "primitives" : [
                {
                    "attributes" : {
                        "POSITION" : 12,
                        "NORMAL" : 13,
                        "TEXCOORD_0" : 14
                    },
                    "indices" : 15,
                    "material" : 2
                }
            ]
        },
        {
            "name" : "Bottiglia.001",
            "primitives" : [
                {
                    "attributes" : {
                        "POSITION" : 16,
                        "NORMAL" : 17,
                        "TEXCOORD_0" : 18
                    },
                    "indices" : 3,
                    "material" : 3
                }
            ]
        },
        {
            "name" : "Label_fronte_outside.001",
            "primitives" : [
                {
                    "attributes" : {
                        "POSITION" : 19,
                        "NORMAL" : 20,
                        "TEXCOORD_0" : 21
                    },
                    "indices" : 22,
                    "material" : 4
                }
            ]
        }
    ],
    "accessors" : [
        {
            "bufferView" : 0,
            "componentType" : 5126,
            "count" : 4418,
            "max" : [
                0.522711992263794,
                0.5227130055427551,
                -0.01953599974513054
            ],
            "min" : [
                -0.522711992263794,
                -0.522711992263794,
                -4.6724748611450195
            ],
            "type" : "VEC3"
        },
        {
            "bufferView" : 1,
            "componentType" : 5126,
            "count" : 4418,
            "type" : "VEC3"
        },
        {
            "bufferView" : 2,
            "componentType" : 5126,
            "count" : 4418,
            "type" : "VEC2"
        },
        {
            "bufferView" : 3,
            "componentType" : 5123,
            "count" : 26496,
            "type" : "SCALAR"
        },
        {
            "bufferView" : 4,
            "componentType" : 5126,
            "count" : 768,
            "max" : [
                0.2074156552553177,
                0.2074151486158371,
                0.7378056049346924
            ],
            "min" : [
                -0.20741534233093262,
                -0.2074158489704132,
                -0.24791431427001953
            ],
            "type" : "VEC3"
        },
        {
            "bufferView" : 5,
            "componentType" : 5126,
            "count" : 768,
            "type" : "VEC3"
        },
        {
            "bufferView" : 6,
            "componentType" : 5126,
            "count" : 768,
            "type" : "VEC2"
        },
        {
            "bufferView" : 7,
            "componentType" : 5123,
            "count" : 4410,
            "type" : "SCALAR"
        },
        {
            "bufferView" : 8,
            "componentType" : 5126,
            "count" : 352,
            "max" : [
                0.20001107454299927,
                0.20034290850162506,
                0.09304332733154297
            ],
            "min" : [
                -0.19738492369651794,
                -0.1971510946750641,
                -0.0930337905883789
            ],
            "type" : "VEC3"
        },
        {
            "bufferView" : 9,
            "componentType" : 5126,
            "count" : 352,
            "type" : "VEC3"
        },
        {
            "bufferView" : 10,
            "componentType" : 5126,
            "count" : 352,
            "type" : "VEC2"
        },
        {
            "bufferView" : 11,
            "componentType" : 5123,
            "count" : 528,
            "type" : "SCALAR"
        },
        {
            "bufferView" : 12,
            "componentType" : 5126,
            "count" : 244,
            "max" : [
                0.4320499897003174,
                0.5174819827079773,
                -0.4861609935760498
            ],
            "min" : [
                -0.4620159864425659,
                0.24151700735092163,
                -2.4296019077301025
            ],
            "type" : "VEC3"
        },
        {
            "bufferView" : 13,
            "componentType" : 5126,
            "count" : 244,
            "type" : "VEC3"
        },
        {
            "bufferView" : 14,
            "componentType" : 5126,
            "count" : 244,
            "type" : "VEC2"
        },
        {
            "bufferView" : 15,
            "componentType" : 5123,
            "count" : 246,
            "type" : "SCALAR"
        },
        {
            "bufferView" : 16,
            "componentType" : 5126,
            "count" : 4418,
            "max" : [
                0.5303319692611694,
                0.5303316116333008,
                2.1747043132781982
            ],
            "min" : [
                -0.530332088470459,
                -0.5303324460983276,
                -2.5274784564971924
            ],
            "type" : "VEC3"
        },
        {
            "bufferView" : 17,
            "componentType" : 5126,
            "count" : 4418,
            "type" : "VEC3"
        },
        {
            "bufferView" : 18,
            "componentType" : 5126,
            "count" : 4418,
            "type" : "VEC2"
        },
        {
            "bufferView" : 19,
            "componentType" : 5126,
            "count" : 388,
            "max" : [
                0.4259690046310425,
                0.5319229960441589,
                -0.5025209784507751
            ],
            "min" : [
                -0.44888800382614136,
                0.28734299540519714,
                -2.4335360527038574
            ],
            "type" : "VEC3"
        },
        {
            "bufferView" : 20,
            "componentType" : 5126,
            "count" : 388,
            "type" : "VEC3"
        },
        {
            "bufferView" : 21,
            "componentType" : 5126,
            "count" : 388,
            "type" : "VEC2"
        },
        {
            "bufferView" : 22,
            "componentType" : 5123,
            "count" : 582,
            "type" : "SCALAR"
        }
    ],
    "bufferViews" : [
        {
            "buffer" : 0,
            "byteLength" : 53016,
            "byteOffset" : 0
        },
        {
            "buffer" : 0,
            "byteLength" : 53016,
            "byteOffset" : 53016
        },
        {
            "buffer" : 0,
            "byteLength" : 35344,
            "byteOffset" : 106032
        },
        {
            "buffer" : 0,
            "byteLength" : 52992,
            "byteOffset" : 141376
        },
        {
            "buffer" : 0,
            "byteLength" : 9216,
            "byteOffset" : 194368
        },
        {
            "buffer" : 0,
            "byteLength" : 9216,
            "byteOffset" : 203584
        },
        {
            "buffer" : 0,
            "byteLength" : 6144,
            "byteOffset" : 212800
        },
        {
            "buffer" : 0,
            "byteLength" : 8820,
            "byteOffset" : 218944
        },
        {
            "buffer" : 0,
            "byteLength" : 4224,
            "byteOffset" : 227764
        },
        {
            "buffer" : 0,
            "byteLength" : 4224,
            "byteOffset" : 231988
        },
        {
            "buffer" : 0,
            "byteLength" : 2816,
            "byteOffset" : 236212
        },
        {
            "buffer" : 0,
            "byteLength" : 1056,
            "byteOffset" : 239028
        },
        {
            "buffer" : 0,
            "byteLength" : 2928,
            "byteOffset" : 240084
        },
        {
            "buffer" : 0,
            "byteLength" : 2928,
            "byteOffset" : 243012
        },
        {
            "buffer" : 0,
            "byteLength" : 1952,
            "byteOffset" : 245940
        },
        {
            "buffer" : 0,
            "byteLength" : 492,
            "byteOffset" : 247892
        },
        {
            "buffer" : 0,
            "byteLength" : 53016,
            "byteOffset" : 248384
        },
        {
            "buffer" : 0,
            "byteLength" : 53016,
            "byteOffset" : 301400
        },
        {
            "buffer" : 0,
            "byteLength" : 35344,
            "byteOffset" : 354416
        },
        {
            "buffer" : 0,
            "byteLength" : 4656,
            "byteOffset" : 389760
        },
        {
            "buffer" : 0,
            "byteLength" : 4656,
            "byteOffset" : 394416
        },
        {
            "buffer" : 0,
            "byteLength" : 3104,
            "byteOffset" : 399072
        },
        {
            "buffer" : 0,
            "byteLength" : 1164,
            "byteOffset" : 402176
        }
    ],
    "buffers" : [
        {
            "byteLength" : 403340,
            "uri" : "data:application/octet-stream;base64,"
        }
    ]
}
