{
    "asset" : {
        "generator" : "Khronos glTF Blender I/O v1.4.40",
        "version" : "2.0"
    },
    "scene" : 0,
    "scenes" : [
        {
            "name" : "Scene",
            "nodes" : [
                0,
                1,
                2,
                3
            ]
        }
    ],
    "nodes" : [
        {
            "mesh" : 0,
            "name" : "sugo",
            "scale" : [
                0.4722372889518738,
                0.4722372889518738,
                0.4722372889518738
            ],
            "translation" : [
                0,
                -1.6853747367858887,
                0
            ]
        },
        {
            "mesh" : 1,
            "name" : "etichetta",
            "rotation" : [
                0.06941623240709305,
                -0.7036911845207214,
                0.7036912441253662,
                0.06941679120063782
            ],
            "scale" : [
                1.1678470373153687,
                1.1678470373153687,
                1.167846918106079
            ]
        },
        {
            "mesh" : 2,
            "name" : "tappo.001",
            "scale" : [
                0.39328986406326294,
                0.39328986406326294,
                0.39328986406326294
            ],
            "translation" : [
                0,
                1.62544584274292,
                0
            ]
        },
        {
            "mesh" : 3,
            "name" : "bottiglia",
            "scale" : [
                0.4722372889518738,
                0.4722372889518738,
                0.4722372889518738
            ],
            "translation" : [
                0,
                -1.6853747367858887,
                0
            ]
        }
    ],
    "materials" : [
        {
            "doubleSided" : true,
            "name" : "Material.003",
            "pbrMetallicRoughness" : {
                "baseColorTexture" : {
                    "index" : 0,
                    "texCoord" : 0
                },
                "metallicFactor" : 0,
                "roughnessFactor" : 0.5
            }
        },
        {
            "alphaMode" : "BLEND",
            "doubleSided" : true,
            "name" : "ETICHETTA PASSATA DI POMODORO GR. 500.002",
            "pbrMetallicRoughness" : {
                "baseColorTexture" : {
                    "index" : 1,
                    "texCoord" : 0
                },
                "metallicFactor" : 0,
                "roughnessFactor" : 0.5
            }
        }
    ],
    "meshes" : [
        {
            "name" : "Circle.008",
            "primitives" : [
                {
                    "attributes" : {
                        "POSITION" : 0,
                        "NORMAL" : 1,
                        "TEXCOORD_0" : 2
                    },
                    "indices" : 3,
                    "material" : 0
                }
            ]
        },
        {
            "name" : "ETICHETTA PASSATA DI POMODORO GR. 500.002",
            "primitives" : [
                {
                    "attributes" : {
                        "POSITION" : 4,
                        "NORMAL" : 5,
                        "TEXCOORD_0" : 6
                    },
                    "indices" : 7,
                    "material" : 1
                }
            ]
        },
        {
            "name" : "Circle.007",
            "primitives" : [
                {
                    "attributes" : {
                        "POSITION" : 8,
                        "NORMAL" : 9,
                        "TEXCOORD_0" : 10
                    },
                    "indices" : 11
                }
            ]
        },
        {
            "name" : "Circle.009",
            "primitives" : [
                {
                    "attributes" : {
                        "POSITION" : 12,
                        "NORMAL" : 13,
                        "TEXCOORD_0" : 14
                    },
                    "indices" : 15
                }
            ]
        }
    ],
    "textures" : [
        {
            "sampler" : 0,
            "source" : 0
        },
        {
            "sampler" : 0,
            "source" : 1
        }
    ],
    "images" : [
        {
            "bufferView" : 4,
            "mimeType" : "image/jpeg",
            "name" : "tomato"
        },
        {
            "bufferView" : 9,
            "mimeType" : "image/png",
            "name" : "ETICHETTA PASSATA DI POMODORO GR. 500"
        }
    ],
    "accessors" : [
        {
            "bufferView" : 0,
            "componentType" : 5126,
            "count" : 1545,
            "max" : [
                1.3336548805236816,
                6.786675930023193,
                1.3336548805236816
            ],
            "min" : [
                -1.3336549997329712,
                0,
                -1.3336548805236816
            ],
            "type" : "VEC3"
        },
        {
            "bufferView" : 1,
            "componentType" : 5126,
            "count" : 1545,
            "type" : "VEC3"
        },
        {
            "bufferView" : 2,
            "componentType" : 5126,
            "count" : 1545,
            "type" : "VEC2"
        },
        {
            "bufferView" : 3,
            "componentType" : 5123,
            "count" : 8256,
            "type" : "SCALAR"
        },
        {
            "bufferView" : 5,
            "componentType" : 5126,
            "count" : 90,
            "max" : [
                0.5406401753425598,
                0.4264858067035675,
                1.0831677913665771
            ],
            "min" : [
                -0.5404688715934753,
                -0.539167046546936,
                0.08316653966903687
            ],
            "type" : "VEC3"
        },
        {
            "bufferView" : 6,
            "componentType" : 5126,
            "count" : 90,
            "type" : "VEC3"
        },
        {
            "bufferView" : 7,
            "componentType" : 5126,
            "count" : 90,
            "type" : "VEC2"
        },
        {
            "bufferView" : 8,
            "componentType" : 5123,
            "count" : 264,
            "type" : "SCALAR"
        },
        {
            "bufferView" : 10,
            "componentType" : 5126,
            "count" : 448,
            "max" : [
                1,
                0.3386582136154175,
                1
            ],
            "min" : [
                -1,
                0,
                -1
            ],
            "type" : "VEC3"
        },
        {
            "bufferView" : 11,
            "componentType" : 5126,
            "count" : 448,
            "type" : "VEC3"
        },
        {
            "bufferView" : 12,
            "componentType" : 5126,
            "count" : 448,
            "type" : "VEC2"
        },
        {
            "bufferView" : 13,
            "componentType" : 5123,
            "count" : 2676,
            "type" : "SCALAR"
        },
        {
            "bufferView" : 14,
            "componentType" : 5126,
            "count" : 577,
            "max" : [
                0.7813411951065063,
                7.045531749725342,
                0.7813403606414795
            ],
            "min" : [
                -0.7813398241996765,
                6.786675930023193,
                -0.7813407182693481
            ],
            "type" : "VEC3"
        },
        {
            "bufferView" : 15,
            "componentType" : 5126,
            "count" : 577,
            "type" : "VEC3"
        },
        {
            "bufferView" : 16,
            "componentType" : 5126,
            "count" : 577,
            "type" : "VEC2"
        },
        {
            "bufferView" : 17,
            "componentType" : 5123,
            "count" : 3264,
            "type" : "SCALAR"
        }
    ],
    "bufferViews" : [
        {
            "buffer" : 0,
            "byteLength" : 18540,
            "byteOffset" : 0
        },
        {
            "buffer" : 0,
            "byteLength" : 18540,
            "byteOffset" : 18540
        },
        {
            "buffer" : 0,
            "byteLength" : 12360,
            "byteOffset" : 37080
        },
        {
            "buffer" : 0,
            "byteLength" : 16512,
            "byteOffset" : 49440
        },
        {
            "buffer" : 0,
            "byteLength" : 1342221,
            "byteOffset" : 65952
        },
        {
            "buffer" : 0,
            "byteLength" : 1080,
            "byteOffset" : 1408176
        },
        {
            "buffer" : 0,
            "byteLength" : 1080,
            "byteOffset" : 1409256
        },
        {
            "buffer" : 0,
            "byteLength" : 720,
            "byteOffset" : 1410336
        },
        {
            "buffer" : 0,
            "byteLength" : 528,
            "byteOffset" : 1411056
        },
        {
            "buffer" : 0,
            "byteLength" : 1005577,
            "byteOffset" : 1411584
        },
        {
            "buffer" : 0,
            "byteLength" : 5376,
            "byteOffset" : 2417164
        },
        {
            "buffer" : 0,
            "byteLength" : 5376,
            "byteOffset" : 2422540
        },
        {
            "buffer" : 0,
            "byteLength" : 3584,
            "byteOffset" : 2427916
        },
        {
            "buffer" : 0,
            "byteLength" : 5352,
            "byteOffset" : 2431500
        },
        {
            "buffer" : 0,
            "byteLength" : 6924,
            "byteOffset" : 2436852
        },
        {
            "buffer" : 0,
            "byteLength" : 6924,
            "byteOffset" : 2443776
        },
        {
            "buffer" : 0,
            "byteLength" : 4616,
            "byteOffset" : 2450700
        },
        {
            "buffer" : 0,
            "byteLength" : 6528,
            "byteOffset" : 2455316
        }
    ],
    "samplers" : [
        {
            "magFilter" : 9729,
            "minFilter" : 9986
        }
    ],
    "buffers" : [
        {
            "byteLength" : 2461844,
            "uri" : "data:application/octet-stream;base64,"
        }
    ]
}
