<?xml version="1.0" encoding="utf-8"?>
<!-- Generator: Adobe Illustrator 26.0.0, SVG Export Plug-In . SVG Version: 6.00 Build 0)  -->
<svg version="1.1" id="Livello_1" xmlns="http://www.w3.org/2000/svg" xmlns:xlink="http://www.w3.org/1999/xlink" x="0px" y="0px"
	 viewBox="0 0 515.2 470.4" style="enable-background:new 0 0 515.2 470.4;" xml:space="preserve">
<style type="text/css">
	.st0{fill:#65727E;}
</style>
<path class="st0" d="M454.3,75.8h-77c-8.7,0-16.1-7.1-16.1-15.5c0-33.2-27.3-60.3-60.9-60.3L126.9,0C93.3,0,66,27.1,66,60.3
	c0,1.9,0.6,3.7,1.1,5.5l-6.2,0C27.3,65.8,0,92.8,0,126.1v284c0,33.2,27.3,60.3,60.9,60.3h327.4c32.8,0,59.4-25.8,60.7-57.9
	c1.8,0.4,3.4,1.1,5.4,1.1c33.6,0,60.9-27,60.9-60.2l0-217.3C515.2,102.8,487.9,75.8,454.3,75.8L454.3,75.8z M404.4,410.1
	c0,8.4-7.4,15.5-16.1,15.5H60.9c-8.7,0-16.1-7.1-16.1-15.5v-284c0-8.4,7.4-15.5,16.1-15.5h173.3c8.7,0,16.1,7.1,16.1,15.5
	c0,5.4,0.9,10.5,2.3,15.5l-130.7,0c-12.4,0-22.4,10-22.4,22.4c0,12.4,10,22.4,22.4,22.4h266.4c8.7,0,16.1,7.1,16.1,15.4L404.4,410.1
	z M470.4,353.3c0,8.4-7.4,15.4-16.1,15.4c-1.8,0-3.4,0.6-5.1,1v-168c0-33.2-27.3-60.2-60.9-60.2h-77c-8.7,0-16.1-7.1-16.1-15.5
	c0-33.2-27.3-60.3-60.9-60.3H109.7c0.5-1.8,1.1-3.5,1.1-5.5c0-8.4,7.4-15.5,16.1-15.5h173.3c8.7,0,16.1,7.1,16.1,15.5
	c0,33.2,27.3,60.3,60.9,60.3h77c8.7,0,16.1,7.1,16.1,15.5L470.4,353.3z"/>
</svg>
