<?xml version="1.0" encoding="utf-8"?>
<!-- Generator: Adobe Illustrator 26.0.0, SVG Export Plug-In . SVG Version: 6.00 Build 0)  -->
<svg version="1.1" id="Livello_1" xmlns="http://www.w3.org/2000/svg" xmlns:xlink="http://www.w3.org/1999/xlink" x="0px" y="0px"
	 viewBox="0 0 515.2 470.4" style="enable-background:new 0 0 515.2 470.4;" xml:space="preserve">
<style type="text/css">
	.st0{fill:#65727E;}
</style>
<g>
	<path class="st0" d="M448,89.6h-89.6C346,89.6,336,79.5,336,67.2C336,30.1,305.9,0,268.8,0H67.2C30.2,0,0,30.1,0,67.2v336
		c0,37.1,30.2,67.2,67.2,67.2h171.7c12.4,0,22.4-10,22.4-22.4c0-12.4-10-22.4-22.4-22.4l-171.7,0c-12.4,0-22.4-10.1-22.4-22.4l0-336
		c0-12.3,10-22.4,22.4-22.4h201.6c12.4,0,22.4,10.1,22.4,22.4c0,7.9,1.6,15.4,4.1,22.4H138.1c-12.4,0-22.4,10-22.4,22.4
		s10,22.4,22.4,22.4l220.3,0H448c12.4,0,22.4,10.1,22.4,22.4v64.5c0,12.4,10,22.4,22.4,22.4s22.4-10,22.4-22.4l0-64.5
		C515.2,119.7,485,89.6,448,89.6L448,89.6z"/>
	<path class="st0" d="M465.2,340.8c5.3-11.4,8.1-24,8.1-37.1c0-46-34.9-83.4-77.8-83.4s-77.8,37.4-77.8,83.4
		c0,13.1,2.8,25.7,8.1,37.1c-31,24.4-50,64.2-50,107.2c0,12.4,10,22.4,22.4,22.4h194.6c12.4,0,22.4-10,22.4-22.4
		C515.2,405,496.1,365.2,465.2,340.8L465.2,340.8z M323.1,425.6c5.9-25.7,21.8-47.3,43.7-57.9c6.4-3.1,11-9.1,12.3-16.1
		c1.3-7-0.8-14.2-5.7-19.4c-7-7.5-10.8-17.6-10.8-28.5c0-21.3,14.8-38.6,33-38.6s33,17.3,33,38.6c0,10.9-3.9,21-10.8,28.5
		c-4.9,5.2-7,12.4-5.7,19.4c1.3,7,5.8,13,12.3,16.1c21.9,10.6,37.8,32.2,43.7,57.9H323.1z"/>
</g>
</svg>
