<?xml version="1.0" encoding="utf-8"?>
<!-- Generator: Adobe Illustrator 26.0.0, SVG Export Plug-In . SVG Version: 6.00 Build 0)  -->
<svg version="1.1" id="Livello_1" xmlns="http://www.w3.org/2000/svg" xmlns:xlink="http://www.w3.org/1999/xlink" x="0px" y="0px"
	 viewBox="0 0 515.2 470.4" style="enable-background:new 0 0 515.2 470.4;" xml:space="preserve">
<style type="text/css">
	.st0{fill:#65727E;}
</style>
<g>
	<path class="st0" d="M448,89.6h-89.6C346,89.6,336,79.5,336,67.2C336,30.1,305.9,0,268.8,0H67.2C30.2,0,0,30.1,0,67.2v336
		c0,33.4,25.7,67.2,83.1,67.2h135.4c12.4,0,22.4-10,22.4-22.4c0-12.4-10-22.4-22.4-22.4l-135.4,0c-9,0-38.3-1.6-38.3-22.4v-336
		c0-12.3,10-22.4,22.4-22.4h201.6c12.4,0,22.4,10.1,22.4,22.4c0,7.9,1.6,15.4,4.1,22.4H138.1c-12.4,0-22.4,10-22.4,22.4
		s10,22.4,22.4,22.4l220.3,0H448c12.4,0,22.4,10.1,22.4,22.4V188c0,12.4,10,22.4,22.4,22.4s22.4-10,22.4-22.4l0-31.2
		C515.2,119.7,485,89.6,448,89.6L448,89.6z"/>
	<path class="st0" d="M492.8,224h-155c-12.4,0-22.4,10-22.4,22.4v22.4h-44.8c-12.4,0-22.4,10-22.4,22.4v123.2c0,30.9,25.1,56,56,56
		h155c30.9,0,56-25.1,56-56v-168C515.2,234,505.2,224,492.8,224L492.8,224z M293,313.6h22.4v100.8c0,6.2-5,11.2-11.2,11.2
		c-6.1,0-11.2-5.1-11.2-11.2V313.6z M470.4,414.4c0,6.1-5.1,11.2-11.2,11.2H359.1c0.7-3.6,1.1-7.4,1.1-11.2V293.2
		c0.1-0.6,0.1-1.3,0.1-2s0-1.3-0.1-2v-20.4h110.2L470.4,414.4z"/>
</g>
</svg>
