<?xml version="1.0" encoding="utf-8"?>
<!-- Generator: Adobe Illustrator 26.0.0, SVG Export Plug-In . SVG Version: 6.00 Build 0)  -->
<svg version="1.1" id="Layer_1" xmlns="http://www.w3.org/2000/svg" xmlns:xlink="http://www.w3.org/1999/xlink" x="0px" y="0px"
	 viewBox="0 0 376 512" style="enable-background:new 0 0 376 512;" xml:space="preserve">
<style type="text/css">
	.st0{fill:#FFAE3F;}
</style>
<g id="XMLID_1_">
	<path id="XMLID_4_" class="st0" d="M277.8,35.7c0,0-62.3,40.9-125.3,11C84.4,14.5,53.7,27,24.3,75.8c-5.2-3.9-11.5-3.9-16.7,0
		c-7.5,6.3-9.8,20.4-5.2,30.7l165.8,366.4c2.9,7.1,8.7,10.2,13.9,10.2c2.9,0,5.8-0.8,8.7-3.1c7.5-6.3,9.8-20.4,5.2-30.7l-72.8-162
		c28.9-48,60.1-61.3,127.6-29.1c62.3,29.9,125.3-11,125.3-11L277.8,35.7z"/>
</g>
</svg>
