<?xml version="1.0" encoding="UTF-8" standalone="no"?>
<svg
   xmlns:dc="http://purl.org/dc/elements/1.1/"
   xmlns:cc="http://creativecommons.org/ns#"
   xmlns:rdf="http://www.w3.org/1999/02/22-rdf-syntax-ns#"
   xmlns:svg="http://www.w3.org/2000/svg"
   xmlns="http://www.w3.org/2000/svg"
   width="126.89087mm"
   height="55.842552mm"
   viewBox="0 0 126.89087 55.842555"
   version="1.1"
   id="svg8">
  <defs
     id="defs2" />
  <metadata
     id="metadata5">
    <rdf:RDF>
      <cc:Work
         rdf:about="">
        <dc:format>image/svg+xml</dc:format>
        <dc:type
           rdf:resource="http://purl.org/dc/dcmitype/StillImage" />
        <dc:title></dc:title>
      </cc:Work>
    </rdf:RDF>
  </metadata>
  <g
     id="layer2"
     style="display:inline" />
  <g
     id="layer1"
     transform="translate(-41.153904,-53.18479)">
    <g
       id="g1533">
      <path
         style="opacity:0.977901;fill:#388697;fill-opacity:1;fill-rule:nonzero;stroke:none;stroke-width:0.582001;stroke-linecap:round;stroke-linejoin:round;stroke-miterlimit:4;stroke-dasharray:none;stroke-opacity:1"
         id="path3214"
         d="m 46.041304,71.88998 c 0.687692,0.974135 1.337747,1.961015 2.185803,2.804269 0.605684,0.519853 1.178557,1.111686 1.897208,1.479976 0.324508,0.166304 0.544867,0.222996 0.886822,0.333534 0.211638,0.0074 0.423312,0.03035 0.634915,0.02207 0.860902,-0.03372 1.718271,-0.131723 2.578714,-0.175625 1.951652,-0.09958 3.89418,-0.126109 5.848027,-0.11533 2.453916,0.04122 4.8987,0.259816 7.350083,0.358619 1.487972,0.02463 2.97524,0.01786 4.462555,-0.03174 1.860942,-0.0841 3.721076,-0.02955 5.581724,0.01185 1.558975,-0.06687 2.873851,0.445021 4.261818,1.081497 1.215446,0.572572 2.266493,1.403559 3.257474,2.297909 0.371541,0.354296 0.59432,0.526873 0.880319,0.962949 0.63904,0.97437 1.067776,2.12612 1.486029,3.205763 -7.973319,-21.273759 -4.07643,-13.433502 -3.65211,-8.445188 0.04114,0.867357 0.08035,1.740612 0.01204,2.60712 -0.179615,1.258122 -0.80898,2.340422 -1.534356,3.358554 -0.860467,1.194771 -1.836306,2.304391 -2.827724,3.391654 -0.720431,1.061379 -1.870686,1.739128 -2.669968,2.725762 -0.144235,0.178046 -0.257435,0.379139 -0.386152,0.568708 -0.864303,1.344909 -1.562142,2.780361 -2.299419,4.194371 -0.485744,0.836792 -0.778473,1.765197 -0.907003,2.720525 -1.178266,0.428853 3.487042,13.246673 4.665308,12.817823 v 0 c 0.127151,-1.00445 0.377516,-1.97983 0.847395,-2.8843 0.675708,-1.44691 1.278908,-2.94503 2.298186,-4.19776 0.313762,-0.43431 0.457854,-0.65521 0.809742,-1.057865 0.696539,-0.79703 1.526653,-1.45549 2.250392,-2.22556 0.930251,-1.142277 1.903987,-2.245537 2.827136,-3.393273 0.686697,-0.988806 1.357773,-2.021171 1.584077,-3.22195 0.06886,-0.885092 0.03688,-1.774749 -0.03105,-2.659335 C 87.69577,82.562883 84.347333,77.104825 82.81013,71.644865 82.393795,70.56837 81.876736,69.240472 81.261802,68.267937 c -0.30547,-0.483113 -0.47633,-0.593949 -0.881978,-0.967507 -0.985018,-0.883652 -1.99648,-1.734261 -3.237222,-2.242269 -0.893985,-0.395881 -1.934594,-0.919203 -2.905583,-1.069478 -0.261236,-0.04043 -1.104567,0.0075 -1.345552,0.01733 -1.857772,0.04194 -3.714959,0.09509 -5.573069,0.01191 -1.494092,-0.04813 -2.988109,-0.05589 -4.482735,-0.02371 -2.360877,0.110442 -4.713864,0.350266 -7.078311,0.388064 -3.136955,0.0127 -6.323811,0.01982 -9.401056,-0.663593 -1.067032,-0.2974 -1.940395,-0.894998 -2.731367,-1.668825 -0.882415,-0.929291 -1.627952,-1.960859 -2.280611,-3.064751 -1.186264,0.431766 3.510717,13.336614 4.696981,12.904851 z" />
      <g
         id="g1524">
        <path
           style="opacity:0.977901;fill:#388697;fill-opacity:1;fill-rule:nonzero;stroke:none;stroke-width:0.582001;stroke-linecap:round;stroke-linejoin:round;stroke-miterlimit:4;stroke-dasharray:none;stroke-opacity:1"
           id="path3180"
           d="m 117.07714,85.123937 c -3.76182,0.769996 -7.63164,0.747977 -11.45474,0.686506 -2.18726,0.03274 -4.39823,-0.301487 -6.583952,-0.08659 -0.83125,0.08173 -1.12978,0.188357 -1.91298,0.389903 -1.11028,0.358847 -2.05291,0.938459 -2.56765,2.004693 -0.023,0.120345 -0.0661,0.238548 -0.069,0.361037 -0.003,0.134183 0.0233,0.268092 0.0511,0.399407 1.09729,5.187228 1.06389,10.514248 3.5996,15.073967 1.21889,-0.25908 -1.59957,-13.518873 -2.81846,-13.259791 v 0 c -0.2346,-0.424407 -0.29684,-0.514466 -0.49302,-0.960411 -0.0667,-0.151532 -0.21829,-0.623027 -0.1852,-0.460822 0.88219,4.324022 1.82269,8.635939 2.73404,12.953914 -0.0635,-0.50958 -0.071,-0.25769 0.0189,-0.75576 0.4943,-1.18117 1.33122,-1.825098 2.49765,-2.334045 0.747722,-0.265372 1.074952,-0.409575 1.874752,-0.569749 0.39088,-0.07828 0.78861,-0.117274 1.18284,-0.176424 1.73454,-0.260249 3.47311,-0.502819 5.23081,-0.538157 3.92163,-0.06349 7.88145,-0.05926 11.74659,0.686509 1.23308,-0.262102 -1.61819,-13.676289 -2.85128,-13.414187 z" />
        <path
           style="opacity:0.977901;fill:#388697;fill-opacity:1;fill-rule:nonzero;stroke:none;stroke-width:0.582001;stroke-linecap:round;stroke-linejoin:round;stroke-miterlimit:4;stroke-dasharray:none;stroke-opacity:1"
           id="path3190"
           d="m 87.573188,69.385078 c 0.0123,0.93802 -0.31356,1.811084 -0.5088,2.714155 -0.0218,0.192074 -0.0787,0.383381 -0.0653,0.576222 0.0736,1.062683 0.91538,2.184869 1.54711,2.987479 1.16814,1.061493 2.52164,1.889832 3.89275,2.659555 0.98664,0.518954 1.76039,1.308709 2.57122,2.053233 0.8417,0.778428 1.45842,1.774531 1.99425,2.779855 0.48375,1.035767 0.19321,2.097516 -0.0366,3.155074 -0.0985,0.56691 -0.30311,1.107665 -0.47462,1.655093 1.17738,0.42853 5.839172,-12.379634 4.661792,-12.808164 v 0 c 0.16847,-0.540935 0.37426,-1.074719 0.46743,-1.635339 0.21395,-1.026372 0.49502,-2.042271 -0.007,-3.036215 -0.31459,-0.584933 -0.67731,-1.125006 -1.02694,-1.689164 -0.0606,-0.09781 -0.49436,-0.833911 -0.619802,-0.978733 -0.0848,-0.09796 -0.19795,-0.167315 -0.29692,-0.250971 -0.83869,-0.681 -1.66537,-1.389602 -2.63086,-1.889347 -1.39259,-0.774184 -2.85443,-1.382879 -3.8905,-2.665743 -0.71395,-0.848127 -1.45901,-1.899322 -1.52321,-3.053141 -0.0104,-0.187 0.0393,-0.372512 0.059,-0.558768 0.21598,-0.979736 0.5578,-1.926267 0.59113,-2.940355 -1.18815,-0.432448 -5.89256,12.492826 -4.70442,12.925274 z" />
        <path
           style="opacity:0.977901;fill:#388697;fill-opacity:1;fill-rule:nonzero;stroke:none;stroke-width:0.582001;stroke-linecap:round;stroke-linejoin:round;stroke-miterlimit:4;stroke-dasharray:none;stroke-opacity:1"
           id="path3204"
           d="m 102.88268,68.915705 c 0.19824,0.637196 0.27026,1.337154 0.54089,1.951384 0.16277,0.369414 0.36113,0.559723 0.61796,0.865799 0.13937,0.133855 0.27004,0.277386 0.41809,0.401566 0.30977,0.259826 0.64993,0.4812 0.96979,0.728498 0.45021,0.348083 0.88286,0.713833 1.31647,1.082231 0.84638,0.711441 1.28458,1.697553 1.74634,2.671805 0.34181,0.882787 1.07066,1.520761 1.55342,2.312765 0.11687,0.191722 0.20967,0.397116 0.3145,0.595675 0.51259,1.216337 0.74812,2.531766 0.69134,3.84765 -0.87872,4.519774 -3.83278,11.456664 4.18257,-11.207951 0.0501,-0.141713 -0.14993,0.260575 -0.22448,0.391102 -0.34513,0.604311 -0.14552,0.285496 -0.54211,0.870582 -0.37111,0.556668 -0.79788,1.072034 -1.20017,1.605621 -1.17521,-0.427741 -5.82845,12.35692 -4.65324,12.784664 v 0 c 0.39935,-0.550328 0.82728,-1.079129 1.21263,-1.639816 0.24212,-0.352306 0.60761,-0.834908 0.75721,-1.235943 0.99458,-2.666158 4.19151,-9.44368 5.08579,-14.256657 0.0563,-1.304332 -0.20614,-2.600658 -0.70616,-3.806917 -0.10087,-0.209447 -0.18837,-0.425882 -0.30262,-0.628338 -0.45999,-0.815126 -1.14415,-1.497095 -1.53844,-2.353924 -0.48941,-0.993013 -0.81464,-1.980102 -1.75118,-2.65851 -0.29135,-0.254423 -0.56973,-0.524393 -0.87307,-0.764383 -0.61131,-0.483638 -1.32437,-0.848607 -1.82538,-1.464107 -0.23673,-0.306191 -0.44669,-0.538792 -0.60788,-0.893492 -0.29173,-0.641988 -0.39609,-1.374008 -0.50023,-2.063089 -1.18249,-0.430392 -5.86453,12.433395 -4.68204,12.863785 z" />
        <path
           style="opacity:0.977901;fill:#388697;fill-opacity:1;fill-rule:nonzero;stroke:none;stroke-width:0.582001;stroke-linecap:round;stroke-linejoin:round;stroke-miterlimit:4;stroke-dasharray:none;stroke-opacity:1"
           id="path3212"
           d="m 123.50548,54.122735 c -0.78192,1.066839 -1.47404,2.19289 -2.0682,3.373845 -2.05211,4.225197 -4.13052,8.437715 -6.15632,12.675592 -0.40653,0.850447 -0.39948,1.957961 -0.31877,2.872573 0.0299,0.15345 0.0403,0.312039 0.0898,0.460348 0.16002,0.479791 0.51114,0.904084 0.77296,1.328489 0.1963,0.318185 0.3814,0.643173 0.57633,0.9622 0.62843,1.089062 1.11383,2.246151 1.46538,3.451868 0.23295,0.985615 0.63931,1.909267 0.97877,2.858791 0.17017,0.631248 0.37012,1.286367 0.34339,1.949164 -0.0193,0.478449 -0.10024,0.6457 -0.23543,1.108996 -1.86211,4.478676 -0.85968,2.037455 5.37986,-11.044029 0.0916,-0.192159 -0.225,0.361501 -0.33629,0.542997 -0.28102,0.458332 -0.56059,0.914135 -0.85862,1.361675 -1.12153,-0.54701 -7.07221,11.653684 -5.95068,12.200694 v 0 c 3.11499,-4.752027 5.46207,-9.985322 7.68604,-15.199767 0.0613,-0.202046 0.13766,-0.400124 0.18391,-0.606142 0.18991,-0.846018 -0.006,-1.701858 -0.26368,-2.509813 -0.3211,-0.945796 -0.71097,-1.864194 -0.99592,-2.823636 -0.40011,-1.181682 -0.87429,-2.346661 -1.46938,-3.443666 -0.50416,-0.911839 -1.17837,-1.771584 -1.4156,-2.799205 -0.0456,-0.367829 -0.0946,-0.656264 -0.0835,-1.031615 0.12021,-4.070805 8.39913,-16.795562 -5.29497,9.786852 0.55735,-1.109149 1.18662,-2.185998 1.96305,-3.158249 1.13231,0.552268 7.14018,-11.765695 6.00787,-12.317962 z" />
      </g>
      <path
         id="path3156"
         style="opacity:0.977901;fill:#388697;fill-opacity:1;fill-rule:nonzero;stroke:none;stroke-width:3.71223;stroke-linecap:round;stroke-linejoin:round;stroke-miterlimit:4;stroke-dasharray:none;stroke-opacity:1"
         d="m 335.81445,17.923828 c 0.0302,2.645042 0.19351,5.301989 0.62891,7.916016 0.0707,0.42497 0.11909,0.758042 0.1875,1.173828 -4.5295,-9.011127 -1.78152,-2.54853 3.11523,21.658203 2.68339,23.362473 -1.20137,15.833155 6.08594,29.470703 3.29019,3.971286 6.38323,8.117236 10.17383,11.666016 2.9867,2.568245 6.63814,3.569501 10.48437,4.171875 4.06353,0.347414 8.14251,0.333893 12.2168,0.251953 2.03316,-0.1632 4.12571,0.230222 6.1543,0.05859 0.82171,-0.06958 1.62475,-0.271952 2.4375,-0.408204 4.13257,-0.692919 1.95277,-0.338748 6.21679,-1.009765 4.9852,-0.724649 10.00845,-1.111339 14.9961,-1.816406 2.10021,-0.375912 4.18393,-0.799259 6.30859,-1.03125 0.67605,-0.07381 1.36186,-0.06226 2.03125,-0.179688 0.92912,-0.162973 2.97845,-0.841585 3.8711,-1.123047 3.09509,-0.86818 6.13761,-1.888829 9.29492,-2.529297 3.32217,-0.570372 6.70726,-0.607425 10.05078,-0.24414 5.23854,0.298053 9.68557,2.637339 14.02148,5.261719 3.23592,1.846491 5.82494,4.474668 8.29297,7.169921 2.25956,2.964645 4.82045,5.722275 6.73047,8.914065 0.72839,1.51953 1.32286,3.08506 1.9043,4.6543 2.01751,11.6643 6.07035,30.33625 8.30069,29.99547 -0.51047,-17.00239 -5.65161,-41.42624 -8.6835,-58.130241 -0.51651,-5.132459 -2.51486,-10.166318 -4.91016,-14.017578 -1.78666,-3.662767 -2.92193,-7.549403 -4.61523,-11.251953 -1.82933,-3.298073 -4.48138,-6.050292 -6.75586,-9.070313 -2.42348,-2.675852 -4.92289,-5.356865 -8.26172,-6.974609 -4.45459,-2.335026 -8.90312,-4.609161 -14.01758,-5.244141 -1.41944,-0.235842 -2.81391,-0.634642 -4.24805,-0.763671 -1.93621,-0.174161 -3.94943,0.516566 -5.87695,0.55664 -3.18822,0.619253 -6.17712,1.826772 -9.24024,2.855469 -1.01423,0.320693 -2.82115,0.922636 -3.86914,1.134765 -2.75043,0.556748 -5.60789,0.546012 -8.3457,1.179688 -4.96743,0.779059 -9.86413,1.991548 -14.87109,2.582031 -4.94952,0.604543 -9.92597,0.699127 -14.91211,0.726563 -4.0851,-0.0714 -8.18953,0.0092 -12.25196,-0.464844 -3.83988,-0.525487 -7.51028,-1.568609 -10.4746,-4.111328 -2.17406,-1.749679 -4.1061,-3.747693 -5.88282,-5.875 -1.94165,-9.540624 -4.38771,-17.442566 -6.28711,-17.152344 z m 20.36328,114.683592 c -0.16689,0.004 -0.33405,0.0154 -0.5,0.0391 -1.99899,0.28653 -3.93773,1.01851 -5.91601,1.46875 -2.98288,0.67891 -5.93052,1.31661 -8.88086,2.18946 -3.74544,0.96248 4.91476,50.22222 8.66016,49.25976 12.39803,-3.55764 25.4684,-4.42131 37.38867,-5.43554 4.20128,-0.30085 8.395,-0.75977 12.59961,-0.98243 2.38877,-0.12661 4.78174,-0.0965 7.17187,-0.17968 7.65933,-0.26608 15.2951,-1.01185 22.95703,-1.20899 3.52067,-0.0401 7.04214,-0.18874 10.5625,-0.12109 8.24898,0.38151 16.91281,0.94295 23.33399,1.38672 20.00959,-1.28356 17.1398,-45.60883 13.20703,-45.17774 -1.34294,0.23864 -2.678,0.5619 -4.0293,0.7168 -6.68526,0.76636 -9.9722,0.66377 -16.98047,0.75391 -25.70423,0.40594 -52.86744,-2.40945 -77.03711,-1.91993 -8.03103,-0.006 -15.54938,-0.5239 -22.53711,-0.78903 z"
         transform="matrix(0.26458333,0,0,0.26458333,41.153904,53.18479)" />
    </g>
    <circle
       id="path143"
       style="fill:#000000;stroke:#000000;stroke-width:0.264583"
       cx="134.19907"
       cy="127.7561"
       r="0.13894679" />
  </g>
</svg>
