<?xml version="1.0" encoding="UTF-8" standalone="no"?>
<svg
   xmlns:dc="http://purl.org/dc/elements/1.1/"
   xmlns:cc="http://creativecommons.org/ns#"
   xmlns:rdf="http://www.w3.org/1999/02/22-rdf-syntax-ns#"
   xmlns:svg="http://www.w3.org/2000/svg"
   xmlns="http://www.w3.org/2000/svg"
   xmlns:sodipodi="http://sodipodi.sourceforge.net/DTD/sodipodi-0.dtd"
   xmlns:inkscape="http://www.inkscape.org/namespaces/inkscape"
   width="136.86771mm"
   height="54.890785mm"
   viewBox="0 0 136.8677 54.890786"
   version="1.1"
   id="svg8"
   inkscape:version="1.0.1 (3bc2e813f5, 2020-09-07)"
   sodipodi:docname="disegno.svg">
  <defs
     id="defs2">
    <pattern
       id="EMFhbasepattern"
       patternUnits="userSpaceOnUse"
       width="6"
       height="6"
       x="0"
       y="0" />
  </defs>
  <sodipodi:namedview
     id="base"
     pagecolor="#ffffff"
     bordercolor="#666666"
     borderopacity="1.0"
     inkscape:pageopacity="0.0"
     inkscape:pageshadow="2"
     inkscape:zoom="1.1744072"
     inkscape:cx="300.97748"
     inkscape:cy="51.493964"
     inkscape:document-units="mm"
     inkscape:current-layer="layer1"
     inkscape:document-rotation="0"
     showgrid="false"
     inkscape:window-width="1366"
     inkscape:window-height="706"
     inkscape:window-x="1912"
     inkscape:window-y="376"
     inkscape:window-maximized="1"
     width="133.01532mm"
     fit-margin-top="0"
     fit-margin-left="0"
     fit-margin-right="0"
     fit-margin-bottom="0" />
  <metadata
     id="metadata5">
    <rdf:RDF>
      <cc:Work
         rdf:about="">
        <dc:format>image/svg+xml</dc:format>
        <dc:type
           rdf:resource="http://purl.org/dc/dcmitype/StillImage" />
        <dc:title></dc:title>
      </cc:Work>
    </rdf:RDF>
  </metadata>
  <g
     inkscape:label="Livello 1"
     inkscape:groupmode="layer"
     id="layer1"
     transform="translate(-41.153904,-53.18479)">
    <path
       style="opacity:0.977901;fill:#388697;fill-opacity:1;fill-rule:nonzero;stroke:none;stroke-width:0.582001;stroke-linecap:round;stroke-linejoin:round;stroke-miterlimit:4;stroke-dasharray:none;stroke-opacity:1"
       id="path3214"
       d="m 46.041304,71.88998 c 0.687692,0.974135 1.337747,1.961015 2.185803,2.804269 0.605684,0.519853 1.178557,1.111686 1.897208,1.479976 0.324508,0.166304 0.544867,0.222996 0.886822,0.333534 0.211638,0.0074 0.423312,0.03035 0.634915,0.02207 0.860902,-0.03372 1.718271,-0.131723 2.578714,-0.175625 1.951652,-0.09958 3.89418,-0.126109 5.848027,-0.11533 2.453916,0.04122 4.8987,0.259816 7.350083,0.358619 1.487972,0.02463 2.97524,0.01786 4.462555,-0.03174 1.860942,-0.0841 3.721076,-0.02955 5.581724,0.01185 1.558975,-0.06687 2.873851,0.445021 4.261818,1.081497 1.215446,0.572572 2.266493,1.403559 3.257474,2.297909 0.371541,0.354296 0.59432,0.526873 0.880319,0.962949 0.63904,0.97437 1.067776,2.12612 1.486029,3.205763 -7.973319,-21.273759 -4.07643,-13.433502 -3.65211,-8.445188 0.04114,0.867357 0.08035,1.740612 0.01204,2.60712 -0.179615,1.258122 -0.80898,2.340422 -1.534356,3.358554 -0.860467,1.194771 -1.836306,2.304391 -2.827724,3.391654 -0.720431,1.061379 -1.870686,1.739128 -2.669968,2.725762 -0.144235,0.178046 -0.257435,0.379139 -0.386152,0.568708 -0.864303,1.344909 -1.562142,2.780361 -2.299419,4.194371 -0.485744,0.836792 -0.778473,1.765197 -0.907003,2.720525 -1.178266,0.428853 3.487042,13.246673 4.665308,12.817823 v 0 c 0.127151,-1.00445 0.377516,-1.97983 0.847395,-2.8843 0.675708,-1.44691 1.278908,-2.94503 2.298186,-4.19776 0.313762,-0.43431 0.457854,-0.65521 0.809742,-1.057865 0.696539,-0.79703 1.526653,-1.45549 2.250392,-2.22556 0.930251,-1.142277 1.903987,-2.245537 2.827136,-3.393273 0.686697,-0.988806 1.357773,-2.021171 1.584077,-3.22195 0.06886,-0.885092 0.03688,-1.774749 -0.03105,-2.659335 C 87.69577,82.562883 84.347333,77.104825 82.81013,71.644865 82.393795,70.56837 81.876736,69.240472 81.261802,68.267937 c -0.30547,-0.483113 -0.47633,-0.593949 -0.881978,-0.967507 -0.985018,-0.883652 -1.99648,-1.734261 -3.237222,-2.242269 -0.893985,-0.395881 -1.934594,-0.919203 -2.905583,-1.069478 -0.261236,-0.04043 -1.104567,0.0075 -1.345552,0.01733 -1.857772,0.04194 -3.714959,0.09509 -5.573069,0.01191 -1.494092,-0.04813 -2.988109,-0.05589 -4.482735,-0.02371 -2.360877,0.110442 -4.713864,0.350266 -7.078311,0.388064 -3.136955,0.0127 -6.323811,0.01982 -9.401056,-0.663593 -1.067032,-0.2974 -1.940395,-0.894998 -2.731367,-1.668825 -0.882415,-0.929291 -1.627952,-1.960859 -2.280611,-3.064751 -1.186264,0.431766 3.510717,13.336614 4.696981,12.904851 z" />
    <path
       style="opacity:0.977901;fill:#388697;fill-opacity:1;fill-rule:nonzero;stroke:none;stroke-width:0.582001;stroke-linecap:round;stroke-linejoin:round;stroke-miterlimit:4;stroke-dasharray:none;stroke-opacity:1"
       id="path3180"
       d="m 117.07714,85.123937 c -3.76182,0.769996 -7.63164,0.747977 -11.45474,0.686506 -2.18726,0.03274 -4.39823,-0.301487 -6.583952,-0.08659 -0.83125,0.08173 -1.12978,0.188357 -1.91298,0.389903 -1.11028,0.358847 -2.05291,0.938459 -2.56765,2.004693 -0.023,0.120345 -0.0661,0.238548 -0.069,0.361037 -0.003,0.134183 0.0233,0.268092 0.0511,0.399407 1.09729,5.187228 1.06389,10.514248 3.5996,15.073967 1.21889,-0.25908 -1.59957,-13.518873 -2.81846,-13.259791 v 0 c -0.2346,-0.424407 -0.29684,-0.514466 -0.49302,-0.960411 -0.0667,-0.151532 -0.21829,-0.623027 -0.1852,-0.460822 0.88219,4.324022 1.82269,8.635939 2.73404,12.953914 -0.0635,-0.50958 -0.071,-0.25769 0.0189,-0.75576 0.4943,-1.18117 1.33122,-1.825098 2.49765,-2.334045 0.747722,-0.265372 1.074952,-0.409575 1.874752,-0.569749 0.39088,-0.07828 0.78861,-0.117274 1.18284,-0.176424 1.73454,-0.260249 3.47311,-0.502819 5.23081,-0.538157 3.92163,-0.06349 7.88145,-0.05926 11.74659,0.686509 1.23308,-0.262102 -1.61819,-13.676289 -2.85128,-13.414187 z" />
    <path
       style="opacity:0.977901;fill:#388697;fill-opacity:1;fill-rule:nonzero;stroke:none;stroke-width:0.582001;stroke-linecap:round;stroke-linejoin:round;stroke-miterlimit:4;stroke-dasharray:none;stroke-opacity:1"
       id="path3190"
       d="m 87.573188,69.385078 c 0.0123,0.93802 -0.31356,1.811084 -0.5088,2.714155 -0.0218,0.192074 -0.0787,0.383381 -0.0653,0.576222 0.0736,1.062683 0.91538,2.184869 1.54711,2.987479 1.16814,1.061493 2.52164,1.889832 3.89275,2.659555 0.98664,0.518954 1.76039,1.308709 2.57122,2.053233 0.8417,0.778428 1.45842,1.774531 1.99425,2.779855 0.48375,1.035767 0.19321,2.097516 -0.0366,3.155074 -0.0985,0.56691 -0.30311,1.107665 -0.47462,1.655093 1.17738,0.42853 5.839172,-12.379634 4.661792,-12.808164 v 0 c 0.16847,-0.540935 0.37426,-1.074719 0.46743,-1.635339 0.21395,-1.026372 0.49502,-2.042271 -0.007,-3.036215 -0.31459,-0.584933 -0.67731,-1.125006 -1.02694,-1.689164 -0.0606,-0.09781 -0.49436,-0.833911 -0.619802,-0.978733 -0.0848,-0.09796 -0.19795,-0.167315 -0.29692,-0.250971 -0.83869,-0.681 -1.66537,-1.389602 -2.63086,-1.889347 -1.39259,-0.774184 -2.85443,-1.382879 -3.8905,-2.665743 -0.71395,-0.848127 -1.45901,-1.899322 -1.52321,-3.053141 -0.0104,-0.187 0.0393,-0.372512 0.059,-0.558768 0.21598,-0.979736 0.5578,-1.926267 0.59113,-2.940355 -1.18815,-0.432448 -5.89256,12.492826 -4.70442,12.925274 z" />
    <path
       style="opacity:0.977901;fill:#388697;fill-opacity:1;fill-rule:nonzero;stroke:none;stroke-width:0.582001;stroke-linecap:round;stroke-linejoin:round;stroke-miterlimit:4;stroke-dasharray:none;stroke-opacity:1"
       id="path3204"
       d="m 102.88268,68.915705 c 0.19824,0.637196 0.27026,1.337154 0.54089,1.951384 0.16277,0.369414 0.36113,0.559723 0.61796,0.865799 0.13937,0.133855 0.27004,0.277386 0.41809,0.401566 0.30977,0.259826 0.64993,0.4812 0.96979,0.728498 0.45021,0.348083 0.88286,0.713833 1.31647,1.082231 0.84638,0.711441 1.28458,1.697553 1.74634,2.671805 0.34181,0.882787 1.07066,1.520761 1.55342,2.312765 0.11687,0.191722 0.20967,0.397116 0.3145,0.595675 0.51259,1.216337 0.74812,2.531766 0.69134,3.84765 -0.87872,4.519774 -3.83278,11.456664 4.18257,-11.207951 0.0501,-0.141713 -0.14993,0.260575 -0.22448,0.391102 -0.34513,0.604311 -0.14552,0.285496 -0.54211,0.870582 -0.37111,0.556668 -0.79788,1.072034 -1.20017,1.605621 -1.17521,-0.427741 -5.82845,12.35692 -4.65324,12.784664 v 0 c 0.39935,-0.550328 0.82728,-1.079129 1.21263,-1.639816 0.24212,-0.352306 0.60761,-0.834908 0.75721,-1.235943 0.99458,-2.666158 4.19151,-9.44368 5.08579,-14.256657 0.0563,-1.304332 -0.20614,-2.600658 -0.70616,-3.806917 -0.10087,-0.209447 -0.18837,-0.425882 -0.30262,-0.628338 -0.45999,-0.815126 -1.14415,-1.497095 -1.53844,-2.353924 -0.48941,-0.993013 -0.81464,-1.980102 -1.75118,-2.65851 -0.29135,-0.254423 -0.56973,-0.524393 -0.87307,-0.764383 -0.61131,-0.483638 -1.32437,-0.848607 -1.82538,-1.464107 -0.23673,-0.306191 -0.44669,-0.538792 -0.60788,-0.893492 -0.29173,-0.641988 -0.39609,-1.374008 -0.50023,-2.063089 -1.18249,-0.430392 -5.86453,12.433395 -4.68204,12.863785 z" />
    <path
       style="opacity:0.977901;fill:#388697;fill-opacity:1;fill-rule:nonzero;stroke:none;stroke-width:0.582001;stroke-linecap:round;stroke-linejoin:round;stroke-miterlimit:4;stroke-dasharray:none;stroke-opacity:1"
       id="path3212"
       d="m 123.50548,54.122735 c -0.78192,1.066839 -1.47404,2.19289 -2.0682,3.373845 -2.05211,4.225197 -4.13052,8.437715 -6.15632,12.675592 -0.40653,0.850447 -0.39948,1.957961 -0.31877,2.872573 0.0299,0.15345 0.0403,0.312039 0.0898,0.460348 0.16002,0.479791 0.51114,0.904084 0.77296,1.328489 0.1963,0.318185 0.3814,0.643173 0.57633,0.9622 0.62843,1.089062 1.11383,2.246151 1.46538,3.451868 0.23295,0.985615 0.63931,1.909267 0.97877,2.858791 0.17017,0.631248 0.37012,1.286367 0.34339,1.949164 -0.0193,0.478449 -0.10024,0.6457 -0.23543,1.108996 -1.86211,4.478676 -0.85968,2.037455 5.37986,-11.044029 0.0916,-0.192159 -0.225,0.361501 -0.33629,0.542997 -0.28102,0.458332 -0.56059,0.914135 -0.85862,1.361675 -1.12153,-0.54701 -7.07221,11.653684 -5.95068,12.200694 v 0 c 3.11499,-4.752027 5.46207,-9.985322 7.68604,-15.199767 0.0613,-0.202046 0.13766,-0.400124 0.18391,-0.606142 0.18991,-0.846018 -0.006,-1.701858 -0.26368,-2.509813 -0.3211,-0.945796 -0.71097,-1.864194 -0.99592,-2.823636 -0.40011,-1.181682 -0.87429,-2.346661 -1.46938,-3.443666 -0.50416,-0.911839 -1.17837,-1.771584 -1.4156,-2.799205 -0.0456,-0.367829 -0.0946,-0.656264 -0.0835,-1.031615 0.12021,-4.070805 8.39913,-16.795562 -5.29497,9.786852 0.55735,-1.109149 1.18662,-2.185998 1.96305,-3.158249 1.13231,0.552268 7.14018,-11.765695 6.00787,-12.317962 z" />
    <path
       style="opacity:0.977901;fill:#388697;fill-opacity:1;fill-rule:nonzero;stroke:none;stroke-width:1;stroke-linecap:round;stroke-linejoin:round;stroke-miterlimit:4;stroke-dasharray:none;stroke-opacity:1"
       id="path3156"
       d="m 130.00492,57.927173 c 0.008,0.725437 0.051,1.453703 0.16616,2.170634 2.25131,14.0146 0.0935,9.707488 2.48423,14.345189 0.87053,1.089176 1.68873,2.226342 2.69166,3.199641 0.79023,0.704374 1.75659,0.978794 2.77424,1.144003 1.07514,0.09528 2.15437,0.09123 3.23236,0.06876 0.53794,-0.04476 1.09143,0.06371 1.62816,0.01664 0.21742,-0.01908 0.43008,-0.07464 0.64512,-0.112014 1.09341,-0.190042 0.5167,-0.09292 1.64489,-0.276961 1.319,-0.198744 2.64813,-0.304778 3.96778,-0.498152 0.55569,-0.103103 1.10664,-0.218958 1.66879,-0.282585 0.17887,-0.02024 0.36064,-0.01749 0.53775,-0.0497 0.24583,-0.0447 0.78803,-0.230828 1.02421,-0.308023 0.81891,-0.238109 1.62389,-0.518078 2.45926,-0.693735 0.87899,-0.156432 1.77454,-0.166767 2.65918,-0.06713 1.38603,0.08174 2.56267,0.723882 3.70988,1.443652 0.85617,0.506425 1.54087,1.226896 2.19387,1.966103 0.59784,0.813091 1.2757,1.569219 1.78106,2.444609 0.46919,1.01459 0.73637,2.100842 1.2241,3.106568 0.47721,0.78667 0.87811,1.589281 1.06835,2.491248 -3.70608,-22.66625 -2.12135,-16.464237 -2.00279,-11.63729 -1.23558,0.195696 0.89332,13.637008 2.1289,13.441312 v 0 c -0.14911,-5.148506 -1.4525,-10.216885 -2.25921,-15.271922 -0.19584,-0.926174 -0.56966,-1.606179 -1.05612,-2.414032 -0.47272,-1.004562 -0.77285,-2.070629 -1.22087,-3.086102 -0.48401,-0.904539 -1.18607,-1.659305 -1.78786,-2.487584 -0.64121,-0.733888 -1.30207,-1.469345 -2.18547,-1.913032 -1.17861,-0.640411 -2.35582,-1.26414 -3.70902,-1.438291 -0.37556,-0.06468 -0.74455,-0.173681 -1.124,-0.209069 -0.51229,-0.04777 -1.04481,0.141394 -1.5548,0.152385 -0.84355,0.169838 -1.63461,0.501234 -2.44506,0.783367 -0.26835,0.08795 -0.74646,0.25281 -1.02374,0.310989 -0.72772,0.152696 -1.48353,0.149828 -2.20791,0.323622 -1.3143,0.213667 -2.6097,0.546577 -3.93446,0.708525 -1.30956,0.165804 -2.62641,0.191262 -3.94566,0.198787 -1.08085,-0.01958 -2.16684,0.0024 -3.24168,-0.127632 -1.01598,-0.144121 -1.98719,-0.429321 -2.7715,-1.126694 -1.06911,-0.891897 -1.92194,-2.017337 -2.68747,-3.173158 -2.14738,-4.454459 -0.29534,-0.743062 1.75284,12.406651 0.0286,0.18343 -0.0579,-0.366895 -0.0779,-0.551453 -0.0212,-0.194969 -0.0645,-0.857062 -0.069,-1.068639 -0.003,-0.128143 0.005,-0.256302 0.007,-0.384453 1.24511,-0.197207 -0.90021,-13.742233 -2.14532,-13.545026 z" />
    <path
       style="opacity:0.977901;fill:#388697;fill-opacity:1;fill-rule:nonzero;stroke:none;stroke-width:1;stroke-linecap:round;stroke-linejoin:round;stroke-miterlimit:4;stroke-dasharray:none;stroke-opacity:1"
       id="path3172"
       d="m 174.86103,88.598366 c -0.42958,0.06314 -0.85648,0.14845 -1.28873,0.189434 -2.13846,0.202766 -3.18981,0.175612 -5.4316,0.199461 -2.80093,0.0298 -4.54249,0.06134 -7.35701,-0.04192 -1.14311,-0.04194 -2.28416,-0.128294 -3.42624,-0.192442 -0.97173,-0.0734 -1.94386,-0.141629 -2.91518,-0.220207 -0.79207,-0.06408 -1.58107,-0.171358 -2.3749,-0.207754 -1.82363,-0.08362 -2.66432,0.04769 -4.4956,0.09789 -1.35748,0.03721 -2.71584,0.0312 -4.07359,0.05663 -2.24468,0.02379 -4.48507,-0.140245 -6.72738,-0.196167 -0.21382,-7.94e-4 -0.42913,-0.02746 -0.64146,-0.0024 -0.63944,0.07581 -1.25945,0.269525 -1.89226,0.388651 -0.95415,0.179626 -1.89724,0.348369 -2.84099,0.579311 -1.19807,0.254656 1.57223,13.287897 2.77029,13.033247 v 0 c 1.7441,-0.56847 3.56838,-0.85491 5.40495,-0.82345 2.19039,-0.13227 4.36535,-0.46743 6.55499,-0.61482 1.34389,-0.0796 2.6854,-0.2012 4.03035,-0.26011 0.76412,-0.0335 1.52955,-0.0251 2.29409,-0.0471 2.45005,-0.0704 4.89252,-0.26791 7.34339,-0.32007 1.12618,-0.0106 2.25246,-0.0498 3.37854,-0.0319 2.65709,0.0422 4.8038,0.18868 7.44385,0.45042 2.00929,0.1992 3.72313,0.37984 5.66252,0.88693 0.49327,0.12898 0.95942,0.34544 1.43913,0.51816 1.23563,-0.26264 -1.62153,-13.70453 -2.85716,-13.441889 z" />
    <g
       id="g905"
       transform="translate(42.344098,-1.3309753)"
       style="fill:none;fill-opacity:1;stroke:#388697;stroke-width:1;stroke-miterlimit:4;stroke-dasharray:none;stroke-opacity:1">
      <path
         sodipodi:type="star"
         style="opacity:0.977901;fill:none;fill-opacity:1;stroke:#388697;stroke-width:1;stroke-linecap:round;stroke-linejoin:round;stroke-miterlimit:4;stroke-dasharray:none;stroke-opacity:1"
         id="path853"
         sodipodi:sides="3"
         sodipodi:cx="108.03889"
         sodipodi:cy="84.436821"
         sodipodi:r1="4.5749168"
         sodipodi:r2="2.2874589"
         sodipodi:arg1="-1.5707963"
         sodipodi:arg2="-0.52359878"
         inkscape:flatsided="false"
         inkscape:rounded="0"
         inkscape:randomized="0"
         inkscape:transform-center-y="-1.1437299"
         d="m 108.03889,79.861904 1.98099,3.431188 1.981,3.431188 -3.96199,0 -3.962,-10e-7 1.981,-3.431187 z" />
      <path
         sodipodi:type="star"
         style="opacity:0.977901;fill:none;fill-opacity:1;stroke:#388697;stroke-width:1;stroke-linecap:round;stroke-linejoin:round;stroke-miterlimit:4;stroke-dasharray:none;stroke-opacity:1"
         id="path853-1"
         sodipodi:sides="3"
         sodipodi:cx="115.96288"
         sodipodi:cy="84.436821"
         sodipodi:r1="4.5749168"
         sodipodi:r2="2.2874589"
         sodipodi:arg1="-1.5707963"
         sodipodi:arg2="-0.52359878"
         inkscape:flatsided="false"
         inkscape:rounded="0"
         inkscape:randomized="0"
         inkscape:transform-center-y="1.1437312"
         transform="rotate(60,112.31893,77.590783)"
         d="m 115.96288,79.861904 1.981,3.431188 1.981,3.431188 -3.962,0 -3.96199,-10e-7 1.981,-3.431187 z" />
    </g>
  </g>
</svg>
