<svg id="Livello_1" data-name="Livello 1" xmlns="http://www.w3.org/2000/svg" xmlns:xlink="http://www.w3.org/1999/xlink" viewBox="0 0 126 128"><defs><style>.cls-1{fill:url(#Sfumatura_senza_nome_27);}.cls-2{fill:#3f6068;}.cls-3{fill:#d6d6d6;}.cls-4{fill:#fff;}.cls-5,.cls-6,.cls-7,.cls-9{fill:none;stroke-miterlimit:10;}.cls-5{stroke:#d6d6d6;}.cls-6,.cls-7,.cls-9{stroke:#7c7c7c;}.cls-6{stroke-width:0.5px;}.cls-8{fill:url(#Sfumatura_senza_nome_38);}.cls-9{stroke-dasharray:4.05 2.02;}</style><linearGradient id="Sfumatura_senza_nome_27" x1="7.93" y1="13.65" x2="120.23" y2="116.33" gradientUnits="userSpaceOnUse"><stop offset="0.21" stop-color="#3c8599"/><stop offset="0.87" stop-color="#67abba"/></linearGradient><linearGradient id="Sfumatura_senza_nome_38" x1="46.66" y1="81.21" x2="98.21" y2="49.1" gradientUnits="userSpaceOnUse"><stop offset="0" stop-color="#cd2b33"/><stop offset="1" stop-color="#e66143"/></linearGradient></defs><path class="cls-1" d="M120.89,64a57.88,57.88,0,1,1-.15-4.18C120.84,61.21,120.89,62.6,120.89,64Z"/><path class="cls-2" d="M120.89,64A58,58,0,0,1,52.54,121L32.3,94.46,76.93,31.83l20.2,16,4.94-3.12,18.67,15.17C120.84,61.21,120.89,62.6,120.89,64Z"/><path class="cls-3" d="M76.8,94.91l-3,6a.8.8,0,0,1-1.28.07l-4.5-5.41a.8.8,0,0,0-1.31.11l-2.89,5a.79.79,0,0,1-1.35.06l-3.44-5a.8.8,0,0,0-1.35,0l-2.82,4.88a.8.8,0,0,1-1.37,0L50.4,95.8a.8.8,0,0,0-1.36,0l-3,4.92a.8.8,0,0,1-1.36,0l-3.21-5a.81.81,0,0,0-1.36,0l-3,5a.8.8,0,0,1-1.33.06l-3.35-5.94a.83.83,0,0,1-.15-.48V31.82a2.25,2.25,0,0,1,2.25-2.25H74.68a2.25,2.25,0,0,1,2.25,2.25V94.48A.75.75,0,0,1,76.8,94.91Z"/><circle class="cls-4" cx="45.73" cy="42.27" r="8.8"/><path class="cls-5" d="M45.73,42.26a2.34,2.34,0,1,1,2.34-2.34"/><path class="cls-5" d="M45.73,42.26a2.33,2.33,0,1,1-2.33,2.33"/><line class="cls-5" x1="45.73" y1="36.79" x2="45.73" y2="47.76"/><line class="cls-6" x1="54" y1="52.34" x2="73.74" y2="52.34"/><line class="cls-7" x1="39.58" y1="59.19" x2="69.24" y2="59.19"/><path class="cls-8" d="M102.07,44.67l-.52,10.46a.62.62,0,0,1-1,.44l-3.18-2.66a.62.62,0,0,0-.83,0L76.67,72.83l-2.39,2.39a.61.61,0,0,1-1-.29l-.81-3.28-.79-3.25a.62.62,0,0,0-1.05-.28L57.33,81.82l-2.2,2.26a.62.62,0,0,1-1-.08l-2.13-3.08-4-5.84a.61.61,0,0,0-.79-.2l-6.83,3.43a.62.62,0,0,1-.71-1l5.86-5.79,2.25-2.23a.61.61,0,0,1,.94.09l2.43,3.52,3.19,4.59a.62.62,0,0,0,.95.08L70.13,62.26l2.37-2.45a.63.63,0,0,1,1,.29l1,4,.82,3.33a.61.61,0,0,0,1,.29L93.51,50.55a.61.61,0,0,0,0-.91l-2.61-2.19a.61.61,0,0,1,.26-1.07L101.32,44A.62.62,0,0,1,102.07,44.67Z"/><line class="cls-7" x1="36.9" y1="88.61" x2="38.9" y2="88.61"/><line class="cls-9" x1="40.92" y1="88.61" x2="70.27" y2="88.61"/><line class="cls-7" x1="71.28" y1="88.61" x2="73.28" y2="88.61"/></svg>