<?xml version="1.0" encoding="utf-8"?>
<!-- Generator: Adobe Illustrator 26.0.0, SVG Export Plug-In . SVG Version: 6.00 Build 0)  -->
<svg version="1.1" id="Livello_1" xmlns="http://www.w3.org/2000/svg" xmlns:xlink="http://www.w3.org/1999/xlink" x="0px" y="0px" viewBox="0 0 254.2 136.6" style="enable-background:new 0 0 254.2 136.6;" xml:space="preserve">
  <style type="text/css">
	.st0{fill:#D5D5D5;stroke:#D5D5D5;stroke-linecap:round;stroke-linejoin:round;}
	.st1{fill:#3b8599;stroke:#3b8599;stroke-linecap:round;stroke-linejoin:round;}
	.st2{fill:#D5D5D5;stroke:#3b8599;stroke-miterlimit:10;}
	.st3{fill:#D5D5D5;stroke:#3b8599;stroke-linecap:round;stroke-linejoin:round;}
</style>
  <polygon class="st0" points="136.8,27.9 172.2,16.5 209.1,43.7 219.2,73.8 212.6,103 209.6,110.1 199.1,116.7 166.4,128.4 
	118.8,120.4 134.3,42.1 118.8,41.2 " />
  <path class="st1" d="M199.1,116.7c-39,24-82.8,26.4-99,3c-3.6-5.2-5.7-11.2-6.2-17.5l0,0l-74.5,0.6c0,0-17.6-2.1-18.9-24.4
	c-2.1-33.3,26.8-38.8,26.8-38.8l95.9-0.8h13.4c5.8-0.2,3.7,7.8,3.7,7.8l-12.3,71.1h18.8c0,0,6-27,13.9-31c0,0-0.1,32,22.9,32.5
	C190.8,119.3,199.1,116.8,199.1,116.7" />
  <path class="st2" d="M131.6,42.1H28.3c0,0-25.9,3.7-24.2,36.8c1.1,20.6,17.4,21.4,17.4,21.4l99.5-0.6L131.6,42.1z" />
  <path class="st1" d="M136.8,27.9c13.6,0.3,19-4.7,19-4.7h8.8l-10.9,60.8c22.6-31.7,41.5-32.6,44.9-32.6s10.6,0.9,10.6,7.8
	s-6.1,8.8-9.6,8.8c-4.8,0-9.4-3.9-9.4-3.9c-5.6-0.2-11.7,7.3-11.7,7.3s1.2,35.8,17.2,33.4c2.7-0.5,5.3-1.5,7.7-2.8l6.2,7.9
	c37.4-28.2,54.3-68.8,37.8-92.7c-17.2-24.8-64.2-22-104.8,6.2C140.6,25,138.5,26.5,136.8,27.9" />
  <path class="st1" d="M53.8,83.1l-4.7-5.3C31.6,93.3,23,84.2,24.6,74.9c0,0,31.3,1.2,31.3-15.4c0,0,0.9-10.3-14.7-10.4
	S10.9,59.6,10.9,76.5s15.3,17.9,21.7,17.2C35.8,93.4,44.9,92.9,53.8,83.1z" />
  <path class="st3" d="M25.5,68.8c1-7.3,6.9-11.8,11.7-12.2C46.4,55.9,43.4,68.7,25.5,68.8z" />
  <path class="st1" d="M111.8,49.1H97.4c0,0-5.5,30.4-5.5,30.4c-0.2,0.2-4.3,3.9-8.5,3.3s-3.7-3.1-3.7-3.1l4.8-30.7l-6.7,0.1
	c-4,3.3-14.3,3.6-14.3,3.6l-0.9,6.7c13-0.2-3.6,22.4,4.3,30.5c7.7,8,24.6-1.5,25.5-2c3.7,9.1,21.2,2.3,23.8-1.9l0,0l-3.7-5.2
	c-1.3,1.1-6.6,3.2-6-1.2C106.9,77.4,111.8,49.1,111.8,49.1z" />
</svg>