<svg id="Layer_1" data-name="Layer 1" xmlns="http://www.w3.org/2000/svg" viewBox="0 0 500 500"><defs><style>.cls-1{fill:#fff;}</style></defs><path class="cls-1" d="M247.31,394.25c-33.08,0-61-13-80.08-33.29-34.54-36.8-29.84-92-29.34-102.51V133.89h65.67V260.47l-.06.8c-.53,10.46-1.74,39.37,13.06,55,9.19,9.69,23,13,31.33,13,21.19,0,34.42-5,43-24.67,7.73-17.72,5-41.41,5-42.82v-.26h0V133.89H362V261.36c.06,7.25,7.1,63.06-29.47,100C312.77,381.39,286.89,394.25,247.31,394.25Z"/><path class="cls-1" d="M500,251.23C498.9,389.73,386.07,501.1,248,500,111.49,498.9,1.09,388.16,0,251.23,0,112.66,111.87,0,250,0S500,112.66,500,251.23Zm-34,0c0-119.64-96.69-216.63-216-216.63s-216,97-216,216.63,96.69,216.63,216,216.63c119.11,0,216-97.23,216-216.63Z"/></svg>